{
.formatVersion = 3;
axes = (
{
name = Weight;
tag = wght;
}
);
classes = (
{
code = "S Sacute Scaron";
name = _S_Both;
},
{
code = "T Tcedilla Tcaron Tcommaaccent";
name = _T_Both;
},
{
code = "U Uogonek Umacron Uring Uhungarumlaut Ugrave Uacute Ucircumflex Udieresis";
name = _U_Both;
},
{
code = W;
name = _W_Both;
},
{
code = "Y Yacute Ydieresis";
name = _Y_Both;
},
{
code = "Z Zacute Zdotaccent Zcaron";
name = _Z_Both;
},
{
code = "g gbreve gcommaaccent";
name = _g_Both;
},
{
code = "i iogonek igrave iacute icircumflex idieresis imacron";
name = _i_Both;
},
{
code = "s scaron sacute";
name = _s_both;
},
{
code = "t tcedilla tcaron tcommaaccent";
name = _t_Both;
},
{
code = "u uogonek ugrave uacute ucircumflex udieresis umacron uring uhungarumlaut";
name = _u_Both;
},
{
code = w;
name = _w_Both;
},
{
code = "y ydieresis yacute";
name = _y_Both;
},
{
code = "z zacute zdotaccent zcaron";
name = _z_Both;
},
{
code = "quoteleft quotedblleft";
name = _quoteleft_Both;
},
{
code = "quoteright quotedblright";
name = _quoteright_Both;
},
{
code = "quotesingle quotedbl";
name = _quotesingl_Both;
},
{
code = "guilsinglleft guillemetleft";
name = _guilsinglleft_Both;
},
{
code = "guilsinglright guillemetright";
name = _guilsinglright_Both;
},
{
code = hyphen;
name = _hyphen_Both;
},
{
code = "period comma";
name = _period_Both;
},
{
code = B;
name = _B_Both;
},
{
code = F;
name = _F_Both;
},
{
code = "H I";
name = _H_Both;
},
{
code = J;
name = _J_Both;
},
{
code = M;
name = _M_Both;
},
{
code = P;
name = _P_Both;
},
{
code = V;
name = _V_Both;
},
{
code = X;
name = _X_Both;
},
{
code = j;
name = _j_Both;
},
{
code = v;
name = _v_Both;
},
{
code = x;
name = _x_Both;
},
{
code = exclam;
name = _exclam_Both;
},
{
code = question;
name = _question_Both;
},
{
code = ampersand;
name = _ampersand_Both;
},
{
code = asterisk;
name = _asterisk_Both;
},
{
code = questiondown;
name = _questiondown_Both;
},
{
code = exclamdown;
name = _exclamdown_Both;
},
{

glyphs = (
{
glyphname = A;
layers = (
{
layerId = "A2DAE9BC-C777-495C-976C-8ACFC7C9BBD2";
shapes = (
{
closed = 1;
nodes = (
(1165,0,l),
(1357,0,l),
(825,1465,l),
(638,1465,l),
(105,0,l),
(269,0,l),
(416,424,l),
(1019,424,l)
);
},
{
closed = 1;
nodes = (
(462,548,l),
(672,1148,l),
(707,1294,l),
(727,1294,l),
(765,1148,l),
(975,548,l)
);
}
);
width = 1462;
},
{
background = {
shapes = (
{
closed = 1;
nodes = (
(1172,0,l),
(1378,0,l),
(832,1465,l),
(644,1465,l),
(99,0,l),
(264,0,l),
(408,418,l),
(1026,418,l)
);
},
{
closed = 1;
nodes = (
(454,551,l),
(650,1123,l),
(707,1327,l),
(727,1327,l),
(784,1123,l),
(978,551,l)
);
}
);
};
layerId = "DCFFE7A7-A818-4955-884B-BB4CE5043B09";
shapes = (
{
closed = 1;
nodes = (
(948,0,l),
(1425,0,l),
(1011,1465,l),
(449,1465,l),
(32,0,l),
(395,0,l),
(464,303,l),
(878,303,l)
);
},
{
closed = 1;
nodes = (
(520,536,l),
(616,962,l),
(661,1193,l),
(681,1193,l),
(726,962,l),
(823,536,l)
);
}
);
width = 1457;
},
{
layerId = "4B50D27E-C53B-49C1-950D-105FFE0A0ACC";
shapes = (
{
closed = 1;
nodes = (
(1020,0,l),
(1402,0,l),
(949,1465,l),
(512,1465,l),
(56,0,l),
(353,0,l),
(448,341,l),
(925,341,l)
);
},
{
closed = 1;
nodes = (
(500,542,l),
(634,1024,l),
(676,1227,l),
(696,1227,l),
(739,1024,l),
(873,542,l)
);
}
);
width = 1459;
},
{
layerId = "BA9225F5-135B-4D21-ADB1-4407AF656753";
shapes = (
{
closed = 1;
nodes = (
(1129,0,l),
(1368,0,l),
(856,1465,l),
(606,1465,l),
(93,0,l),
(290,0,l),
(424,399,l),
(995,399,l)
);
},
{
closed = 1;
nodes = (
(471,550,l),
(662,1117,l),
(699,1277,l),
(719,1277,l),
(758,1117,l),
(949,550,l)
);
}
);
width = 1461;
}
);
leftKerningGroup = _A_Right;
rightKerningGroup = _A_Left;
unicode = 65;
},
{
glyphname = AE;
layers = (
{
layerId = "A2DAE9BC-C777-495C-976C-8ACFC7C9BBD2";
shapes = (
{
closed = 1;
nodes = (
(1004,0,l),
(1757,0,l),
(1784,137,l),
(1155,137,l),
(1100,695,l),
(1632,695,l),
(1662,829,l),
(1088,829,l),
(1039,1328,l),
(1687,1328,l),
(1715,1465,l),
(816,1465,l),
(-1,0,l),
(171,0,l),
(397,419,l),
(964,419,l)
);
},
{
closed = 1;
nodes = (
(466,553,l),
(790,1148,l),
(853,1294,l),
(869,1294,l),
(893,1148,l),
(953,553,l)
);
}
);
width = 1917;
},
{
background = {
shapes = (
{
closed = 1;
nodes = (
(1786,0,l),
(1818,174,l),
(1628,156,o),
(1408,146,o),
(1204,140,c),
(1176,332,o),
(1158,512,o),
(1136,706,c),
(1312,704,o),
(1480,700,o),
(1658,690,c),
(1692,858,l),
(1506,844,o),
(1310,842,o),
(1122,838,c),
(1104,1006,o),
(1090,1182,o),
(1074,1348,c),
(1278,1344,o),
(1508,1336,o),
(1710,1318,c),
(1742,1496,l),
(1608,1492,o),
(1430,1490,o),
(1292,1490,cs),
(1144,1490,o),
(958,1494,o),
(806,1498,c),
(416,760,l),
(278,506,o),
(146,256,o),
(0,4,c),
(192,-4,l),
(422,436,l),
(510,440,o),
(636,448,o),
(706,448,cs),
(754,448,o),
(876,448,o),
(952,446,c),
(992,10,o),
(992,6,o),
(992,0,c)
);
},
{
closed = 1;
nodes = (
(680,586,o),
(576,586,o),
(500,588,c),
(692,956,l),
(748,1070,o),
(820,1226,o),
(856,1320,c),
(876,1320,l),
(878,1226,o),
(888,1098,o),
(900,980,cs),
(942,588,l),
(874,586,o),
(774,586,o),
(728,586,cs)
);
}
);
};
layerId = "DCFFE7A7-A818-4955-884B-BB4CE5043B09";
shapes = (
{
closed = 1;
nodes = (
(967,0,l),
(1849,0,l),
(1893,257,l),
(1397,257,l),
(1358,636,l),
(1764,636,l),
(1802,869,l),
(1336,869,l),
(1301,1208,l),
(1802,1208,l),
(1847,1465,l),
(661,1465,l),
(23,0,l),
(394,0,l),
(508,303,l),
(936,303,l)
);
},
{
closed = 1;
nodes = (
(598,536,l),
(757,962,l),
(837,1193,l),
(857,1193,l),
(870,962,l),
(913,536,l)
);
}
);
width = 2011;
},
{
layerId = "4B50D27E-C53B-49C1-950D-105FFE0A0ACC";
shapes = (
{
closed = 1;
nodes = (
(979,0,l),
(1818,0,l),
(1857,217,l),
(1316,217,l),
(1272,656,l),
(1720,656,l),
(1755,855,l),
(1253,855,l),
(1213,1248,l),
(1764,1248,l),
(1803,1465,l),
(713,1465,l),
(15,0,l),
(320,0,l),
(471,341,l),
(945,341,l)
);
},
{
closed = 1;
nodes = (
(554,542,l),
(768,1024,l),
(842,1227,l),
(861,1227,l),
(878,1024,l),
(926,542,l)
);
}
);
width = 1979;
},
{
layerId = "BA9225F5-135B-4D21-ADB1-4407AF656753";
shapes = (
{
closed = 1;
nodes = (
(998,0,l),
(1772,0,l),
(1802,157,l),
(1195,157,l),
(1143,685,l),
(1654,685,l),
(1685,835,l),
(1129,835,l),
(1082,1308,l),
(1706,1308,l),
(1737,1465,l),
(790,1465,l),
(3,0,l),
(208,0,l),
(415,399,l),
(959,399,l)
);
},
{
closed = 1;
nodes = (
(488,550,l),
(784,1117,l),
(850,1277,l),
(867,1277,l),
(889,1117,l),
(946,550,l)
);
}
);
width = 1932;
}
);
leftKerningGroup = _A_Right;
rightKerningGroup = _E_Left;
unicode = 198;
},
{
color = 9;
glyphname = Abrevedotbelow;
layers = (
{
layerId = "A2DAE9BC-C777-495C-976C-8ACFC7C9BBD2";
shapes = (
{
closed = 1;
nodes = (
(827,-445,o),
(872,-402,o),
(872,-339,cs),
(872,-273,o),
(827,-232,o),
(763,-232,cs),
(696,-232,o),
(653,-273,o),
(653,-339,cs),
(653,-402,o),
(696,-445,o),
(763,-445,cs)
);
},
{
closed = 1;
nodes = (
(1179,0,l),
(1371,0,l),
(839,1465,l),
(652,1465,l),
(119,0,l),
(283,0,l),
(430,424,l),
(1033,424,l)
);
},
{
closed = 1;
nodes = (
(476,548,l),
(686,1148,l),
(721,1294,l),
(741,1294,l),
(779,1148,l),
(989,548,l)
);
},
{
closed = 1;
nodes = (
(628,1720,o),
(549,1802,o),
(549,1920,c),
(426,1920,l),
(426,1739,o),
(530,1602,o),
(718,1602,cs),
(908,1602,o),
(1033,1740,o),
(1033,1920,c),
(910,1920,l),
(910,1802,o),
(829,1720,o),
(729,1720,cs)
);
}
);
width = 1530;
},
{
layerId = "DCFFE7A7-A818-4955-884B-BB4CE5043B09";
shapes = (
{
closed = 1;
nodes = (
(924,-587,o),
(1014,-502,o),
(1014,-366,cs),
(1014,-231,o),
(924,-143,o),
(785,-143,cs),
(643,-143,o),
(552,-231,o),
(552,-366,cs),
(552,-502,o),
(643,-587,o),
(785,-587,cs)
);
},
{
closed = 1;
nodes = (
(952,0,l),
(1429,0,l),
(1015,1465,l),
(453,1465,l),
(36,0,l),
(399,0,l),
(468,303,l),
(882,303,l)
);
},
{
closed = 1;
nodes = (
(524,536,l),
(620,962,l),
(665,1193,l),
(685,1193,l),
(730,962,l),
(827,536,l)
);
},
{
closed = 1;
nodes = (
(650,1834,o),
(618,1886,o),
(618,1972,c),
(369,1972,l),
(369,1726,o),
(479,1602,o),
(734,1602,cs),
(986,1602,o),
(1119,1724,o),
(1119,1972,c),
(870,1972,l),
(870,1886,o),
(845,1834,o),
(748,1834,cs)
);
}
);
width = 1585;
},
{
layerId = "4B50D27E-C53B-49C1-950D-105FFE0A0ACC";
shapes = (
{
closed = 1;
nodes = (
(892,-539,o),
(966,-468,o),
(966,-357,cs),
(966,-245,o),
(892,-173,o),
(777,-173,cs),
(661,-173,o),
(586,-245,o),
(586,-357,cs),
(586,-468,o),
(661,-539,o),
(777,-539,cs)
);
},
{
closed = 1;
nodes = (
(1027,0,l),
(1409,0,l),
(956,1465,l),
(519,1465,l),
(63,0,l),
(360,0,l),
(455,341,l),
(932,341,l)
);
},
{
closed = 1;
nodes = (
(507,542,l),
(641,1024,l),
(683,1227,l),
(703,1227,l),
(746,1024,l),
(880,542,l)
);
},
{
closed = 1;
nodes = (
(643,1796,o),
(595,1858,o),
(595,1954,c),
(388,1954,l),
(388,1730,o),
(496,1602,o),
(729,1602,cs),
(960,1602,o),
(1090,1729,o),
(1090,1954,c),
(883,1954,l),
(883,1858,o),
(840,1796,o),
(741,1796,cs)
);
}
);
width = 1567;
},
{
layerId = "BA9225F5-135B-4D21-ADB1-4407AF656753";
shapes = (
{
closed = 1;
nodes = (
(843,-468,o),
(895,-418,o),
(895,-343,cs),
(895,-266,o),
(843,-217,o),
(766,-217,cs),
(687,-217,o),
(636,-266,o),
(636,-343,cs),
(636,-418,o),
(687,-468,o),
(766,-468,cs)
);
},
{
closed = 1;
nodes = (
(1141,0,l),
(1380,0,l),
(868,1465,l),
(618,1465,l),
(105,0,l),
(302,0,l),
(436,399,l),
(1007,399,l)
);
},
{
closed = 1;
nodes = (
(483,550,l),
(674,1117,l),
(711,1277,l),
(731,1277,l),
(770,1117,l),
(961,550,l)
);
},
{
closed = 1;
nodes = (
(631,1739,o),
(560,1816,o),
(560,1928,c),
(416,1928,l),
(416,1737,o),
(521,1602,o),
(720,1602,cs),
(920,1602,o),
(1047,1737,o),
(1047,1928,c),
(903,1928,l),
(903,1816,o),
(831,1739,o),
(731,1739,cs)
);
}
);
width = 1539;
}
);
unicode = 7862;
},
{
color = 9;
glyphname = Acircumflexdotbelow;
layers = (
{
layerId = "A2DAE9BC-C777-495C-976C-8ACFC7C9BBD2";
shapes = (
{
closed = 1;
nodes = (
(827,-445,o),
(872,-402,o),
(872,-339,cs),
(872,-273,o),
(827,-232,o),
(763,-232,cs),
(696,-232,o),
(653,-273,o),
(653,-339,cs),
(653,-402,o),
(696,-445,o),
(763,-445,cs)
);
},
{
closed = 1;
nodes = (
(1179,0,l),
(1371,0,l),
(839,1465,l),
(652,1465,l),
(119,0,l),
(283,0,l),
(430,424,l),
(1033,424,l)
);
},
{
closed = 1;
nodes = (
(476,548,l),
(686,1148,l),
(721,1294,l),
(741,1294,l),
(779,1148,l),
(989,548,l)
);
},
{
closed = 1;
nodes = (
(540,1602,l),
(731,1822,l),
(922,1602,l),
(1039,1602,l),
(812,1920,l),
(655,1920,l),
(428,1602,l)
);
}
);
width = 1530;
},
{
layerId = "DCFFE7A7-A818-4955-884B-BB4CE5043B09";
shapes = (
{
closed = 1;
nodes = (
(924,-587,o),
(1014,-502,o),
(1014,-366,cs),
(1014,-231,o),
(924,-143,o),
(785,-143,cs),
(643,-143,o),
(552,-231,o),
(552,-366,cs),
(552,-502,o),
(643,-587,o),
(785,-587,cs)
);
},
{
closed = 1;
nodes = (
(952,0,l),
(1429,0,l),
(1015,1465,l),
(453,1465,l),
(36,0,l),
(399,0,l),
(468,303,l),
(882,303,l)
);
},
{
closed = 1;
nodes = (
(524,536,l),
(620,962,l),
(665,1193,l),
(685,1193,l),
(730,962,l),
(827,536,l)
);
},
{
closed = 1;
nodes = (
(619,1602,l),
(726,1799,l),
(833,1602,l),
(1165,1602,l),
(927,1972,l),
(529,1972,l),
(291,1602,l)
);
}
);
width = 1585;
},
{
layerId = "4B50D27E-C53B-49C1-950D-105FFE0A0ACC";
shapes = (
{
closed = 1;
nodes = (
(892,-539,o),
(966,-468,o),
(966,-357,cs),
(966,-245,o),
(892,-173,o),
(777,-173,cs),
(661,-173,o),
(586,-245,o),
(586,-357,cs),
(586,-468,o),
(661,-539,o),
(777,-539,cs)
);
},
{
closed = 1;
nodes = (
(1027,0,l),
(1409,0,l),
(956,1465,l),
(519,1465,l),
(63,0,l),
(360,0,l),
(455,341,l),
(932,341,l)
);
},
{
closed = 1;
nodes = (
(507,542,l),
(641,1024,l),
(683,1227,l),
(703,1227,l),
(746,1024,l),
(880,542,l)
);
},
{
closed = 1;
nodes = (
(593,1602,l),
(728,1807,l),
(863,1602,l),
(1123,1602,l),
(889,1954,l),
(571,1954,l),
(337,1602,l)
);
}
);
width = 1567;
},
{
layerId = "BA9225F5-135B-4D21-ADB1-4407AF656753";
shapes = (
{
closed = 1;
nodes = (
(843,-468,o),
(895,-418,o),
(895,-343,cs),
(895,-266,o),
(843,-217,o),
(766,-217,cs),
(687,-217,o),
(636,-266,o),
(636,-343,cs),
(636,-418,o),
(687,-468,o),
(766,-468,cs)
);
},
{
closed = 1;
nodes = (
(1141,0,l),
(1380,0,l),
(868,1465,l),
(618,1465,l),
(105,0,l),
(302,0,l),
(436,399,l),
(1007,399,l)
);
},
{
closed = 1;
nodes = (
(483,550,l),
(674,1117,l),
(711,1277,l),
(731,1277,l),
(770,1117,l),
(961,550,l)
);
},
{
closed = 1;
nodes = (
(553,1602,l),
(730,1818,l),
(907,1602,l),
(1060,1602,l),
(831,1928,l),
(634,1928,l),
(405,1602,l)
);
}
);
width = 1539;
}
);
unicode = 7852;
},
{
glyphname = Adieresis;
layers = (
{
layerId = "A2DAE9BC-C777-495C-976C-8ACFC7C9BBD2";
shapes = (
{
alignment = -1;
pos = (14,0);
ref = A;
},
{
alignment = -1;
pos = (235,0);
ref = dieresis.cap;
}
);
width = 1501;
},
{
background = {
shapes = (
{
closed = 1;
nodes = (
(104,-2,l),
(181,204,l),
(221,206,o),
(280,209,o),
(313,209,cs),
(346,209,o),
(416,209,o),
(455,208,c),
(481,137,o),
(502,67,o),
(522,-4,c),
(637,4,l),
(365,703,l),
(287,694,l),
(157,355,ls),
(111,236,o),
(63,120,o),
(11,2,c)
);
},
{
closed = 1;
nodes = (
(432,276,l),
(394,275,o),
(346,274,o),
(313,274,cs),
(291,274,o),
(242,274,o),
(208,275,c),
(271,447,ls),
(290,500,o),
(305,552,o),
(314,596,c),
(323,596,l),
(332,552,o),
(346,505,o),
(366,451,cs)
);
},
{
closed = 1;
nodes = (
(459,819,o),
(483,847,o),
(483,879,cs),
(483,914,o),
(460,937,o),
(427,937,cs),
(396,937,o),
(368,910,o),
(368,877,cs),
(368,845,o),
(390,819,o),
(424,819,cs)
);
},
{
closed = 1;
nodes = (
(261,819,o),
(286,847,o),
(286,879,cs),
(286,914,o),
(262,937,o),
(229,937,cs),
(197,937,o),
(170,910,o),
(170,877,cs),
(170,845,o),
(192,819,o),
(227,819,cs)
);
}
);
};
layerId = "DCFFE7A7-A818-4955-884B-BB4CE5043B09";
shapes = (
{
alignment = -1;
pos = (4,0);
ref = A;
},
{
alignment = -1;
pos = (68,0);
ref = dieresis.cap;
}
);
width = 1469;
},
{
layerId = "4B50D27E-C53B-49C1-950D-105FFE0A0ACC";
shapes = (
{
alignment = -1;
pos = (7,0);
ref = A;
},
{
alignment = -1;
pos = (124,0);
ref = dieresis.cap;
}
);
width = 1479;
},
{
layerId = "BA9225F5-135B-4D21-ADB1-4407AF656753";
shapes = (
{
alignment = -1;
pos = (12,0);
ref = A;
},
{
alignment = -1;
pos = (207,0);
ref = dieresis.cap;
}
);
width = 1495;
}
);
leftKerningGroup = _A_Right;
rightKerningGroup = _A_Left;
unicode = 196;
},
{
color = 9;
glyphname = Adotbelow;
layers = (
{
layerId = "A2DAE9BC-C777-495C-976C-8ACFC7C9BBD2";
shapes = (
{
closed = 1;
nodes = (
(827,-445,o),
(872,-402,o),
(872,-339,cs),
(872,-273,o),
(827,-232,o),
(763,-232,cs),
(696,-232,o),
(653,-273,o),
(653,-339,cs),
(653,-402,o),
(696,-445,o),
(763,-445,cs)
);
},
{
closed = 1;
nodes = (
(1165,0,l),
(1357,0,l),
(825,1465,l),
(638,1465,l),
(105,0,l),
(269,0,l),
(416,424,l),
(1019,424,l)
);
},
{
closed = 1;
nodes = (
(462,548,l),
(672,1148,l),
(707,1294,l),
(727,1294,l),
(765,1148,l),
(975,548,l)
);
}
);
width = 1530;
},
{
layerId = "DCFFE7A7-A818-4955-884B-BB4CE5043B09";
shapes = (
{
closed = 1;
nodes = (
(924,-587,o),
(1014,-502,o),
(1014,-366,cs),
(1014,-231,o),
(924,-143,o),
(785,-143,cs),
(643,-143,o),
(552,-231,o),
(552,-366,cs),
(552,-502,o),
(643,-587,o),
(785,-587,cs)
);
},
{
closed = 1;
nodes = (
(948,0,l),
(1425,0,l),
(1011,1465,l),
(449,1465,l),
(32,0,l),
(395,0,l),
(464,303,l),
(878,303,l)
);
},
{
closed = 1;
nodes = (
(520,536,l),
(616,962,l),
(661,1193,l),
(681,1193,l),
(726,962,l),
(823,536,l)
);
}
);
width = 1585;
},
{
layerId = "4B50D27E-C53B-49C1-950D-105FFE0A0ACC";
shapes = (
{
closed = 1;
nodes = (
(892,-539,o),
(966,-468,o),
(966,-357,cs),
(966,-245,o),
(892,-173,o),
(777,-173,cs),
(661,-173,o),
(586,-245,o),
(586,-357,cs),
(586,-468,o),
(661,-539,o),
(777,-539,cs)
);
},
{
closed = 1;
nodes = (
(1020,0,l),
(1402,0,l),
(949,1465,l),
(512,1465,l),
(56,0,l),
(353,0,l),
(448,341,l),
(925,341,l)
);
},
{
closed = 1;
nodes = (
(500,542,l),
(634,1024,l),
(676,1227,l),
(696,1227,l),
(739,1024,l),
(873,542,l)
);
}
);
width = 1567;
},
{
layerId = "BA9225F5-135B-4D21-ADB1-4407AF656753";
shapes = (
{
closed = 1;
nodes = (
(843,-468,o),
(895,-418,o),
(895,-343,cs),
(895,-266,o),
(843,-217,o),
(766,-217,cs),
(687,-217,o),
(636,-266,o),
(636,-343,cs),
(636,-418,o),
(687,-468,o),
(766,-468,cs)
);
},
{
closed = 1;
nodes = (
(1129,0,l),
(1368,0,l),
(856,1465,l),
(606,1465,l),
(93,0,l),
(290,0,l),
(424,399,l),
(995,399,l)
);
},
{
closed = 1;
nodes = (
(471,550,l),
(662,1117,l),
(699,1277,l),
(719,1277,l),
(758,1117,l),
(949,550,l)
);
}
);
width = 1539;
}
);
unicode = 7840;
},
{
glyphname = Agrave;
layers = (
{
layerId = "A2DAE9BC-C777-495C-976C-8ACFC7C9BBD2";
shapes = (
{
alignment = -1;
pos = (14,0);
ref = A;
},
{
alignment = -1;
pos = (217,0);
ref = grave.cap;
}
);
width = 1501;
},
{
background = {
shapes = (
{
closed = 1;
nodes = (
(253,-4,l),
(411,418,l),
(493,422,o),
(614,428,o),
(681,428,cs),
(749,428,o),
(892,428,o),
(972,426,c),
(1025,281,o),
(1068,137,o),
(1109,-8,c),
(1345,8,l),
(788,1440,l),
(628,1421,l),
(362,727,ls),
(268,483,o),
(169,246,o),
(63,4,c)
);
},
{
closed = 1;
nodes = (
(925,565,l),
(847,563,o),
(749,561,o),
(681,561,cs),
(636,561,o),
(536,561,o),
(466,563,c),
(595,915,l),
(634,1024,o),
(665,1130,o),
(683,1221,c),
(702,1221,l),
(720,1130,o),
(749,1034,o),
(790,924,cs)
);
},
{
closed = 1;
nodes = (
(849,1626,l),
(749,1718,o),
(601,1815,o),
(462,1868,c),
(333,1735,l),
(489,1679,o),
(636,1616,o),
(765,1546,c)
);
}
);
};
layerId = "DCFFE7A7-A818-4955-884B-BB4CE5043B09";
shapes = (
{
alignment = -1;
pos = (4,0);
ref = A;
},
{
alignment = -1;
pos = (176,0);
ref = grave.cap;
}
);
width = 1469;
},
{
layerId = "4B50D27E-C53B-49C1-950D-105FFE0A0ACC";
shapes = (
{
alignment = -1;
pos = (7,0);
ref = A;
},
{
alignment = -1;
pos = (190,0);
ref = grave.cap;
}
);
width = 1479;
},
{
layerId = "BA9225F5-135B-4D21-ADB1-4407AF656753";
shapes = (
{
alignment = -1;
pos = (12,0);
ref = A;
},
{
alignment = -1;
pos = (210,0);
ref = grave.cap;
}
);
width = 1495;
}
);
leftKerningGroup = _A_Right;
rightKerningGroup = _A_Left;
unicode = 192;
},
{
color = 9;
glyphname = Ahookabove;
layers = (
{
layerId = "A2DAE9BC-C777-495C-976C-8ACFC7C9BBD2";
shapes = (
{
closed = 1;
nodes = (
(834,1552,l),
(836,1725,l),
(771,1668,l),
(941,1670,o),
(1049,1747,o),
(1049,1853,cs),
(1049,1951,o),
(952,2031,o),
(797,2031,cs),
(723,2031,o),
(614,2012,o),
(538,1931,c),
(589,1868,l),
(628,1915,o),
(695,1938,o),
(767,1938,cs),
(855,1938,o),
(908,1897,o),
(908,1837,cs),
(908,1772,o),
(832,1728,o),
(703,1727,c),
(707,1552,l)
);
},
{
closed = 1;
nodes = (
(1165,0,l),
(1357,0,l),
(825,1465,l),
(638,1465,l),
(105,0,l),
(269,0,l),
(416,424,l),
(1019,424,l)
);
},
{
closed = 1;
nodes = (
(462,548,l),
(672,1148,l),
(707,1294,l),
(727,1294,l),
(765,1148,l),
(975,548,l)
);
}
);
width = 1530;
},
{
layerId = "DCFFE7A7-A818-4955-884B-BB4CE5043B09";
shapes = (
{
closed = 1;
nodes = (
(934,1559,l),
(949,1780,l),
(796,1647,l),
(1017,1662,o),
(1131,1778,o),
(1131,1900,cs),
(1131,2018,o),
(1014,2132,o),
(794,2132,cs),
(688,2132,o),
(571,2103,o),
(478,2045,c),
(569,1884,l),
(616,1908,o),
(667,1917,o),
(706,1917,cs),
(766,1917,o),
(797,1898,o),
(797,1855,cs),
(797,1809,o),
(725,1788,o),
(637,1782,c),
(652,1559,l)
);
},
{
closed = 1;
nodes = (
(948,0,l),
(1425,0,l),
(1011,1465,l),
(449,1465,l),
(32,0,l),
(395,0,l),
(464,303,l),
(878,303,l)
);
},
{
closed = 1;
nodes = (
(520,536,l),
(616,962,l),
(661,1193,l),
(681,1193,l),
(726,962,l),
(823,536,l)
);
}
);
width = 1585;
},
{
layerId = "4B50D27E-C53B-49C1-950D-105FFE0A0ACC";
shapes = (
{
closed = 1;
nodes = (
(900,1557,l),
(911,1762,l),
(788,1654,l),
(991,1664,o),
(1103,1768,o),
(1103,1884,cs),
(1103,1996,o),
(993,2098,o),
(795,2098,cs),
(700,2098,o),
(585,2073,o),
(498,2007,c),
(575,1878,l),
(620,1910,o),
(676,1924,o),
(726,1924,cs),
(796,1924,o),
(834,1898,o),
(834,1849,cs),
(834,1797,o),
(761,1768,o),
(659,1764,c),
(670,1557,l)
);
},
{
closed = 1;
nodes = (
(1020,0,l),
(1402,0,l),
(949,1465,l),
(512,1465,l),
(56,0,l),
(353,0,l),
(448,341,l),
(925,341,l)
);
},
{
closed = 1;
nodes = (
(500,542,l),
(634,1024,l),
(676,1227,l),
(696,1227,l),
(739,1024,l),
(873,542,l)
);
}
);
width = 1567;
},
{
layerId = "BA9225F5-135B-4D21-ADB1-4407AF656753";
shapes = (
{
closed = 1;
nodes = (
(850,1553,l),
(855,1734,l),
(775,1664,l),
(953,1668,o),
(1062,1752,o),
(1062,1861,cs),
(1062,1962,o),
(962,2048,o),
(796,2048,cs),
(717,2048,o),
(607,2027,o),
(528,1950,c),
(585,1870,l),
(626,1914,o),
(690,1934,o),
(757,1934,cs),
(840,1934,o),
(889,1897,o),
(889,1840,cs),
(889,1778,o),
(814,1738,o),
(692,1736,c),
(698,1553,l)
);
},
{
closed = 1;
nodes = (
(1129,0,l),
(1368,0,l),
(856,1465,l),
(606,1465,l),
(93,0,l),
(290,0,l),
(424,399,l),
(995,399,l)
);
},
{
closed = 1;
nodes = (
(471,550,l),
(662,1117,l),
(699,1277,l),
(719,1277,l),
(758,1117,l),
(949,550,l)
);
}
);
width = 1539;
}
);
unicode = 7842;
},
{
glyphname = "Aie-cy";
leftMetricsKey = AE;
widthMetricsKey = AE;
layers = (
{
layerId = "A2DAE9BC-C777-495C-976C-8ACFC7C9BBD2";
shapes = (
{
closed = 1;
nodes = (
(1009,0,l),
(1753,0,l),
(1778,129,l),
(1140,129,l),
(1085,699,l),
(1625,699,l),
(1654,826,l),
(1073,826,l),
(1023,1336,l),
(1681,1336,l),
(1708,1465,l),
(828,1465,l),
(-1,0,l),
(158,0,l),
(390,426,l),
(968,426,l)
);
},
{
closed = 1;
nodes = (
(459,554,l),
(793,1161,l),
(856,1301,l),
(872,1301,l),
(896,1161,l),
(957,554,l)
);
}
);
width = 1917;
},
{
layerId = "DCFFE7A7-A818-4955-884B-BB4CE5043B09";
shapes = (
{
closed = 1;
nodes = (
(967,0,l),
(1849,0,l),
(1893,257,l),
(1397,257,l),
(1358,636,l),
(1764,636,l),
(1802,869,l),
(1336,869,l),
(1301,1208,l),
(1802,1208,l),
(1847,1465,l),
(661,1465,l),
(23,0,l),
(394,0,l),
(508,303,l),
(936,303,l)
);
},
{
closed = 1;
nodes = (
(598,536,l),
(757,962,l),
(837,1193,l),
(857,1193,l),
(870,962,l),
(913,536,l)
);
}
);
width = 2011;
},
{
layerId = "4B50D27E-C53B-49C1-950D-105FFE0A0ACC";
shapes = (
{
closed = 1;
nodes = (
(981,0,l),
(1817,0,l),
(1855,215,l),
(1312,215,l),
(1268,657,l),
(1718,657,l),
(1753,855,l),
(1249,855,l),
(1209,1250,l),
(1762,1250,l),
(1801,1465,l),
(716,1465,l),
(15,0,l),
(316,0,l),
(469,344,l),
(946,344,l)
);
},
{
closed = 1;
nodes = (
(552,542,l),
(769,1028,l),
(843,1229,l),
(862,1229,l),
(878,1028,l),
(927,542,l)
);
}
);
width = 1979;
},
{
layerId = "BA9225F5-135B-4D21-ADB1-4407AF656753";
shapes = (
{
closed = 1;
nodes = (
(1001,0,l),
(1769,0,l),
(1798,151,l),
(1184,151,l),
(1132,688,l),
(1649,688,l),
(1679,833,l),
(1118,833,l),
(1070,1314,l),
(1702,1314,l),
(1732,1465,l),
(799,1465,l),
(3,0,l),
(198,0,l),
(410,405,l),
(962,405,l)
);
},
{
closed = 1;
nodes = (
(483,551,l),
(787,1127,l),
(852,1282,l),
(869,1282,l),
(891,1127,l),
(949,551,l)
);
}
);
width = 1932;
}
);
rightKerningGroup = "Aie-cy";
unicode = 1236;
},
{
glyphname = Alphatonos;
rightMetricsKey = A;
layers = (
{
layerId = "A2DAE9BC-C777-495C-976C-8ACFC7C9BBD2";
shapes = (
{
closed = 1;
nodes = (
(329,1465,l),
(157,1465,l),
(39,863,l),
(170,863,l)
);
},
{
closed = 1;
nodes = (
(1217,0,l),
(1409,0,l),
(877,1465,l),
(690,1465,l),
(157,0,l),
(321,0,l),
(468,424,l),
(1071,424,l)
);
},
{
closed = 1;
nodes = (
(514,548,l),
(724,1148,l),
(759,1294,l),
(779,1294,l),
(817,1148,l),
(1027,548,l)
);
}
);
width = 1514;
},
{
layerId = "DCFFE7A7-A818-4955-884B-BB4CE5043B09";
shapes = (
{
closed = 1;
nodes = (
(542,1465,l),
(102,1465,l),
(22,876,l),
(358,876,l)
);
},
{
closed = 1;
nodes = (
(1196,0,l),
(1673,0,l),
(1259,1465,l),
(697,1465,l),
(280,0,l),
(643,0,l),
(712,303,l),
(1126,303,l)
);
},
{
closed = 1;
nodes = (
(768,536,l),
(864,962,l),
(909,1193,l),
(929,1193,l),
(974,962,l),
(1071,536,l)
);
}
);
width = 1705;
},
{
layerId = "4B50D27E-C53B-49C1-950D-105FFE0A0ACC";
shapes = (
{
closed = 1;
nodes = (
(471,1465,l),
(120,1465,l),
(28,872,l),
(295,872,l)
);
},
{
closed = 1;
nodes = (
(1202,0,l),
(1584,0,l),
(1131,1465,l),
(694,1465,l),
(238,0,l),
(535,0,l),
(630,341,l),
(1107,341,l)
);
},
{
closed = 1;
nodes = (
(682,542,l),
(816,1024,l),
(858,1227,l),
(878,1227,l),
(921,1024,l),
(1055,542,l)
);
}
);
width = 1641;
},
{
layerId = "BA9225F5-135B-4D21-ADB1-4407AF656753";
shapes = (
{
closed = 1;
nodes = (
(364,1465,l),
(148,1465,l),
(36,865,l),
(201,865,l)
);
},
{
closed = 1;
nodes = (
(1213,0,l),
(1452,0,l),
(940,1465,l),
(690,1465,l),
(177,0,l),
(374,0,l),
(508,399,l),
(1079,399,l)
);
},
{
closed = 1;
nodes = (
(555,550,l),
(746,1117,l),
(783,1277,l),
(803,1277,l),
(842,1117,l),
(1033,550,l)
);
}
);
width = 1545;
}
);
rightKerningGroup = Alpha;
unicode = 902;
},
{
glyphname = Aogonek;
layers = (
{
layerId = "A2DAE9BC-C777-495C-976C-8ACFC7C9BBD2";
shapes = (
{
closed = 1;
nodes = (
(970,-353,o),
(1061,-432,o),
(1173,-432,cs),
(1244,-432,o),
(1313,-399,o),
(1370,-353,c),
(1370,-283,l),
(1337,-303,o),
(1259,-327,o),
(1208,-327,cs),
(1142,-327,o),
(1100,-286,o),
(1100,-217,cs),
(1100,-137,o),
(1153,-66,o),
(1271,0,c),
(1357,0,l),
(825,1465,l),
(638,1465,l),
(105,0,l),
(269,0,l),
(416,419,l),
(1019,419,l),
(1159,17,l),
(1073,-43,o),
(970,-143,o),
(970,-253,cs)
);
},
{
closed = 1;
nodes = (
(462,553,l),
(672,1148,l),
(707,1294,l),
(727,1294,l),
(765,1148,l),
(975,553,l)
);
}
);
width = 1462;
},
{
background = {
shapes = (
{
closed = 1;
nodes = (
(232,-4,l),
(396,436,l),
(482,440,o),
(608,448,o),
(678,448,cs),
(748,448,o),
(898,448,o),
(982,446,c),
(1038,294,o),
(1082,144,o),
(1126,-6,c),
(1018,-90,o),
(958,-188,o),
(958,-276,cs),
(958,-380,o),
(1044,-446,o),
(1152,-446,cs),
(1224,-446,o),
(1288,-416,o),
(1344,-366,c),
(1302,-286,l),
(1266,-306,o),
(1228,-314,o),
(1202,-314,cs),
(1148,-314,o),
(1108,-278,o),
(1108,-222,cs),
(1108,-146,o),
(1182,-60,o),
(1276,2,c),
(1372,8,l),
(790,1504,l),
(622,1486,l),
(344,760,ls),
(246,506,o),
(144,256,o),
(32,4,c)
);
},
{
closed = 1;
nodes = (
(934,590,l),
(852,588,o),
(748,586,o),
(678,586,cs),
(632,586,o),
(526,586,o),
(454,588,c),
(588,956,ls),
(630,1070,o),
(662,1182,o),
(680,1276,c),
(700,1276,l),
(720,1182,o),
(748,1080,o),
(792,966,c)
);
}
);
};
layerId = "DCFFE7A7-A818-4955-884B-BB4CE5043B09";
shapes = (
{
closed = 1;
nodes = (
(803,-343,o),
(893,-435,o),
(1037,-435,cs),
(1145,-435,o),
(1257,-382,o),
(1300,-344,c),
(1300,-209,l),
(1273,-223,o),
(1232,-228,o),
(1203,-228,cs),
(1115,-228,o),
(1079,-168,o),
(1079,-122,cs),
(1079,-70,o),
(1124,-31,o),
(1170,0,c),
(1425,0,l),
(1011,1465,l),
(449,1465,l),
(32,0,l),
(395,0,l),
(464,303,l),
(878,303,l),
(947,7,l),
(847,-63,o),
(803,-146,o),
(803,-227,cs)
);
},
{
closed = 1;
nodes = (
(520,536,l),
(616,962,l),
(661,1193,l),
(681,1193,l),
(726,962,l),
(823,536,l)
);
}
);
width = 1457;
},
{
layerId = "4B50D27E-C53B-49C1-950D-105FFE0A0ACC";
shapes = (
{
closed = 1;
nodes = (
(859,-346,o),
(949,-434,o),
(1082,-434,cs),
(1178,-434,o),
(1275,-388,o),
(1323,-347,c),
(1323,-233,l),
(1294,-249,o),
(1241,-261,o),
(1205,-261,cs),
(1124,-261,o),
(1086,-207,o),
(1086,-154,cs),
(1086,-92,o),
(1134,-43,o),
(1204,0,c),
(1402,0,l),
(949,1465,l),
(512,1465,l),
(56,0,l),
(353,0,l),
(448,341,l),
(925,341,l),
(1017,10,l),
(922,-56,o),
(859,-145,o),
(859,-235,cs)
);
},
{
closed = 1;
nodes = (
(500,542,l),
(634,1024,l),
(676,1227,l),
(696,1227,l),
(739,1024,l),
(873,542,l)
);
}
);
width = 1459;
},
{
layerId = "BA9225F5-135B-4D21-ADB1-4407AF656753";
shapes = (
{
closed = 1;
nodes = (
(942,-351,o),
(1033,-432,o),
(1150,-432,cs),
(1227,-432,o),
(1303,-396,o),
(1358,-351,c),
(1358,-270,l),
(1326,-289,o),
(1254,-310,o),
(1207,-310,cs),
(1137,-310,o),
(1096,-266,o),
(1096,-201,cs),
(1096,-126,o),
(1148,-60,o),
(1254,0,c),
(1368,0,l),
(856,1465,l),
(606,1465,l),
(93,0,l),
(290,0,l),
(424,399,l),
(995,399,l),
(1123,15,l),
(1035,-46,o),
(942,-143,o),
(942,-248,cs)
);
},
{
closed = 1;
nodes = (
(471,550,l),
(662,1117,l),
(699,1277,l),
(719,1277,l),
(758,1117,l),
(949,550,l)
);
}
);
width = 1461;
}
);
leftKerningGroup = _A_Right;
rightKerningGroup = _A_Left;
unicode = 260;
},
{
glyphname = Aring;
layers = (
{
layerId = "A2DAE9BC-C777-495C-976C-8ACFC7C9BBD2";
shapes = (
{
alignment = -1;
ref = A;
},
{
alignment = -1;
pos = (281,0);
ref = ring.cap;
}
);
width = 1501;
},
{
background = {
shapes = (
{
closed = 1;
nodes = (
(384,713,o),
(432,757,o),
(432,814,cs),
(432,864,o),
(395,902,o),
(335,902,cs),
(268,902,o),
(223,856,o),
(223,801,cs),
(223,749,o),
(264,713,o),
(320,713,cs)
);
},
{
closed = 1;
nodes = (
(303,753,o),
(285,781,o),
(285,810,cs),
(285,839,o),
(303,861,o),
(326,861,cs),
(353,861,o),
(373,835,o),
(373,805,cs),
(373,774,o),
(353,753,o),
(329,753,cs)
);
}
);
};
layerId = "DCFFE7A7-A818-4955-884B-BB4CE5043B09";
shapes = (
{
alignment = -1;
ref = A;
},
{
alignment = -1;
pos = (212,0);
ref = ring.cap;
}
);
width = 1469;
},
{
layerId = "4B50D27E-C53B-49C1-950D-105FFE0A0ACC";
shapes = (
{
alignment = -1;
ref = A;
},
{
alignment = -1;
pos = (235,0);
ref = ring.cap;
}
);
width = 1479;
},
{
layerId = "BA9225F5-135B-4D21-ADB1-4407AF656753";
shapes = (
{
alignment = -1;
ref = A;
},
{
alignment = -1;
pos = (269,0);
ref = ring.cap;
}
);
width = 1495;
}
);
leftKerningGroup = _A_Right;
rightKerningGroup = _A_Left;
unicode = 197;
},
{
glyphname = B;
layers = (
{
layerId = "A2DAE9BC-C777-495C-976C-8ACFC7C9BBD2";
shapes = (
{
closed = 1;
nodes = (
(951,857,o),
(1062,989,o),
(1062,1127,cs),
(1062,1287,o),
(912,1465,o),
(600,1465,cs),
(229,1465,l),
(229,0,l),
(585,0,ls),
(959,0,o),
(1130,261,o),
(1130,456,cs),
(1130,624,o),
(1001,740,o),
(837,788,c)
);
},
{
closed = 1;
nodes = (
(378,700,l),
(637,700,ls),
(791,700,o),
(970,616,o),
(970,432,cs),
(970,297,o),
(870,127,o),
(590,127,cs),
(378,127,l)
);
},
{
closed = 1;
nodes = (
(378,824,l),
(378,1338,l),
(567,1338,ls),
(792,1338,o),
(905,1238,o),
(905,1101,cs),
(905,997,o),
(843,898,o),
(738,824,c)
);
}
);
width = 1254;
},
{
background = {
shapes = (
{
closed = 1;
nodes = (
(982,874,o),
(1111,1003,o),
(1111,1145,cs),
(1111,1304,o),
(952,1465,o),
(630,1465,cs),
(218,1465,l),
(218,0,l),
(594,0,ls),
(978,0,o),
(1178,268,o),
(1178,466,cs),
(1178,636,o),
(1030,751,o),
(847,799,c)
);
},
{
closed = 1;
nodes = (
(414,698,l),
(614,698,ls),
(830,698,o),
(972,621,o),
(972,435,cs),
(972,296,o),
(895,133,o),
(616,133,cs),
(414,133,l)
);
},
{
closed = 1;
nodes = (
(414,832,l),
(414,1331,l),
(596,1331,ls),
(802,1331,o),
(915,1244,o),
(915,1094,cs),
(915,981,o),
(853,898,o),
(758,832,c)
);
}
);
};
layerId = "DCFFE7A7-A818-4955-884B-BB4CE5043B09";
shapes = (
{
closed = 1;
nodes = (
(1264,913,o),
(1381,993,o),
(1381,1145,cs),
(1381,1340,o),
(1176,1465,o),
(793,1465,cs),
(160,1465,l),
(160,0,l),
(729,0,ls),
(1176,0,o),
(1443,207,o),
(1443,459,cs),
(1443,671,o),
(1263,781,o),
(1116,818,c)
);
},
{
closed = 1;
nodes = (
(611,636,l),
(744,636,ls),
(871,636,o),
(979,587,o),
(979,455,cs),
(979,345,o),
(887,257,o),
(761,257,cs),
(611,257,l)
);
},
{
closed = 1;
nodes = (
(611,869,l),
(611,1208,l),
(760,1208,ls),
(862,1208,o),
(941,1142,o),
(941,1041,cs),
(941,959,o),
(904,893,o),
(868,869,c)
);
}
);
width = 1539;
},
{
layerId = "4B50D27E-C53B-49C1-950D-105FFE0A0ACC";
shapes = (
{
closed = 1;
nodes = (
(1160,894,o),
(1275,991,o),
(1275,1139,cs),
(1275,1322,o),
(1088,1465,o),
(729,1465,cs),
(183,1465,l),
(183,0,l),
(681,0,ls),
(1104,0,o),
(1339,225,o),
(1339,458,cs),
(1339,655,o),
(1175,767,o),
(1023,808,c)
);
},
{
closed = 1;
nodes = (
(533,656,l),
(708,656,ls),
(844,656,o),
(976,597,o),
(976,447,cs),
(976,329,o),
(881,217,o),
(704,217,cs),
(533,217,l)
);
},
{
closed = 1;
nodes = (
(533,855,l),
(533,1248,l),
(696,1248,ls),
(838,1248,o),
(929,1174,o),
(929,1061,cs),
(929,971,o),
(884,896,o),
(824,855,c)
);
}
);
width = 1444;
},
{
layerId = "BA9225F5-135B-4D21-ADB1-4407AF656753";
shapes = (
{
closed = 1;
nodes = (
(1003,866,o),
(1115,989,o),
(1115,1130,cs),
(1115,1296,o),
(956,1465,o),
(632,1465,cs),
(217,1465,l),
(217,0,l),
(609,0,ls),
(995,0,o),
(1182,252,o),
(1182,456,cs),
(1182,632,o),
(1044,747,o),
(883,793,c)
);
},
{
closed = 1;
nodes = (
(417,685,l),
(655,685,ls),
(804,685,o),
(971,611,o),
(971,436,cs),
(971,305,o),
(873,157,o),
(618,157,cs),
(417,157,l)
);
},
{
closed = 1;
nodes = (
(417,835,l),
(417,1308,l),
(599,1308,ls),
(803,1308,o),
(911,1222,o),
(911,1091,cs),
(911,990,o),
(853,901,o),
(759,835,c)
);
}
);
width = 1301;
}
);
unicode = 66;
},
{
glyphname = "Be-cy";
layers = (
{
layerId = "A2DAE9BC-C777-495C-976C-8ACFC7C9BBD2";
shapes = (
{
closed = 1;
nodes = (
(659,0,ls),
(879,0,o),
(1007,52,o),
(1093,139,cs),
(1171,219,o),
(1213,323,o),
(1213,448,cs),
(1213,690,o),
(1026,831,o),
(705,831,cs),
(347,831,l),
(347,719,l),
(676,719,ls),
(940,719,o),
(1061,606,o),
(1061,429,cs),
(1061,339,o),
(1033,264,o),
(982,212,c),
(927,152,o),
(841,118,o),
(677,118,cs),
(393,118,l),
(393,1344,l),
(1098,1344,l),
(1098,1465,l),
(245,1465,l),
(245,0,l)
);
}
);
width = 1320;
},
{
layerId = "DCFFE7A7-A818-4955-884B-BB4CE5043B09";
shapes = (
{
closed = 1;
nodes = (
(733,0,ls),
(978,0,o),
(1127,54,o),
(1221,149,c),
(1315,236,o),
(1357,359,o),
(1357,501,cs),
(1357,749,o),
(1166,884,o),
(843,884,cs),
(520,884,l),
(520,596,l),
(737,596,ls),
(878,596,o),
(935,556,o),
(935,461,cs),
(935,425,o),
(929,396,o),
(914,370,c),
(888,333,o),
(831,320,o),
(748,320,cs),
(567,320,l),
(567,1130,l),
(1208,1130,l),
(1208,1465,l),
(174,1465,l),
(174,0,l)
);
}
);
width = 1436;
},
{
layerId = "4B50D27E-C53B-49C1-950D-105FFE0A0ACC";
shapes = (
{
closed = 1;
nodes = (
(709,0,ls),
(946,0,o),
(1088,53,o),
(1179,146,c),
(1268,230,o),
(1310,347,o),
(1310,484,cs),
(1310,730,o),
(1120,867,o),
(798,867,cs),
(464,867,l),
(464,636,l),
(717,636,ls),
(898,636,o),
(976,572,o),
(976,451,cs),
(976,397,o),
(963,353,o),
(936,318,c),
(900,274,o),
(834,254,o),
(725,254,cs),
(510,254,l),
(510,1200,l),
(1172,1200,l),
(1172,1465,l),
(197,1465,l),
(197,0,l)
);
}
);
width = 1398;
},
{
layerId = "BA9225F5-135B-4D21-ADB1-4407AF656753";
shapes = (
{
closed = 1;
nodes = (
(671,0,ls),
(896,0,o),
(1027,52,o),
(1114,141,cs),
(1195,222,o),
(1237,329,o),
(1237,457,cs),
(1237,700,o),
(1049,840,o),
(728,840,cs),
(376,840,l),
(376,698,l),
(686,698,ls),
(929,698,o),
(1040,597,o),
(1040,434,cs),
(1040,353,o),
(1015,286,o),
(970,238,cs),
(920,182,o),
(839,152,o),
(689,152,cs),
(422,152,l),
(422,1308,l),
(1116,1308,l),
(1116,1465,l),
(233,1465,l),
(233,0,l)
);
}
);
width = 1339;
}
);
leftKerningGroup = "I-cy";
unicode = 1041;
},
{
glyphname = C;
layers = (
{
layerId = "A2DAE9BC-C777-495C-976C-8ACFC7C9BBD2";
shapes = (
{
closed = 1;
nodes = (
(1311,222,l),
(1159,133,o),
(993,109,o),
(908,109,cs),
(508,109,o),
(320,431,o),
(320,726,cs),
(320,1072,o),
(568,1358,o),
(903,1358,cs),
(989,1358,o),
(1141,1330,o),
(1266,1269,c),
(1286,1278,l),
(1315,1410,l),
(1178,1470,o),
(1022,1485,o),
(931,1485,cs),
(515,1485,o),
(159,1164,o),
(159,711,cs),
(159,254,o),
(448,-20,o),
(851,-20,cs),
(946,-20,o),
(1158,1,o),
(1311,124,c)
);
}
);
width = 1444;
},
{
background = {
shapes = (
{
closed = 1;
nodes = (
(655,125,l),
(590,83,o),
(508,65,o),
(458,65,cs),
(291,65,o),
(193,213,o),
(193,378,cs),
(193,559,o),
(314,691,o),
(456,691,cs),
(507,691,o),
(572,679,o),
(646,639,c),
(656,645,l),
(674,727,l),
(599,752,o),
(530,761,o),
(479,761,cs),
(274,761,o),
(85,622,o),
(85,354,cs),
(85,131,o),
(219,-14,o),
(424,-14,cs),
(483,-14,o),
(593,-2,o),
(684,77,c)
);
}
);
};
layerId = "DCFFE7A7-A818-4955-884B-BB4CE5043B09";
shapes = (
{
closed = 1;
nodes = (
(1321,319,l),
(1259,297,o),
(1177,259,o),
(1040,259,cs),
(738,259,o),
(554,437,o),
(554,756,cs),
(554,1055,o),
(713,1228,o),
(963,1228,cs),
(1045,1228,o),
(1150,1209,o),
(1257,1157,c),
(1277,1164,l),
(1340,1438,l),
(1213,1472,o),
(1044,1485,o),
(952,1485,cs),
(521,1485,o),
(90,1205,o),
(90,686,cs),
(90,256,o),
(396,-20,o),
(810,-20,cs),
(1007,-20,o),
(1209,42,o),
(1321,131,c)
);
}
);
width = 1436;
},
{
layerId = "4B50D27E-C53B-49C1-950D-105FFE0A0ACC";
shapes = (
{
closed = 1;
nodes = (
(1317,287,l),
(1225,242,o),
(1115,212,o),
(996,212,cs),
(661,212,o),
(476,435,o),
(476,746,cs),
(476,1061,o),
(665,1268,o),
(943,1268,cs),
(1026,1268,o),
(1147,1249,o),
(1260,1194,c),
(1280,1202,l),
(1332,1428,l),
(1201,1471,o),
(1036,1485,o),
(945,1485,cs),
(519,1485,o),
(113,1191,o),
(113,694,cs),
(113,255,o),
(413,-20,o),
(824,-20,cs),
(987,-20,o),
(1192,28,o),
(1317,129,c)
);
}
);
width = 1438;
},
{
layerId = "BA9225F5-135B-4D21-ADB1-4407AF656753";
shapes = (
{
closed = 1;
nodes = (
(1312,238,l),
(1175,160,o),
(1023,142,o),
(930,142,cs),
(546,142,o),
(359,432,o),
(359,731,cs),
(359,1069,o),
(592,1328,o),
(913,1328,cs),
(998,1328,o),
(1142,1310,o),
(1264,1250,c),
(1284,1259,l),
(1319,1414,l),
(1184,1470,o),
(1025,1485,o),
(934,1485,cs),
(516,1485,o),
(147,1171,o),
(147,707,cs),
(147,254,o),
(439,-20,o),
(844,-20,cs),
(956,-20,o),
(1166,8,o),
(1312,125,c)
);
}
);
width = 1442;
}
);
leftKerningGroup = _C_Right;
rightKerningGroup = _C_Left;
unicode = 67;
},
{
glyphname = Ccedilla;
layers = (
{
layerId = "A2DAE9BC-C777-495C-976C-8ACFC7C9BBD2";
shapes = (
{
closed = 1;
nodes = (
(1311,222,l),
(1159,133,o),
(993,119,o),
(908,119,cs),
(508,119,o),
(320,431,o),
(320,726,cs),
(320,1072,o),
(568,1348,o),
(903,1348,cs),
(989,1348,o),
(1141,1330,o),
(1266,1269,c),
(1286,1278,l),
(1315,1410,l),
(1178,1470,o),
(1022,1485,o),
(931,1485,cs),
(515,1485,o),
(159,1164,o),
(159,712,cs),
(159,261,o),
(437,-9,o),
(831,-20,c),
(844,-44,o),
(854,-71,o),
(854,-113,cs),
(854,-246,o),
(745,-288,o),
(632,-288,c),
(632,-403,l),
(812,-403,o),
(992,-299,o),
(992,-107,cs),
(992,-65,o),
(981,-34,o),
(968,-11,c),
(1072,3,o),
(1204,39,o),
(1311,124,c)
);
}
);
width = 1444;
},
{
background = {
shapes = (
{
closed = 1;
nodes = (
(1325,258,l),
(1164,163,o),
(1013,140,o),
(910,140,cs),
(551,140,o),
(352,432,o),
(352,741,cs),
(352,1064,o),
(582,1330,o),
(902,1330,cs),
(990,1330,o),
(1121,1310,o),
(1267,1243,c),
(1287,1253,l),
(1321,1427,l),
(1174,1471,o),
(1038,1485,o),
(947,1485,cs),
(527,1485,o),
(148,1188,o),
(148,699,cs),
(148,287,o),
(417,7,o),
(774,-20,c),
(698,-158,l),
(698,-202,l),
(766,-202,o),
(854,-221,o),
(854,-292,cs),
(854,-350,o),
(796,-384,o),
(678,-384,c),
(678,-502,l),
(848,-502,o),
(1006,-418,o),
(1006,-279,cs),
(1006,-179,o),
(914,-123,o),
(839,-114,c),
(894,-20,l),
(1021,-11,o),
(1198,29,o),
(1325,141,c)
);
}
);
};
layerId = "DCFFE7A7-A818-4955-884B-BB4CE5043B09";
shapes = (
{
closed = 1;
nodes = (
(1321,319,l),
(1259,297,o),
(1177,259,o),
(1040,259,cs),
(738,259,o),
(554,437,o),
(554,756,cs),
(554,1055,o),
(713,1228,o),
(963,1228,cs),
(1045,1228,o),
(1150,1209,o),
(1257,1157,c),
(1277,1164,l),
(1340,1438,l),
(1213,1472,o),
(1044,1485,o),
(952,1485,cs),
(521,1485,o),
(90,1204,o),
(90,689,cs),
(90,255,o),
(397,-21,o),
(811,-20,c),
(830,-54,o),
(837,-80,o),
(837,-114,cs),
(837,-187,o),
(804,-258,o),
(610,-258,c),
(610,-467,l),
(987,-467,o),
(1078,-310,o),
(1078,-171,cs),
(1078,-96,o),
(1052,-44,o),
(1020,2,c),
(1141,28,o),
(1250,74,o),
(1321,131,c)
);
}
);
width = 1436;
},
{
layerId = "4B50D27E-C53B-49C1-950D-105FFE0A0ACC";
shapes = (
{
closed = 1;
nodes = (
(1317,287,l),
(1225,242,o),
(1115,212,o),
(996,212,cs),
(661,212,o),
(476,435,o),
(476,746,cs),
(476,1061,o),
(665,1268,o),
(943,1268,cs),
(1026,1268,o),
(1147,1249,o),
(1260,1194,c),
(1280,1202,l),
(1332,1428,l),
(1201,1471,o),
(1036,1485,o),
(945,1485,cs),
(519,1485,o),
(113,1190,o),
(113,697,cs),
(113,257,o),
(410,-17,o),
(817,-20,c),
(834,-50,o),
(843,-77,o),
(843,-114,cs),
(843,-207,o),
(784,-268,o),
(617,-268,c),
(617,-445,l),
(929,-445,o),
(1049,-306,o),
(1049,-149,cs),
(1049,-86,o),
(1028,-40,o),
(1002,-2,c),
(1118,20,o),
(1234,62,o),
(1317,129,c)
);
}
);
width = 1438;
},
{
layerId = "BA9225F5-135B-4D21-ADB1-4407AF656753";
shapes = (
{
closed = 1;
nodes = (
(1312,238,l),
(1175,160,o),
(1023,142,o),
(930,142,cs),
(546,142,o),
(359,432,o),
(359,731,cs),
(359,1069,o),
(592,1328,o),
(913,1328,cs),
(998,1328,o),
(1142,1310,o),
(1264,1250,c),
(1284,1259,l),
(1319,1414,l),
(1184,1470,o),
(1025,1485,o),
(934,1485,cs),
(516,1485,o),
(147,1170,o),
(147,708,cs),
(147,260,o),
(430,-11,o),
(827,-20,c),
(841,-45,o),
(851,-72,o),
(851,-113,cs),
(851,-236,o),
(755,-283,o),
(628,-283,c),
(628,-413,l),
(841,-413,o),
(1006,-301,o),
(1006,-117,cs),
(1006,-70,o),
(993,-35,o),
(976,-9,c),
(1083,7,o),
(1211,45,o),
(1312,125,c)
);
}
);
width = 1442;
}
);
leftKerningGroup = _C_Right;
rightKerningGroup = _C_Left;
unicode = 199;
},
{
glyphname = "Che-cy";
layers = (
{
layerId = "A2DAE9BC-C777-495C-976C-8ACFC7C9BBD2";
shapes = (
{
closed = 1;
nodes = (
(1276,0,l),
(1276,1465,l),
(1122,1465,l),
(1122,0,l)
);
},
{
closed = 1;
nodes = (
(856,563,o),
(1091,629,o),
(1209,740,c),
(1137,799,l),
(1053,731,o),
(861,682,o),
(712,682,cs),
(474,682,o),
(339,808,o),
(339,1081,cs),
(339,1465,l),
(185,1465,l),
(185,1035,ls),
(185,731,o),
(363,563,o),
(664,563,cs)
);
}
);
width = 1523;
},
{
layerId = "DCFFE7A7-A818-4955-884B-BB4CE5043B09";
shapes = (
{
closed = 1;
nodes = (
(1411,0,l),
(1411,1465,l),
(963,1465,l),
(963,0,l)
);
},
{
closed = 1;
nodes = (
(816,464,o),
(1029,522,o),
(1158,681,c),
(992,849,l),
(952,824,o),
(863,806,o),
(786,806,cs),
(635,806,o),
(567,894,o),
(567,1071,cs),
(567,1465,l),
(123,1465,l),
(123,905,ls),
(123,608,o),
(363,464,o),
(621,464,cs)
);
}
);
width = 1584;
},
{
layerId = "4B50D27E-C53B-49C1-950D-105FFE0A0ACC";
shapes = (
{
closed = 1;
nodes = (
(1367,0,l),
(1367,1465,l),
(1015,1465,l),
(1015,0,l)
);
},
{
closed = 1;
nodes = (
(829,496,o),
(1049,557,o),
(1174,700,c),
(1039,833,l),
(985,794,o),
(862,766,o),
(762,766,cs),
(583,766,o),
(493,866,o),
(493,1074,cs),
(493,1465,l),
(143,1465,l),
(143,947,ls),
(143,648,o),
(363,496,o),
(635,496,cs)
);
}
);
width = 1564;
},
{
layerId = "BA9225F5-135B-4D21-ADB1-4407AF656753";
shapes = (
{
closed = 1;
nodes = (
(1299,0,l),
(1299,1465,l),
(1095,1465,l),
(1095,0,l)
);
},
{
closed = 1;
nodes = (
(849,546,o),
(1080,611,o),
(1200,730,c),
(1112,807,l),
(1036,747,o),
(861,703,o),
(724,703,cs),
(501,703,o),
(377,822,o),
(377,1079,cs),
(377,1465,l),
(174,1465,l),
(174,1013,ls),
(174,710,o),
(363,546,o),
(657,546,cs)
);
}
);
width = 1533;
}
);
leftKerningGroup = "Che-cy";
rightKerningGroup = "I-cy1";
unicode = 1063;
},
{
glyphname = "Cheabkhasian-cy";
layers = (
{
layerId = "A2DAE9BC-C777-495C-976C-8ACFC7C9BBD2";
shapes = (
{
closed = 1;
nodes = (
(1398,-20,o),
(1608,69,o),
(1761,228,c),
(1690,316,l),
(1563,188,o),
(1401,108,o),
(1199,108,cs),
(831,108,o),
(580,373,o),
(580,754,cs),
(580,1110,o),
(807,1365,o),
(1129,1365,cs),
(1415,1365,o),
(1609,1168,o),
(1610,892,cs),
(1610,873,o),
(1608,842,o),
(1605,824,c),
(1755,788,l),
(1760,828,o),
(1760,862,o),
(1760,898,cs),
(1760,1235,o),
(1510,1484,o),
(1152,1484,cs),
(744,1484,o),
(434,1158,o),
(434,726,cs),
(434,301,o),
(731,-20,o),
(1166,-20,cs)
);
},
{
closed = 1;
nodes = (
(541,904,ls),
(309,904,o),
(197,989,o),
(197,1202,cs),
(197,1290,o),
(221,1377,o),
(264,1465,c),
(141,1467,l),
(91,1368,o),
(61,1272,o),
(61,1176,cs),
(61,918,o),
(209,788,o),
(510,788,cs),
(1755,788,l),
(1675,904,l)
);
}
);
width = 1894;
},
{
layerId = "DCFFE7A7-A818-4955-884B-BB4CE5043B09";
shapes = (
{
closed = 1;
nodes = (
(1402,-40,o),
(1673,33,o),
(1864,235,c),
(1704,446,l),
(1593,374,o),
(1484,316,o),
(1306,316,cs),
(1020,316,o),
(883,484,o),
(883,801,cs),
(883,1063,o),
(1017,1184,o),
(1179,1184,cs),
(1380,1184,o),
(1456,1045,o),
(1454,841,c),
(1454,795,o),
(1450,728,o),
(1440,695,c),
(1845,617,l),
(1855,689,o),
(1855,763,o),
(1855,839,cs),
(1855,1225,o),
(1630,1503,o),
(1231,1503,cs),
(830,1503,o),
(472,1171,o),
(472,705,cs),
(472,314,o),
(735,-40,o),
(1194,-40,cs)
);
},
{
closed = 1;
nodes = (
(596,923,ls),
(449,923,o),
(389,1003,o),
(389,1154,cs),
(389,1251,o),
(417,1363,o),
(461,1465,c),
(133,1464,l),
(56,1332,o),
(17,1194,o),
(17,1071,cs),
(17,798,o),
(170,617,o),
(516,617,cs),
(1845,617,l),
(1591,923,l)
);
}
);
width = 1965;
},
{
layerId = "4B50D27E-C53B-49C1-950D-105FFE0A0ACC";
shapes = (
{
closed = 1;
nodes = (
(1401,-33,o),
(1652,45,o),
(1830,233,c),
(1699,404,l),
(1583,313,o),
(1457,248,o),
(1271,248,cs),
(958,248,o),
(785,448,o),
(785,786,cs),
(785,1078,o),
(949,1243,o),
(1163,1243,cs),
(1392,1243,o),
(1506,1085,o),
(1505,857,c),
(1505,820,o),
(1501,765,o),
(1494,737,c),
(1816,673,l),
(1824,734,o),
(1824,795,o),
(1824,858,cs),
(1824,1228,o),
(1591,1497,o),
(1205,1497,cs),
(802,1497,o),
(460,1167,o),
(460,712,cs),
(460,310,o),
(734,-33,o),
(1185,-33,cs)
);
},
{
closed = 1;
nodes = (
(578,917,ls),
(403,917,o),
(326,998,o),
(326,1170,cs),
(326,1263,o),
(353,1367,o),
(397,1465,c),
(135,1465,l),
(68,1344,o),
(31,1219,o),
(31,1105,cs),
(31,837,o),
(182,673,o),
(514,673,cs),
(1816,673,l),
(1618,917,l)
);
}
);
width = 1942;
},
{
layerId = "BA9225F5-135B-4D21-ADB1-4407AF656753";
shapes = (
{
closed = 1;
nodes = (
(1399,-23,o),
(1619,63,o),
(1778,229,c),
(1692,338,l),
(1568,219,o),
(1415,143,o),
(1217,143,cs),
(863,143,o),
(631,392,o),
(631,762,cs),
(631,1102,o),
(842,1334,o),
(1137,1334,cs),
(1409,1334,o),
(1583,1147,o),
(1584,883,c),
(1584,860,o),
(1581,823,o),
(1577,802,c),
(1770,759,l),
(1776,804,o),
(1776,845,o),
(1776,888,cs),
(1776,1233,o),
(1530,1487,o),
(1165,1487,cs),
(758,1487,o),
(440,1160,o),
(440,722,cs),
(440,303,o),
(732,-23,o),
(1171,-23,cs)
);
},
{
closed = 1;
nodes = (
(550,907,ls),
(332,907,o),
(229,991,o),
(229,1194,cs),
(229,1283,o),
(254,1374,o),
(297,1465,c),
(139,1466,l),
(85,1362,o),
(53,1259,o),
(53,1158,cs),
(53,898,o),
(202,759,o),
(511,759,cs),
(1770,759,l),
(1661,907,l)
);
}
);
width = 1906;
}
);
unicode = 1212;
},
{
glyphname = "Chedescender-cy";
layers = (
{
layerId = "A2DAE9BC-C777-495C-976C-8ACFC7C9BBD2";
shapes = (
{
closed = 1;
nodes = (
(1276,0,l),
(1276,1465,l),
(1122,1465,l),
(1122,0,l)
);
},
{
closed = 1;
nodes = (
(856,563,o),
(1091,629,o),
(1209,740,c),
(1137,799,l),
(1053,731,o),
(861,682,o),
(712,682,cs),
(474,682,o),
(339,808,o),
(339,1081,cs),
(339,1465,l),
(185,1465,l),
(185,1035,ls),
(185,731,o),
(363,563,o),
(664,563,cs)
);
},
{
closed = 1;
nodes = (
(1411,0,l),
(1485,124,l),
(1226,124,l),
(1226,0,l)
);
},
{
closed = 1;
nodes = (
(1485,-398,l),
(1485,124,l),
(1328,124,l),
(1362,-398,l)
);
}
);
width = 1607;
},
{
layerId = "DCFFE7A7-A818-4955-884B-BB4CE5043B09";
shapes = (
{
closed = 1;
nodes = (
(1411,0,l),
(1411,1465,l),
(963,1465,l),
(963,0,l)
);
},
{
closed = 1;
nodes = (
(816,464,o),
(1029,522,o),
(1158,681,c),
(992,849,l),
(952,824,o),
(863,806,o),
(786,806,cs),
(635,806,o),
(567,894,o),
(567,1071,cs),
(567,1465,l),
(123,1465,l),
(123,905,ls),
(123,608,o),
(363,464,o),
(621,464,cs)
);
},
{
closed = 1;
nodes = (
(1451,0,l),
(1646,371,l),
(1318,371,l),
(1318,0,l)
);
},
{
closed = 1;
nodes = (
(1646,-381,l),
(1646,371,l),
(1245,371,l),
(1327,-381,l)
);
}
);
width = 1690;
},
{
layerId = "4B50D27E-C53B-49C1-950D-105FFE0A0ACC";
shapes = (
{
closed = 1;
nodes = (
(1367,0,l),
(1367,1465,l),
(1015,1465,l),
(1015,0,l)
);
},
{
closed = 1;
nodes = (
(829,496,o),
(1049,557,o),
(1174,700,c),
(1039,833,l),
(985,794,o),
(862,766,o),
(762,766,cs),
(583,766,o),
(493,866,o),
(493,1074,cs),
(493,1465,l),
(143,1465,l),
(143,947,ls),
(143,648,o),
(363,496,o),
(635,496,cs)
);
},
{
closed = 1;
nodes = (
(1438,0,l),
(1594,291,l),
(1288,291,l),
(1288,0,l)
);
},
{
closed = 1;
nodes = (
(1594,-387,l),
(1594,291,l),
(1272,291,l),
(1339,-387,l)
);
}
);
width = 1663;
},
{
layerId = "BA9225F5-135B-4D21-ADB1-4407AF656753";
shapes = (
{
closed = 1;
nodes = (
(1299,0,l),
(1299,1465,l),
(1095,1465,l),
(1095,0,l)
);
},
{
closed = 1;
nodes = (
(849,546,o),
(1080,611,o),
(1200,730,c),
(1112,807,l),
(1036,747,o),
(861,703,o),
(724,703,cs),
(501,703,o),
(377,822,o),
(377,1079,cs),
(377,1465,l),
(174,1465,l),
(174,1013,ls),
(174,710,o),
(363,546,o),
(657,546,cs)
);
},
{
closed = 1;
nodes = (
(1418,0,l),
(1512,166,l),
(1241,166,l),
(1241,0,l)
);
},
{
closed = 1;
nodes = (
(1512,-395,l),
(1512,166,l),
(1314,166,l),
(1356,-395,l)
);
}
);
width = 1621;
}
);
rightKerningGroup = "Tse-cy1";
unicode = 1206;
},
{
glyphname = "Chedescenderabkhasian-cy";
layers = (
{
layerId = "A2DAE9BC-C777-495C-976C-8ACFC7C9BBD2";
shapes = (
{
closed = 1;
nodes = (
(1398,-20,o),
(1608,69,o),
(1761,228,c),
(1690,316,l),
(1563,188,o),
(1401,108,o),
(1199,108,cs),
(831,108,o),
(580,373,o),
(580,754,cs),
(580,1110,o),
(807,1365,o),
(1129,1365,cs),
(1415,1365,o),
(1609,1168,o),
(1610,892,cs),
(1610,873,o),
(1608,842,o),
(1605,824,c),
(1755,788,l),
(1760,828,o),
(1760,862,o),
(1760,898,cs),
(1760,1235,o),
(1510,1484,o),
(1152,1484,cs),
(744,1484,o),
(434,1158,o),
(434,726,cs),
(434,301,o),
(731,-20,o),
(1166,-20,cs)
);
},
{
closed = 1;
nodes = (
(541,904,ls),
(309,904,o),
(197,989,o),
(197,1202,cs),
(197,1290,o),
(221,1377,o),
(264,1465,c),
(141,1467,l),
(91,1368,o),
(61,1272,o),
(61,1176,cs),
(61,918,o),
(209,788,o),
(510,788,cs),
(1755,788,l),
(1675,904,l)
);
},
{
closed = 1;
nodes = (
(1222,-398,l),
(1237,33,l),
(1094,33,l),
(1107,-398,l)
);
}
);
width = 1894;
},
{
layerId = "DCFFE7A7-A818-4955-884B-BB4CE5043B09";
shapes = (
{
closed = 1;
nodes = (
(1402,-40,o),
(1673,33,o),
(1864,235,c),
(1704,446,l),
(1593,374,o),
(1484,316,o),
(1306,316,cs),
(1020,316,o),
(883,484,o),
(883,801,cs),
(883,1063,o),
(1017,1184,o),
(1179,1184,cs),
(1380,1184,o),
(1456,1045,o),
(1454,841,c),
(1454,795,o),
(1450,728,o),
(1440,695,c),
(1845,617,l),
(1855,689,o),
(1855,763,o),
(1855,839,cs),
(1855,1225,o),
(1630,1503,o),
(1231,1503,cs),
(830,1503,o),
(472,1171,o),
(472,705,cs),
(472,314,o),
(735,-40,o),
(1194,-40,cs)
);
},
{
closed = 1;
nodes = (
(596,923,ls),
(449,923,o),
(389,1003,o),
(389,1154,cs),
(389,1251,o),
(417,1363,o),
(461,1465,c),
(133,1464,l),
(56,1332,o),
(17,1194,o),
(17,1071,cs),
(17,798,o),
(170,617,o),
(516,617,cs),
(1845,617,l),
(1591,923,l)
);
},
{
closed = 1;
nodes = (
(1354,-381,l),
(1393,83,l),
(989,83,l),
(1027,-381,l)
);
}
);
width = 1965;
},
{
layerId = "4B50D27E-C53B-49C1-950D-105FFE0A0ACC";
shapes = (
{
closed = 1;
nodes = (
(1401,-33,o),
(1652,45,o),
(1830,233,c),
(1699,404,l),
(1583,313,o),
(1457,248,o),
(1271,248,cs),
(958,248,o),
(785,448,o),
(785,786,cs),
(785,1078,o),
(949,1243,o),
(1163,1243,cs),
(1392,1243,o),
(1506,1085,o),
(1505,857,c),
(1505,820,o),
(1501,765,o),
(1494,737,c),
(1816,673,l),
(1824,734,o),
(1824,795,o),
(1824,858,cs),
(1824,1228,o),
(1591,1497,o),
(1205,1497,cs),
(802,1497,o),
(460,1167,o),
(460,712,cs),
(460,310,o),
(734,-33,o),
(1185,-33,cs)
);
},
{
closed = 1;
nodes = (
(578,917,ls),
(403,917,o),
(326,998,o),
(326,1170,cs),
(326,1263,o),
(353,1367,o),
(397,1465,c),
(135,1465,l),
(68,1344,o),
(31,1219,o),
(31,1105,cs),
(31,837,o),
(182,673,o),
(514,673,cs),
(1816,673,l),
(1618,917,l)
);
},
{
closed = 1;
nodes = (
(1311,-387,l),
(1342,67,l),
(1023,67,l),
(1053,-387,l)
);
}
);
width = 1942;
},
{
layerId = "BA9225F5-135B-4D21-ADB1-4407AF656753";
shapes = (
{
closed = 1;
nodes = (
(1399,-23,o),
(1619,63,o),
(1778,229,c),
(1692,338,l),
(1568,219,o),
(1415,143,o),
(1217,143,cs),
(863,143,o),
(631,392,o),
(631,762,cs),
(631,1102,o),
(842,1334,o),
(1137,1334,cs),
(1409,1334,o),
(1583,1147,o),
(1584,883,c),
(1584,860,o),
(1581,823,o),
(1577,802,c),
(1770,759,l),
(1776,804,o),
(1776,845,o),
(1776,888,cs),
(1776,1233,o),
(1530,1487,o),
(1165,1487,cs),
(758,1487,o),
(440,1160,o),
(440,722,cs),
(440,303,o),
(732,-23,o),
(1171,-23,cs)
);
},
{
closed = 1;
nodes = (
(550,907,ls),
(332,907,o),
(229,991,o),
(229,1194,cs),
(229,1283,o),
(254,1374,o),
(297,1465,c),
(139,1466,l),
(85,1362,o),
(53,1259,o),
(53,1158,cs),
(53,898,o),
(202,759,o),
(511,759,cs),
(1770,759,l),
(1661,907,l)
);
},
{
closed = 1;
nodes = (
(1244,-395,l),
(1263,41,l),
(1076,41,l),
(1093,-395,l)
);
}
);
width = 1906;
}
);
unicode = 1214;
},
{
glyphname = "Chekhakassian-cy";
layers = (
{
layerId = "A2DAE9BC-C777-495C-976C-8ACFC7C9BBD2";
shapes = (
{
closed = 1;
nodes = (
(1276,0,l),
(1276,1465,l),
(1122,1465,l),
(1122,0,l)
);
},
{
closed = 1;
nodes = (
(856,563,o),
(1091,629,o),
(1209,740,c),
(1137,799,l),
(1053,731,o),
(861,682,o),
(712,682,cs),
(474,682,o),
(339,808,o),
(339,1081,cs),
(339,1465,l),
(185,1465,l),
(185,1035,ls),
(185,731,o),
(363,563,o),
(664,563,cs)
);
},
{
closed = 1;
nodes = (
(1045,-430,l),
(1064,117,l),
(900,117,l),
(921,-430,l)
);
},
{
closed = 1;
nodes = (
(1181,0,l),
(1181,117,l),
(900,117,l),
(981,0,l)
);
}
);
width = 1523;
},
{
layerId = "DCFFE7A7-A818-4955-884B-BB4CE5043B09";
shapes = (
{
closed = 1;
nodes = (
(1411,0,l),
(1411,1465,l),
(963,1465,l),
(963,0,l)
);
},
{
closed = 1;
nodes = (
(816,464,o),
(1029,522,o),
(1158,681,c),
(992,849,l),
(952,824,o),
(863,806,o),
(786,806,cs),
(635,806,o),
(567,894,o),
(567,1071,cs),
(567,1465,l),
(123,1465,l),
(123,905,ls),
(123,608,o),
(363,464,o),
(621,464,cs)
);
},
{
closed = 1;
nodes = (
(1112,-387,l),
(1168,291,l),
(719,291,l),
(782,-387,l)
);
},
{
closed = 1;
nodes = (
(1061,0,l),
(1061,291,l),
(719,291,l),
(922,0,l)
);
}
);
width = 1584;
},
{
layerId = "4B50D27E-C53B-49C1-950D-105FFE0A0ACC";
shapes = (
{
closed = 1;
nodes = (
(1367,0,l),
(1367,1465,l),
(1015,1465,l),
(1015,0,l)
);
},
{
closed = 1;
nodes = (
(829,496,o),
(1049,557,o),
(1174,700,c),
(1039,833,l),
(985,794,o),
(862,766,o),
(762,766,cs),
(583,766,o),
(493,866,o),
(493,1074,cs),
(493,1465,l),
(143,1465,l),
(143,947,ls),
(143,648,o),
(363,496,o),
(635,496,cs)
);
},
{
closed = 1;
nodes = (
(1090,-401,l),
(1134,234,l),
(778,234,l),
(827,-401,l)
);
},
{
closed = 1;
nodes = (
(1100,0,l),
(1100,234,l),
(778,234,l),
(941,0,l)
);
}
);
width = 1564;
},
{
layerId = "BA9225F5-135B-4D21-ADB1-4407AF656753";
shapes = (
{
closed = 1;
nodes = (
(1299,0,l),
(1299,1465,l),
(1095,1465,l),
(1095,0,l)
);
},
{
closed = 1;
nodes = (
(849,546,o),
(1080,611,o),
(1200,730,c),
(1112,807,l),
(1036,747,o),
(861,703,o),
(724,703,cs),
(501,703,o),
(377,822,o),
(377,1079,cs),
(377,1465,l),
(174,1465,l),
(174,1013,ls),
(174,710,o),
(363,546,o),
(657,546,cs)
);
},
{
closed = 1;
nodes = (
(1056,-423,l),
(1081,146,l),
(869,146,l),
(897,-423,l)
);
},
{
closed = 1;
nodes = (
(1161,0,l),
(1161,146,l),
(869,146,l),
(971,0,l)
);
}
);
width = 1533;
}
);
unicode = 1227;
},
{
glyphname = "Cheverticalstroke-cy";
layers = (
{
layerId = "A2DAE9BC-C777-495C-976C-8ACFC7C9BBD2";
shapes = (
{
closed = 1;
nodes = (
(764,218,l),
(764,1044,l),
(664,1044,l),
(664,218,l)
);
},
{
closed = 1;
nodes = (
(1276,0,l),
(1276,1465,l),
(1124,1465,l),
(1124,0,l)
);
},
{
closed = 1;
nodes = (
(855,563,o),
(1090,629,o),
(1209,740,c),
(1143,801,l),
(1057,730,o),
(863,681,o),
(711,681,cs),
(472,681,o),
(335,806,o),
(335,1077,cs),
(335,1465,l),
(185,1465,l),
(185,1035,ls),
(185,731,o),
(363,563,o),
(664,563,cs)
);
}
);
width = 1523;
},
{
layerId = "DCFFE7A7-A818-4955-884B-BB4CE5043B09";
shapes = (
{
closed = 1;
nodes = (
(880,168,l),
(880,1191,l),
(657,1191,l),
(657,168,l)
);
},
{
closed = 1;
nodes = (
(1411,0,l),
(1411,1465,l),
(995,1465,l),
(995,0,l)
);
},
{
closed = 1;
nodes = (
(793,482,o),
(1022,534,o),
(1158,681,c),
(1056,868,l),
(1002,822,o),
(876,789,o),
(772,789,cs),
(607,789,o),
(537,861,o),
(537,1009,cs),
(537,1465,l),
(123,1465,l),
(123,905,ls),
(123,620,o),
(349,482,o),
(621,482,cs)
);
}
);
width = 1584;
},
{
layerId = "4B50D27E-C53B-49C1-950D-105FFE0A0ACC";
shapes = (
{
closed = 1;
nodes = (
(842,184,l),
(842,1143,l),
(659,1143,l),
(659,184,l)
);
},
{
closed = 1;
nodes = (
(1367,0,l),
(1367,1465,l),
(1037,1465,l),
(1037,0,l)
);
},
{
closed = 1;
nodes = (
(813,508,o),
(1044,565,o),
(1174,700,c),
(1084,846,l),
(1020,792,o),
(872,754,o),
(752,754,cs),
(563,754,o),
(471,843,o),
(471,1031,cs),
(471,1465,l),
(143,1465,l),
(143,947,ls),
(143,656,o),
(353,508,o),
(635,508,cs)
);
}
);
width = 1564;
},
{
layerId = "BA9225F5-135B-4D21-ADB1-4407AF656753";
shapes = (
{
closed = 1;
nodes = (
(783,209,l),
(783,1069,l),
(663,1069,l),
(663,209,l)
);
},
{
closed = 1;
nodes = (
(1299,0,l),
(1299,1465,l),
(1102,1465,l),
(1102,0,l)
);
},
{
closed = 1;
nodes = (
(844,549,o),
(1078,613,o),
(1200,730,c),
(1128,812,l),
(1048,745,o),
(865,699,o),
(721,699,cs),
(495,699,o),
(369,815,o),
(369,1065,cs),
(369,1465,l),
(174,1465,l),
(174,1013,ls),
(174,712,o),
(360,549,o),
(657,549,cs)
);
}
);
width = 1533;
}
);
rightKerningGroup = "I-cy1";
unicode = 1208;
},
{
glyphname = D;
layers = (
{
layerId = "A2DAE9BC-C777-495C-976C-8ACFC7C9BBD2";
shapes = (
{
closed = 1;
nodes = (
(229,0,l),
(664,0,l),
(1217,-1,o),
(1479,405,o),
(1479,775,cs),
(1479,1164,o),
(1235,1465,o),
(702,1465,cs),
(229,1465,l)
);
},
{
closed = 1;
nodes = (
(383,1338,l),
(669,1338,ls),
(1084,1338,o),
(1320,1105,o),
(1320,751,cs),
(1320,420,o),
(1113,127,o),
(692,127,cs),
(383,127,l)
);
}
);
width = 1638;
},
{
background = {
shapes = (
{
closed = 1;
nodes = (
(188,-6,o),
(319,-9,o),
(351,-9,cs),
(640,-9,o),
(768,188,o),
(768,395,cs),
(768,620,o),
(621,756,o),
(358,756,cs),
(309,756,o),
(199,752,o),
(105,742,c),
(109,618,o),
(111,477,o),
(111,365,cs),
(111,251,o),
(109,122,o),
(105,0,c)
);
},
{
closed = 1;
nodes = (
(214,170,o),
(213,278,o),
(213,373,cs),
(213,468,o),
(214,575,o),
(219,677,c),
(259,681,o),
(319,682,o),
(339,682,cs),
(537,682,o),
(652,564,o),
(652,377,cs),
(652,209,o),
(566,64,o),
(368,64,cs),
(341,64,o),
(285,66,o),
(219,75,c)
);
}
);
};
layerId = "DCFFE7A7-A818-4955-884B-BB4CE5043B09";
shapes = (
{
closed = 1;
nodes = (
(160,0,l),
(731,-1,ls),
(1369,-2,o),
(1581,416,o),
(1581,784,cs),
(1581,1211,o),
(1296,1465,o),
(782,1465,cs),
(160,1465,l)
);
},
{
closed = 1;
nodes = (
(611,1208,l),
(755,1208,ls),
(987,1208,o),
(1117,1076,o),
(1117,756,cs),
(1117,464,o),
(1010,257,o),
(771,257,cs),
(611,257,l)
);
}
);
width = 1671;
},
{
layerId = "4B50D27E-C53B-49C1-950D-105FFE0A0ACC";
shapes = (
{
closed = 1;
nodes = (
(183,0,l),
(709,-1,ls),
(1318,-2,o),
(1547,412,o),
(1547,781,cs),
(1547,1195,o),
(1276,1465,o),
(755,1465,cs),
(183,1465,l)
);
},
{
closed = 1;
nodes = (
(535,1248,l),
(726,1248,ls),
(1019,1248,o),
(1185,1086,o),
(1185,754,cs),
(1185,449,o),
(1044,217,o),
(745,217,cs),
(535,217,l)
);
}
);
width = 1660;
},
{
layerId = "BA9225F5-135B-4D21-ADB1-4407AF656753";
shapes = (
{
closed = 1;
nodes = (
(217,0,l),
(675,0,l),
(1242,-1,o),
(1496,407,o),
(1496,776,cs),
(1496,1172,o),
(1245,1465,o),
(715,1465,cs),
(217,1465,l)
);
},
{
closed = 1;
nodes = (
(421,1308,l),
(683,1308,ls),
(1068,1308,o),
(1286,1100,o),
(1286,752,cs),
(1286,427,o),
(1096,157,o),
(705,157,cs),
(421,157,l)
);
}
);
width = 1643;
}
);
rightKerningGroup = _D_Left;
unicode = 68;
},
{
glyphname = Dcroat;
layers = (
{
layerId = "A2DAE9BC-C777-495C-976C-8ACFC7C9BBD2";
shapes = (
{
closed = 1;
nodes = (
(28,788,l),
(28,678,l),
(228,678,l),
(228,0,l),
(663,0,l),
(1216,-1,o),
(1478,405,o),
(1478,775,cs),
(1478,1178,o),
(1244,1465,o),
(701,1465,cs),
(228,1465,l),
(228,788,l)
);
},
{
closed = 1;
nodes = (
(382,1338,l),
(668,1338,ls),
(1083,1338,o),
(1319,1105,o),
(1319,751,cs),
(1319,420,o),
(1113,127,o),
(691,127,cs),
(382,127,l),
(382,678,l),
(787,678,l),
(787,788,l),
(382,788,l)
);
}
);
width = 1637;
},
{
layerId = "DCFFE7A7-A818-4955-884B-BB4CE5043B09";
shapes = (
{
closed = 1;
nodes = (
(42,874,l),
(42,593,l),
(183,593,l),
(183,0,l),
(754,-1,ls),
(1392,-2,o),
(1604,416,o),
(1604,784,cs),
(1604,1211,o),
(1319,1465,o),
(805,1465,cs),
(183,1465,l),
(183,874,l)
);
},
{
closed = 1;
nodes = (
(634,1208,l),
(778,1208,ls),
(1010,1208,o),
(1140,1076,o),
(1140,756,cs),
(1140,464,o),
(1033,257,o),
(794,257,cs),
(634,257,l),
(634,593,l),
(897,593,l),
(897,874,l),
(634,874,l)
);
}
);
width = 1694;
},
{
layerId = "4B50D27E-C53B-49C1-950D-105FFE0A0ACC";
shapes = (
{
closed = 1;
nodes = (
(37,845,l),
(37,621,l),
(198,621,l),
(198,0,l),
(724,-1,ls),
(1333,-2,o),
(1562,412,o),
(1562,781,cs),
(1562,1200,o),
(1294,1465,o),
(770,1465,cs),
(198,1465,l),
(198,845,l)
);
},
{
closed = 1;
nodes = (
(550,1248,l),
(741,1248,ls),
(1034,1248,o),
(1200,1086,o),
(1200,754,cs),
(1200,449,o),
(1059,217,o),
(760,217,cs),
(550,217,l),
(550,621,l),
(860,621,l),
(860,845,l),
(550,845,l)
);
}
);
width = 1675;
},
{
layerId = "BA9225F5-135B-4D21-ADB1-4407AF656753";
shapes = (
{
closed = 1;
nodes = (
(30,802,l),
(30,664,l),
(220,664,l),
(220,0,l),
(678,0,l),
(1245,-1,o),
(1499,407,o),
(1499,776,cs),
(1499,1183,o),
(1256,1465,o),
(718,1465,cs),
(220,1465,l),
(220,802,l)
);
},
{
closed = 1;
nodes = (
(424,1308,l),
(686,1308,ls),
(1071,1308,o),
(1289,1100,o),
(1289,752,cs),
(1289,427,o),
(1099,157,o),
(708,157,cs),
(424,157,l),
(424,664,l),
(805,664,l),
(805,802,l),
(424,802,l)
);
}
);
width = 1646;
}
);
rightKerningGroup = _D_Left;
unicode = 272;
},
{
glyphname = "De-cy";
layers = (
{
layerId = "A2DAE9BC-C777-495C-976C-8ACFC7C9BBD2";
shapes = (
{
closed = 1;
nodes = (
(359,16,l),
(514,342,o),
(587,805,o),
(631,1384,c),
(502,1384,l),
(458,804,o),
(382,342,o),
(222,15,c)
);
},
{
closed = 1;
nodes = (
(219,-367,l),
(219,115,l),
(76,115,l),
(105,-367,l)
);
},
{
closed = 1;
nodes = (
(1419,0,l),
(1472,115,l),
(120,115,l),
(126,0,l)
);
},
{
closed = 1;
nodes = (
(1472,-367,l),
(1473,115,l),
(1332,115,l),
(1360,-367,l)
);
},
{
closed = 1;
nodes = (
(1283,0,l),
(1283,1384,l),
(1136,1384,l),
(1136,0,l)
);
},
{
closed = 1;
nodes = (
(1212,1266,l),
(1212,1384,l),
(571,1384,l),
(571,1266,l)
);
}
);
width = 1568;
},
{
layerId = "DCFFE7A7-A818-4955-884B-BB4CE5043B09";
shapes = (
{
closed = 1;
nodes = (
(542,193,l),
(728,685,o),
(760,1115,o),
(784,1473,c),
(415,1473,l),
(393,1104,o),
(357,682,o),
(179,190,c)
);
},
{
closed = 1;
nodes = (
(402,-377,l),
(402,347,l),
(11,347,l),
(83,-377,l)
);
},
{
closed = 1;
nodes = (
(1432,0,l),
(1674,347,l),
(169,347,l),
(161,0,l)
);
},
{
closed = 1;
nodes = (
(1681,-377,l),
(1681,347,l),
(1289,347,l),
(1357,-377,l)
);
},
{
closed = 1;
nodes = (
(1448,0,l),
(1448,1473,l),
(1027,1473,l),
(1027,0,l)
);
},
{
closed = 1;
nodes = (
(1222,1146,l),
(1222,1473,l),
(636,1473,l),
(636,1146,l)
);
}
);
width = 1682;
},
{
layerId = "4B50D27E-C53B-49C1-950D-105FFE0A0ACC";
shapes = (
{
closed = 1;
nodes = (
(482,135,l),
(658,573,o),
(704,1014,o),
(734,1444,c),
(443,1444,l),
(414,1006,o),
(365,571,o),
(193,133,c)
);
},
{
closed = 1;
nodes = (
(342,-374,l),
(342,271,l),
(32,271,l),
(90,-374,l)
);
},
{
closed = 1;
nodes = (
(1428,0,l),
(1608,271,l),
(153,271,l),
(149,0,l)
);
},
{
closed = 1;
nodes = (
(1613,-374,l),
(1613,271,l),
(1303,271,l),
(1358,-374,l)
);
},
{
closed = 1;
nodes = (
(1394,0,l),
(1394,1444,l),
(1062,1444,l),
(1062,0,l)
);
},
{
closed = 1;
nodes = (
(1219,1185,l),
(1219,1444,l),
(615,1444,l),
(615,1185,l)
);
}
);
width = 1645;
},
{
layerId = "BA9225F5-135B-4D21-ADB1-4407AF656753";
shapes = (
{
closed = 1;
nodes = (
(390,46,l),
(550,400,o),
(616,857,o),
(657,1399,c),
(487,1399,l),
(447,854,o),
(378,399,o),
(215,44,c)
);
},
{
closed = 1;
nodes = (
(250,-369,l),
(250,154,l),
(65,154,l),
(101,-369,l)
);
},
{
closed = 1;
nodes = (
(1421,0,l),
(1506,154,l),
(128,154,l),
(132,0,l)
);
},
{
closed = 1;
nodes = (
(1507,-369,l),
(1508,154,l),
(1325,154,l),
(1359,-369,l)
);
},
{
closed = 1;
nodes = (
(1311,0,l),
(1311,1399,l),
(1117,1399,l),
(1117,0,l)
);
},
{
closed = 1;
nodes = (
(1214,1246,l),
(1214,1399,l),
(582,1399,l),
(582,1246,l)
);
}
);
width = 1587;
}
);
unicode = 1044;
},
{
glyphname = "De-cy.loclBGR";
layers = (
{
layerId = "A2DAE9BC-C777-495C-976C-8ACFC7C9BBD2";
shapes = (
{
closed = 1;
nodes = (
(352,0,l),
(885,1386,l),
(831,1386,l),
(1373,0,l),
(1533,0,l),
(949,1465,l),
(790,1465,l),
(210,0,l)
);
},
{
closed = 1;
nodes = (
(202,-389,l),
(228,121,l),
(80,121,l),
(89,-389,l)
);
},
{
closed = 1;
nodes = (
(1595,0,l),
(1658,121,l),
(80,121,l),
(120,0,l)
);
},
{
closed = 1;
nodes = (
(1650,-389,l),
(1658,121,l),
(1510,121,l),
(1537,-389,l)
);
}
);
width = 1753;
},
{
layerId = "DCFFE7A7-A818-4955-884B-BB4CE5043B09";
shapes = (
{
closed = 1;
nodes = (
(462,0,l),
(904,1319,l),
(756,1319,l),
(1198,0,l),
(1643,0,l),
(1135,1465,l),
(613,1465,l),
(101,0,l)
);
},
{
closed = 1;
nodes = (
(385,-375,l),
(450,346,l),
(33,346,l),
(85,-375,l)
);
},
{
closed = 1;
nodes = (
(1512,0,l),
(1701,346,l),
(33,346,l),
(142,0,l)
);
},
{
closed = 1;
nodes = (
(1652,-375,l),
(1701,346,l),
(1291,346,l),
(1356,-375,l)
);
}
);
width = 1736;
},
{
layerId = "4B50D27E-C53B-49C1-950D-105FFE0A0ACC";
shapes = (
{
closed = 1;
nodes = (
(426,0,l),
(898,1341,l),
(780,1341,l),
(1255,0,l),
(1607,0,l),
(1074,1465,l),
(671,1465,l),
(136,0,l)
);
},
{
closed = 1;
nodes = (
(325,-379,l),
(378,273,l),
(48,273,l),
(86,-379,l)
);
},
{
closed = 1;
nodes = (
(1539,0,l),
(1687,273,l),
(48,273,l),
(135,0,l)
);
},
{
closed = 1;
nodes = (
(1651,-379,l),
(1687,273,l),
(1362,273,l),
(1415,-379,l)
);
}
);
width = 1742;
},
{
layerId = "BA9225F5-135B-4D21-ADB1-4407AF656753";
shapes = (
{
closed = 1;
nodes = (
(370,0,l),
(888,1375,l),
(818,1375,l),
(1343,0,l),
(1551,0,l),
(980,1465,l),
(760,1465,l),
(191,0,l)
);
},
{
closed = 1;
nodes = (
(233,-386,l),
(265,159,l),
(72,159,l),
(88,-386,l)
);
},
{
closed = 1;
nodes = (
(1581,0,l),
(1665,159,l),
(72,159,l),
(124,0,l)
);
},
{
closed = 1;
nodes = (
(1650,-386,l),
(1665,159,l),
(1473,159,l),
(1506,-386,l)
);
}
);
width = 1750;
}
);
},
{
glyphname = Delta;
layers = (
{
layerId = "A2DAE9BC-C777-495C-976C-8ACFC7C9BBD2";
shapes = (
{
closed = 1;
nodes = (
(1330,0,l),
(1319,122,l),
(166,122,l),
(158,0,l)
);
},
{
closed = 1;
nodes = (
(1386,82,l),
(825,1465,l),
(680,1465,l),
(118,82,l),
(118,0,l),
(229,0,l),
(774,1377,l),
(716,1377,l),
(1246,0,l),
(1386,0,l)
);
}
);
width = 1502;
},
{
layerId = "DCFFE7A7-A818-4955-884B-BB4CE5043B09";
shapes = (
{
closed = 1;
nodes = (
(1253,0,l),
(1140,313,l),
(313,313,l),
(221,0,l)
);
},
{
closed = 1;
nodes = (
(1454,229,l),
(990,1465,l),
(526,1465,l),
(81,229,l),
(81,0,l),
(384,0,l),
(762,1223,l),
(677,1223,l),
(1038,0,l),
(1454,0,l)
);
}
);
width = 1528;
},
{
layerId = "4B50D27E-C53B-49C1-950D-105FFE0A0ACC";
shapes = (
{
closed = 1;
nodes = (
(1276,0,l),
(1194,255,l),
(268,255,l),
(202,0,l)
);
},
{
closed = 1;
nodes = (
(1433,184,l),
(940,1465,l),
(573,1465,l),
(92,184,l),
(92,0,l),
(337,0,l),
(766,1270,l),
(689,1270,l),
(1101,0,l),
(1433,0,l)
);
}
);
width = 1520;
},
{
layerId = "BA9225F5-135B-4D21-ADB1-4407AF656753";
shapes = (
{
closed = 1;
nodes = (
(1316,0,l),
(1288,155,l),
(191,155,l),
(169,0,l)
);
},
{
closed = 1;
nodes = (
(1398,107,l),
(854,1465,l),
(653,1465,l),
(111,107,l),
(111,0,l),
(256,0,l),
(772,1350,l),
(709,1350,l),
(1210,0,l),
(1398,0,l)
);
}
);
width = 1506;
}
);
unicode = 916;
},
{
glyphname = "Dje-cy";
layers = (
{
layerId = "A2DAE9BC-C777-495C-976C-8ACFC7C9BBD2";
shapes = (
{
closed = 1;
nodes = (
(1184,-422,l),
(1436,-178,o),
(1538,165,o),
(1538,433,cs),
(1538,784,o),
(1364,931,o),
(1088,931,cs),
(857,931,o),
(652,839,o),
(514,636,c),
(587,563,l),
(679,742,o),
(863,808,o),
(1028,808,cs),
(1253,808,o),
(1373,682,o),
(1373,401,cs),
(1373,155,o),
(1290,-148,o),
(1103,-371,c)
);
},
{
closed = 1;
nodes = (
(625,0,l),
(625,1465,l),
(468,1465,l),
(468,0,l)
);
},
{
closed = 1;
nodes = (
(1305,1345,l),
(1305,1465,l),
(88,1465,l),
(88,1345,l)
);
}
);
width = 1702;
},
{
layerId = "DCFFE7A7-A818-4955-884B-BB4CE5043B09";
shapes = (
{
closed = 1;
nodes = (
(1340,-435,l),
(1650,-162,o),
(1740,123,o),
(1740,386,cs),
(1740,767,o),
(1521,941,o),
(1235,941,cs),
(1032,941,o),
(805,835,o),
(661,619,c),
(809,492,l),
(856,567,o),
(952,617,o),
(1047,617,cs),
(1203,617,o),
(1268,517,o),
(1268,302,cs),
(1268,107,o),
(1228,-115,o),
(1093,-296,c)
);
},
{
closed = 1;
nodes = (
(857,0,l),
(857,1465,l),
(406,1465,l),
(406,0,l)
);
},
{
closed = 1;
nodes = (
(1386,1141,l),
(1386,1465,l),
(66,1465,l),
(66,1141,l)
);
}
);
width = 1783;
},
{
layerId = "4B50D27E-C53B-49C1-950D-105FFE0A0ACC";
shapes = (
{
closed = 1;
nodes = (
(1289,-431,l),
(1580,-167,o),
(1674,137,o),
(1674,401,cs),
(1674,773,o),
(1470,938,o),
(1187,938,cs),
(975,938,o),
(755,836,o),
(613,625,c),
(737,515,l),
(798,624,o),
(923,679,o),
(1041,679,cs),
(1219,679,o),
(1302,571,o),
(1302,334,cs),
(1302,123,o),
(1248,-125,o),
(1096,-320,c)
);
},
{
closed = 1;
nodes = (
(781,0,l),
(781,1465,l),
(426,1465,l),
(426,0,l)
);
},
{
closed = 1;
nodes = (
(1360,1207,l),
(1360,1465,l),
(73,1465,l),
(73,1207,l)
);
}
);
width = 1757;
},
{
layerId = "BA9225F5-135B-4D21-ADB1-4407AF656753";
shapes = (
{
closed = 1;
nodes = (
(1210,-424,l),
(1472,-175,o),
(1572,158,o),
(1572,425,cs),
(1572,781,o),
(1390,933,o),
(1113,933,cs),
(886,933,o),
(678,838,o),
(539,633,c),
(624,551,l),
(709,712,o),
(878,776,o),
(1031,776,cs),
(1244,776,o),
(1355,654,o),
(1355,384,cs),
(1355,147,o),
(1279,-142,o),
(1101,-358,c)
);
},
{
closed = 1;
nodes = (
(664,0,l),
(664,1465,l),
(457,1465,l),
(457,0,l)
);
},
{
closed = 1;
nodes = (
(1319,1310,l),
(1319,1465,l),
(84,1465,l),
(84,1310,l)
);
}
);
width = 1716;
}
);
unicode = 1026;
},
{
glyphname = "Dzeabkhasian-cy";
layers = (
{
layerId = "A2DAE9BC-C777-495C-976C-8ACFC7C9BBD2";
shapes = (
{
closed = 1;
nodes = (
(922,-20,o),
(1188,133,o),
(1188,444,cs),
(1188,709,o),
(991,904,o),
(506,865,c),
(517,786,l),
(1151,1365,l),
(1150,1464,l),
(127,1464,l),
(127,1342,l),
(1099,1347,l),
(1050,1417,l),
(399,833,l),
(430,756,l),
(907,794,o),
(1042,615,o),
(1042,420,cs),
(1042,191,o),
(860,96,o),
(655,96,cs),
(459,96,o),
(299,185,o),
(224,366,c),
(88,315,l),
(155,100,o),
(372,-20,o),
(631,-20,cs)
);
}
);
width = 1282;
},
{
layerId = "DCFFE7A7-A818-4955-884B-BB4CE5043B09";
shapes = (
{
closed = 1;
nodes = (
(969,-39,o),
(1213,186,o),
(1213,475,cs),
(1213,739,o),
(1001,872,o),
(697,893,c),
(600,718,l),
(1153,1167,l),
(1157,1466,l),
(83,1466,l),
(83,1131,l),
(1040,1147,l),
(955,1334,l),
(298,819,l),
(395,609,l),
(719,644,o),
(832,514,o),
(832,406,cs),
(832,315,o),
(771,267,o),
(665,267,cs),
(548,267,o),
(456,323,o),
(364,444,c),
(29,289,l),
(108,100,o),
(317,-39,o),
(605,-39,cs)
);
}
);
width = 1278;
},
{
layerId = "4B50D27E-C53B-49C1-950D-105FFE0A0ACC";
shapes = (
{
closed = 1;
nodes = (
(954,-33,o),
(1205,169,o),
(1205,465,cs),
(1205,729,o),
(998,882,o),
(635,884,c),
(573,740,l),
(1152,1231,l),
(1155,1465,l),
(97,1465,l),
(97,1199,l),
(1059,1212,l),
(986,1361,l),
(331,823,l),
(407,657,l),
(780,693,o),
(900,547,o),
(900,410,cs),
(900,275,o),
(800,211,o),
(662,211,cs),
(519,211,o),
(405,278,o),
(318,419,c),
(48,297,l),
(123,100,o),
(335,-33,o),
(613,-33,cs)
);
}
);
width = 1279;
},
{
layerId = "BA9225F5-135B-4D21-ADB1-4407AF656753";
shapes = (
{
closed = 1;
nodes = (
(930,-23,o),
(1192,142,o),
(1192,449,cs),
(1192,714,o),
(993,898,o),
(538,870,c),
(531,774,l),
(1151,1331,l),
(1151,1464,l),
(119,1464,l),
(119,1306,l),
(1089,1313,l),
(1034,1403,l),
(382,830,l),
(424,731,l),
(875,769,o),
(1006,598,o),
(1006,417,cs),
(1006,212,o),
(845,125,o),
(657,125,cs),
(474,125,o),
(325,208,o),
(247,379,c),
(78,310,l),
(147,100,o),
(363,-23,o),
(626,-23,cs)
);
}
);
width = 1281;
}
);
unicode = 1248;
},
{
glyphname = "Dzhe-cy";
layers = (
{
layerId = "A2DAE9BC-C777-495C-976C-8ACFC7C9BBD2";
shapes = (
{
closed = 1;
nodes = (
(1419,0,l),
(1419,1465,l),
(1266,1465,l),
(1266,0,l)
);
},
{
closed = 1;
nodes = (
(1367,0,l),
(1367,123,l),
(296,123,l),
(296,0,l)
);
},
{
closed = 1;
nodes = (
(402,0,l),
(402,1465,l),
(245,1465,l),
(245,0,l)
);
},
{
closed = 1;
nodes = (
(879,-398,l),
(894,33,l),
(747,33,l),
(766,-398,l)
);
}
);
width = 1668;
},
{
layerId = "DCFFE7A7-A818-4955-884B-BB4CE5043B09";
shapes = (
{
closed = 1;
nodes = (
(1526,0,l),
(1526,1465,l),
(1079,1465,l),
(1079,0,l)
);
},
{
closed = 1;
nodes = (
(1384,0,l),
(1384,344,l),
(318,344,l),
(318,0,l)
);
},
{
closed = 1;
nodes = (
(621,0,l),
(621,1465,l),
(174,1465,l),
(174,0,l)
);
},
{
closed = 1;
nodes = (
(1019,-381,l),
(1057,83,l),
(654,83,l),
(691,-381,l)
);
}
);
width = 1703;
},
{
layerId = "4B50D27E-C53B-49C1-950D-105FFE0A0ACC";
shapes = (
{
closed = 1;
nodes = (
(1491,0,l),
(1491,1465,l),
(1140,1465,l),
(1140,0,l)
);
},
{
closed = 1;
nodes = (
(1378,0,l),
(1378,272,l),
(311,272,l),
(311,0,l)
);
},
{
closed = 1;
nodes = (
(550,0,l),
(550,1465,l),
(197,1465,l),
(197,0,l)
);
},
{
closed = 1;
nodes = (
(973,-387,l),
(1004,67,l),
(684,67,l),
(715,-387,l)
);
}
);
width = 1691;
},
{
layerId = "BA9225F5-135B-4D21-ADB1-4407AF656753";
shapes = (
{
closed = 1;
nodes = (
(1437,0,l),
(1437,1465,l),
(1234,1465,l),
(1234,0,l)
);
},
{
closed = 1;
nodes = (
(1370,0,l),
(1370,160,l),
(300,160,l),
(300,0,l)
);
},
{
closed = 1;
nodes = (
(439,0,l),
(439,1465,l),
(233,1465,l),
(233,0,l)
);
},
{
closed = 1;
nodes = (
(902,-395,l),
(921,41,l),
(731,41,l),
(753,-395,l)
);
}
);
width = 1674;
}
);
unicode = 1039;
},
{
glyphname = E;
layers = (
{
layerId = "A2DAE9BC-C777-495C-976C-8ACFC7C9BBD2";
shapes = (
{
closed = 1;
nodes = (
(1055,0,l),
(1083,127,l),
(383,127,l),
(383,700,l),
(940,700,l),
(969,824,l),
(383,824,l),
(383,1338,l),
(1036,1338,l),
(1063,1465,l),
(229,1465,l),
(229,0,l)
);
}
);
width = 1214;
},
{
background = {
shapes = (
{
closed = 1;
nodes = (
(543,0,l),
(554,80,l),
(439,69,o),
(325,67,o),
(209,67,c),
(209,348,l),
(481,348,l),
(494,415,l),
(209,415,l),
(209,672,l),
(316,672,o),
(422,671,o),
(529,660,c),
(544,740,l),
(110,740,l),
(110,0,l)
);
}
);
};
layerId = "DCFFE7A7-A818-4955-884B-BB4CE5043B09";
shapes = (
{
closed = 1;
nodes = (
(1137,0,l),
(1182,257,l),
(611,257,l),
(611,636,l),
(1019,636,l),
(1057,869,l),
(611,869,l),
(611,1208,l),
(1132,1208,l),
(1177,1465,l),
(160,1465,l),
(160,0,l)
);
}
);
width = 1299;
},
{
layerId = "4B50D27E-C53B-49C1-950D-105FFE0A0ACC";
shapes = (
{
closed = 1;
nodes = (
(1109,0,l),
(1149,217,l),
(535,217,l),
(535,656,l),
(993,656,l),
(1027,855,l),
(535,855,l),
(535,1248,l),
(1100,1248,l),
(1139,1465,l),
(183,1465,l),
(183,0,l)
);
}
);
width = 1271;
},
{
layerId = "BA9225F5-135B-4D21-ADB1-4407AF656753";
shapes = (
{
closed = 1;
nodes = (
(1068,0,l),
(1099,157,l),
(421,157,l),
(421,685,l),
(953,685,l),
(983,835,l),
(421,835,l),
(421,1308,l),
(1052,1308,l),
(1082,1465,l),
(217,1465,l),
(217,0,l)
);
}
);
width = 1228;
}
);
rightKerningGroup = _E_Left;
unicode = 69;
},
{
glyphname = "E-cy";
layers = (
{
layerId = "A2DAE9BC-C777-495C-976C-8ACFC7C9BBD2";
shapes = (
{
closed = 1;
nodes = (
(1058,-20,o),
(1222,35,o),
(1367,143,c),
(1305,260,l),
(1191,156,o),
(1052,94,o),
(885,94,cs),
(544,94,o),
(291,346,o),
(291,741,cs),
(291,1118,o),
(514,1369,o),
(860,1369,cs),
(1016,1369,o),
(1143,1316,o),
(1267,1222,c),
(1335,1351,l),
(1202,1436,o),
(1057,1484,o),
(884,1484,cs),
(447,1484,o),
(126,1177,o),
(126,718,cs),
(126,277,o),
(425,-20,o),
(867,-20,cs)
);
},
{
closed = 1;
nodes = (
(1040,806,l),
(241,796,l),
(232,690,l),
(1033,682,l)
);
}
);
width = 1466;
},
{
layerId = "DCFFE7A7-A818-4955-884B-BB4CE5043B09";
shapes = (
{
closed = 1;
nodes = (
(1060,-40,o),
(1265,3,o),
(1422,104,c),
(1284,400,l),
(1221,331,o),
(1119,263,o),
(977,263,cs),
(746,263,o),
(580,435,o),
(580,760,cs),
(580,1067,o),
(713,1204,o),
(915,1204,cs),
(1035,1204,o),
(1150,1148,o),
(1259,1057,c),
(1409,1386,l),
(1263,1471,o),
(1077,1503,o),
(924,1503,cs),
(428,1503,o),
(104,1197,o),
(104,701,cs),
(104,247,o),
(377,-40,o),
(871,-40,cs)
);
},
{
closed = 1;
nodes = (
(1124,907,l),
(457,867,l),
(429,610,l),
(1094,581,l)
);
}
);
width = 1479;
},
{
layerId = "4B50D27E-C53B-49C1-950D-105FFE0A0ACC";
shapes = (
{
closed = 1;
nodes = (
(1059,-33,o),
(1251,13,o),
(1404,116,c),
(1291,354,l),
(1211,274,o),
(1097,208,o),
(947,208,cs),
(680,208,o),
(486,406,o),
(486,754,cs),
(486,1083,o),
(648,1258,o),
(897,1258,cs),
(1029,1258,o),
(1148,1202,o),
(1261,1111,c),
(1385,1374,l),
(1243,1459,o),
(1070,1497,o),
(911,1497,cs),
(434,1497,o),
(111,1190,o),
(111,707,cs),
(111,257,o),
(393,-33,o),
(870,-33,cs)
);
},
{
closed = 1;
nodes = (
(1097,874,l),
(387,844,l),
(365,636,l),
(1074,614,l)
);
}
);
width = 1475;
},
{
layerId = "BA9225F5-135B-4D21-ADB1-4407AF656753";
shapes = (
{
closed = 1;
nodes = (
(1058,-23,o),
(1229,29,o),
(1376,136,c),
(1301,283,l),
(1196,185,o),
(1063,122,o),
(900,122,cs),
(578,122,o),
(340,361,o),
(340,744,cs),
(340,1109,o),
(547,1341,o),
(869,1341,cs),
(1019,1341,o),
(1144,1287,o),
(1265,1194,c),
(1347,1357,l),
(1212,1442,o),
(1060,1487,o),
(891,1487,cs),
(444,1487,o),
(122,1180,o),
(122,715,cs),
(122,272,o),
(417,-23,o),
(868,-23,cs)
);
},
{
closed = 1;
nodes = (
(1054,823,l),
(277,808,l),
(265,676,l),
(1043,665,l)
);
}
);
width = 1468;
}
);
unicode = 1028;
},
{
color = 9;
glyphname = Ecircumflexdotbelow;
layers = (
{
layerId = "A2DAE9BC-C777-495C-976C-8ACFC7C9BBD2";
shapes = (
{
closed = 1;
nodes = (
(767,-445,o),
(813,-402,o),
(813,-339,cs),
(813,-273,o),
(767,-232,o),
(704,-232,cs),
(638,-232,o),
(594,-273,o),
(594,-339,cs),
(594,-402,o),
(638,-445,o),
(704,-445,cs)
);
},
{
closed = 1;
nodes = (
(1058,0,l),
(1086,127,l),
(386,127,l),
(386,700,l),
(943,700,l),
(972,824,l),
(386,824,l),
(386,1338,l),
(1039,1338,l),
(1066,1465,l),
(232,1465,l),
(232,0,l)
);
},
{
closed = 1;
nodes = (
(465,1602,l),
(656,1822,l),
(847,1602,l),
(964,1602,l),
(737,1920,l),
(580,1920,l),
(353,1602,l)
);
}
);
width = 1294;
},
{
layerId = "DCFFE7A7-A818-4955-884B-BB4CE5043B09";
shapes = (
{
closed = 1;
nodes = (
(858,-587,o),
(949,-502,o),
(949,-366,cs),
(949,-231,o),
(858,-143,o),
(718,-143,cs),
(578,-143,o),
(487,-231,o),
(487,-366,cs),
(487,-502,o),
(578,-587,o),
(718,-587,cs)
);
},
{
closed = 1;
nodes = (
(1138,0,l),
(1183,257,l),
(612,257,l),
(612,636,l),
(1020,636,l),
(1058,869,l),
(612,869,l),
(612,1208,l),
(1133,1208,l),
(1178,1465,l),
(161,1465,l),
(161,0,l)
);
},
{
closed = 1;
nodes = (
(576,1602,l),
(683,1799,l),
(790,1602,l),
(1122,1602,l),
(884,1972,l),
(486,1972,l),
(248,1602,l)
);
}
);
width = 1322;
},
{
layerId = "4B50D27E-C53B-49C1-950D-105FFE0A0ACC";
shapes = (
{
closed = 1;
nodes = (
(828,-539,o),
(903,-468,o),
(903,-357,cs),
(903,-245,o),
(828,-173,o),
(713,-173,cs),
(598,-173,o),
(523,-245,o),
(523,-357,cs),
(523,-468,o),
(598,-539,o),
(713,-539,cs)
);
},
{
closed = 1;
nodes = (
(1110,0,l),
(1150,217,l),
(536,217,l),
(536,656,l),
(994,656,l),
(1028,855,l),
(536,855,l),
(536,1248,l),
(1101,1248,l),
(1140,1465,l),
(184,1465,l),
(184,0,l)
);
},
{
closed = 1;
nodes = (
(539,1602,l),
(674,1807,l),
(809,1602,l),
(1069,1602,l),
(835,1954,l),
(517,1954,l),
(283,1602,l)
);
}
);
width = 1312;
},
{
layerId = "BA9225F5-135B-4D21-ADB1-4407AF656753";
shapes = (
{
closed = 1;
nodes = (
(782,-468,o),
(835,-418,o),
(835,-343,cs),
(835,-266,o),
(782,-217,o),
(706,-217,cs),
(628,-217,o),
(576,-266,o),
(576,-343,cs),
(576,-418,o),
(628,-468,o),
(706,-468,cs)
);
},
{
closed = 1;
nodes = (
(1070,0,l),
(1101,157,l),
(423,157,l),
(423,685,l),
(955,685,l),
(985,835,l),
(423,835,l),
(423,1308,l),
(1054,1308,l),
(1084,1465,l),
(219,1465,l),
(219,0,l)
);
},
{
closed = 1;
nodes = (
(483,1602,l),
(660,1818,l),
(837,1602,l),
(990,1602,l),
(761,1928,l),
(564,1928,l),
(335,1602,l)
);
}
);
width = 1298;
}
);
unicode = 7878;
},
{
color = 9;
glyphname = Edotbelow;
layers = (
{
layerId = "A2DAE9BC-C777-495C-976C-8ACFC7C9BBD2";
shapes = (
{
closed = 1;
nodes = (
(767,-445,o),
(813,-402,o),
(813,-339,cs),
(813,-273,o),
(767,-232,o),
(704,-232,cs),
(638,-232,o),
(594,-273,o),
(594,-339,cs),
(594,-402,o),
(638,-445,o),
(704,-445,cs)
);
},
{
closed = 1;
nodes = (
(1055,0,l),
(1083,127,l),
(383,127,l),
(383,700,l),
(940,700,l),
(969,824,l),
(383,824,l),
(383,1338,l),
(1036,1338,l),
(1063,1465,l),
(229,1465,l),
(229,0,l)
);
}
);
width = 1294;
},
{
layerId = "DCFFE7A7-A818-4955-884B-BB4CE5043B09";
shapes = (
{
closed = 1;
nodes = (
(858,-587,o),
(949,-502,o),
(949,-366,cs),
(949,-231,o),
(858,-143,o),
(718,-143,cs),
(578,-143,o),
(487,-231,o),
(487,-366,cs),
(487,-502,o),
(578,-587,o),
(718,-587,cs)
);
},
{
closed = 1;
nodes = (
(1137,0,l),
(1182,257,l),
(611,257,l),
(611,636,l),
(1019,636,l),
(1057,869,l),
(611,869,l),
(611,1208,l),
(1132,1208,l),
(1177,1465,l),
(160,1465,l),
(160,0,l)
);
}
);
width = 1322;
},
{
layerId = "4B50D27E-C53B-49C1-950D-105FFE0A0ACC";
shapes = (
{
closed = 1;
nodes = (
(828,-539,o),
(903,-468,o),
(903,-357,cs),
(903,-245,o),
(828,-173,o),
(713,-173,cs),
(598,-173,o),
(523,-245,o),
(523,-357,cs),
(523,-468,o),
(598,-539,o),
(713,-539,cs)
);
},
{
closed = 1;
nodes = (
(1109,0,l),
(1149,217,l),
(535,217,l),
(535,656,l),
(993,656,l),
(1027,855,l),
(535,855,l),
(535,1248,l),
(1100,1248,l),
(1139,1465,l),
(183,1465,l),
(183,0,l)
);
}
);
width = 1312;
},
{
layerId = "BA9225F5-135B-4D21-ADB1-4407AF656753";
shapes = (
{
closed = 1;
nodes = (
(782,-468,o),
(835,-418,o),
(835,-343,cs),
(835,-266,o),
(782,-217,o),
(706,-217,cs),
(628,-217,o),
(576,-266,o),
(576,-343,cs),
(576,-418,o),
(628,-468,o),
(706,-468,cs)
);
},
{
closed = 1;
nodes = (
(1068,0,l),
(1099,157,l),
(421,157,l),
(421,685,l),
(953,685,l),
(983,835,l),
(421,835,l),
(421,1308,l),
(1052,1308,l),
(1082,1465,l),
(217,1465,l),
(217,0,l)
);
}
);
width = 1298;
}
);
unicode = 7864;
},
{
glyphname = "Ef-cy";
layers = (
{
layerId = "A2DAE9BC-C777-495C-976C-8ACFC7C9BBD2";
shapes = (
{
closed = 1;
nodes = (
(1374,141,o),
(1704,367,o),
(1704,746,cs),
(1704,1104,o),
(1409,1324,o),
(935,1324,cs),
(455,1324,o),
(126,1098,o),
(126,720,cs),
(126,362,o),
(424,141,o),
(896,141,cs)
);
},
{
closed = 1;
nodes = (
(536,242,o),
(287,424,o),
(287,738,cs),
(287,1044,o),
(520,1221,o),
(907,1221,cs),
(1297,1221,o),
(1546,1045,o),
(1546,728,cs),
(1546,418,o),
(1309,242,o),
(927,242,cs)
);
},
{
closed = 1;
nodes = (
(995,-23,l),
(995,1487,l),
(845,1487,l),
(845,-23,l)
);
}
);
width = 1832;
},
{
layerId = "DCFFE7A7-A818-4955-884B-BB4CE5043B09";
shapes = (
{
closed = 1;
nodes = (
(1494,122,o),
(1912,335,o),
(1912,777,cs),
(1912,1147,o),
(1608,1343,o),
(1075,1343,cs),
(516,1343,o),
(104,1129,o),
(104,689,cs),
(104,312,o),
(407,122,o),
(934,122,cs)
);
},
{
closed = 1;
nodes = (
(680,392,o),
(550,489,o),
(550,744,cs),
(550,997,o),
(673,1071,o),
(986,1071,cs),
(1339,1071,o),
(1463,983,o),
(1463,725,cs),
(1463,465,o),
(1339,392,o),
(1034,392,cs)
);
},
{
closed = 1;
nodes = (
(1221,-40,l),
(1221,1504,l),
(798,1504,l),
(798,-40,l)
);
}
);
width = 2017;
},
{
layerId = "4B50D27E-C53B-49C1-950D-105FFE0A0ACC";
shapes = (
{
closed = 1;
nodes = (
(1455,128,o),
(1844,345,o),
(1844,767,cs),
(1844,1133,o),
(1543,1337,o),
(1029,1337,cs),
(496,1337,o),
(111,1119,o),
(111,699,cs),
(111,328,o),
(413,128,o),
(922,128,cs)
);
},
{
closed = 1;
nodes = (
(633,343,o),
(464,468,o),
(464,742,cs),
(464,1012,o),
(623,1120,o),
(960,1120,cs),
(1325,1120,o),
(1490,1003,o),
(1490,726,cs),
(1490,450,o),
(1329,343,o),
(999,343,cs)
);
},
{
closed = 1;
nodes = (
(1147,-34,l),
(1147,1498,l),
(813,1498,l),
(813,-34,l)
);
}
);
width = 1957;
},
{
layerId = "BA9225F5-135B-4D21-ADB1-4407AF656753";
shapes = (
{
closed = 1;
nodes = (
(1394,138,o),
(1739,361,o),
(1739,751,cs),
(1739,1111,o),
(1442,1327,o),
(958,1327,cs),
(465,1327,o),
(122,1103,o),
(122,715,cs),
(122,353,o),
(421,138,o),
(902,138,cs)
);
},
{
closed = 1;
nodes = (
(560,267,o),
(331,435,o),
(331,739,cs),
(331,1036,o),
(546,1196,o),
(920,1196,cs),
(1304,1196,o),
(1532,1034,o),
(1532,727,cs),
(1532,426,o),
(1314,267,o),
(945,267,cs)
);
},
{
closed = 1;
nodes = (
(1033,-26,l),
(1033,1490,l),
(837,1490,l),
(837,-26,l)
);
}
);
width = 1863;
}
);
unicode = 1060;
},
{
glyphname = "Ef-cy.loclBGR";
layers = (
{
layerId = "A2DAE9BC-C777-495C-976C-8ACFC7C9BBD2";
shapes = (
{
closed = 1;
nodes = (
(1451,-13,o),
(1795,282,o),
(1795,744,cs),
(1795,1188,o),
(1477,1478,o),
(975,1478,cs),
(469,1478,o),
(127,1182,o),
(127,722,cs),
(127,276,o),
(447,-13,o),
(945,-13,cs)
);
},
{
closed = 1;
nodes = (
(557,89,o),
(288,340,o),
(288,743,cs),
(288,1128,o),
(537,1375,o),
(946,1375,cs),
(1363,1375,o),
(1635,1124,o),
(1635,722,cs),
(1635,336,o),
(1384,89,o),
(973,89,cs)
);
},
{
closed = 1;
nodes = (
(1037,-246,l),
(1037,1714,l),
(892,1714,l),
(892,-246,l)
);
}
);
width = 1920;
},
{
layerId = "DCFFE7A7-A818-4955-884B-BB4CE5043B09";
shapes = (
{
closed = 1;
nodes = (
(1510,-17,o),
(1921,250,o),
(1921,775,cs),
(1921,1230,o),
(1609,1482,o),
(1064,1482,cs),
(511,1482,o),
(106,1214,o),
(106,691,cs),
(106,229,o),
(421,-17,o),
(959,-17,cs)
);
},
{
closed = 1;
nodes = (
(695,252,o),
(552,403,o),
(552,762,cs),
(552,1066,o),
(690,1210,o),
(988,1210,cs),
(1333,1210,o),
(1473,1065,o),
(1473,706,cs),
(1473,399,o),
(1337,252,o),
(1038,252,cs)
);
},
{
closed = 1;
nodes = (
(1210,-242,l),
(1210,1701,l),
(821,1701,l),
(821,-242,l)
);
}
);
width = 2024;
},
{
layerId = "4B50D27E-C53B-49C1-950D-105FFE0A0ACC";
shapes = (
{
closed = 1;
nodes = (
(1491,-16,o),
(1880,260,o),
(1880,765,cs),
(1880,1216,o),
(1566,1481,o),
(1035,1481,cs),
(497,1481,o),
(113,1204,o),
(113,701,cs),
(113,244,o),
(429,-16,o),
(954,-16,cs)
);
},
{
closed = 1;
nodes = (
(650,199,o),
(466,382,o),
(466,756,cs),
(466,1086,o),
(640,1264,o),
(974,1264,cs),
(1343,1264,o),
(1525,1084,o),
(1525,711,cs),
(1525,378,o),
(1352,199,o),
(1017,199,cs)
);
},
{
closed = 1;
nodes = (
(1154,-243,l),
(1154,1705,l),
(844,1705,l),
(844,-243,l)
);
}
);
width = 1990;
},
{
layerId = "BA9225F5-135B-4D21-ADB1-4407AF656753";
shapes = (
{
closed = 1;
nodes = (
(1461,-14,o),
(1816,276,o),
(1816,749,cs),
(1816,1195,o),
(1499,1479,o),
(990,1479,cs),
(476,1479,o),
(123,1187,o),
(123,717,cs),
(123,268,o),
(442,-14,o),
(947,-14,cs)
);
},
{
closed = 1;
nodes = (
(580,116,o),
(332,350,o),
(332,746,cs),
(332,1117,o),
(563,1347,o),
(953,1347,cs),
(1358,1347,o),
(1607,1114,o),
(1607,719,cs),
(1607,346,o),
(1376,116,o),
(984,116,cs)
);
},
{
closed = 1;
nodes = (
(1066,-245,l),
(1066,1712,l),
(880,1712,l),
(880,-245,l)
);
}
);
width = 1937;
}
);
},
{
glyphname = Egrave;
layers = (
{
layerId = "A2DAE9BC-C777-495C-976C-8ACFC7C9BBD2";
shapes = (
{
alignment = -1;
pos = (3,0);
ref = E;
},
{
alignment = -1;
pos = (149,0);
ref = grave.cap;
}
);
width = 1219;
},
{
background = {
shapes = (
{
closed = 1;
nodes = (
(448,0,l),
(462,73,l),
(361,66,o),
(273,61,o),
(173,59,c),
(170,140,o),
(170,215,o),
(170,297,c),
(243,296,o),
(319,295,o),
(394,290,c),
(408,361,l),
(329,355,o),
(249,354,o),
(170,353,c),
(170,423,o),
(171,497,o),
(173,568,c),
(259,566,o),
(352,562,o),
(436,555,c),
(449,630,l),
(391,628,o),
(330,627,o),
(272,627,cs),
(210,627,o),
(142,628,o),
(79,630,c),
(82,529,o),
(84,416,o),
(84,314,cs),
(84,208,o),
(82,109,o),
(79,0,c)
);
}
);
};
layerId = "DCFFE7A7-A818-4955-884B-BB4CE5043B09";
shapes = (
{
alignment = -1;
pos = (1,0);
ref = E;
},
{
alignment = -1;
pos = (56,0);
ref = grave.cap;
}
);
width = 1301;
},
{
layerId = "4B50D27E-C53B-49C1-950D-105FFE0A0ACC";
shapes = (
{
alignment = -1;
pos = (1,0);
ref = E;
},
{
alignment = -1;
pos = (87,0);
ref = grave.cap;
}
);
width = 1273;
},
{
layerId = "BA9225F5-135B-4D21-ADB1-4407AF656753";
shapes = (
{
alignment = -1;
pos = (2,0);
ref = E;
},
{
alignment = -1;
pos = (133,0);
ref = grave.cap;
}
);
width = 1232;
}
);
rightKerningGroup = _E_Left;
unicode = 200;
},
{
color = 9;
glyphname = Ehookabove;
layers = (
{
layerId = "A2DAE9BC-C777-495C-976C-8ACFC7C9BBD2";
shapes = (
{
closed = 1;
nodes = (
(768,1552,l),
(771,1725,l),
(705,1668,l),
(876,1670,o),
(983,1747,o),
(983,1853,cs),
(983,1951,o),
(887,2031,o),
(731,2031,cs),
(657,2031,o),
(549,2012,o),
(472,1931,c),
(523,1868,l),
(563,1915,o),
(630,1938,o),
(702,1938,cs),
(790,1938,o),
(843,1897,o),
(843,1837,cs),
(843,1772,o),
(768,1728,o),
(638,1727,c),
(642,1552,l)
);
},
{
closed = 1;
nodes = (
(1055,0,l),
(1083,127,l),
(383,127,l),
(383,700,l),
(940,700,l),
(969,824,l),
(383,824,l),
(383,1338,l),
(1036,1338,l),
(1063,1465,l),
(229,1465,l),
(229,0,l)
);
}
);
width = 1294;
},
{
layerId = "DCFFE7A7-A818-4955-884B-BB4CE5043B09";
shapes = (
{
closed = 1;
nodes = (
(864,1559,l),
(880,1780,l),
(728,1647,l),
(947,1662,o),
(1062,1778,o),
(1062,1900,cs),
(1062,2018,o),
(945,2132,o),
(725,2132,cs),
(619,2132,o),
(502,2103,o),
(407,2045,c),
(499,1884,l),
(547,1908,o),
(598,1917,o),
(637,1917,cs),
(697,1917,o),
(725,1898,o),
(725,1855,cs),
(725,1809,o),
(657,1788,o),
(566,1782,c),
(582,1559,l)
);
},
{
closed = 1;
nodes = (
(1137,0,l),
(1182,257,l),
(611,257,l),
(611,636,l),
(1019,636,l),
(1057,869,l),
(611,869,l),
(611,1208,l),
(1132,1208,l),
(1177,1465,l),
(160,1465,l),
(160,0,l)
);
}
);
width = 1322;
},
{
layerId = "4B50D27E-C53B-49C1-950D-105FFE0A0ACC";
shapes = (
{
closed = 1;
nodes = (
(832,1557,l),
(844,1762,l),
(720,1654,l),
(923,1664,o),
(1036,1768,o),
(1036,1884,cs),
(1036,1996,o),
(925,2098,o),
(727,2098,cs),
(631,2098,o),
(518,2073,o),
(429,2007,c),
(507,1878,l),
(552,1910,o),
(608,1924,o),
(659,1924,cs),
(728,1924,o),
(764,1898,o),
(764,1849,cs),
(764,1797,o),
(694,1768,o),
(590,1764,c),
(602,1557,l)
);
},
{
closed = 1;
nodes = (
(1109,0,l),
(1149,217,l),
(535,217,l),
(535,656,l),
(993,656,l),
(1027,855,l),
(535,855,l),
(535,1248,l),
(1100,1248,l),
(1139,1465,l),
(183,1465,l),
(183,0,l)
);
}
);
width = 1312;
},
{
layerId = "BA9225F5-135B-4D21-ADB1-4407AF656753";
shapes = (
{
closed = 1;
nodes = (
(784,1553,l),
(789,1734,l),
(709,1664,l),
(888,1668,o),
(996,1752,o),
(996,1861,cs),
(996,1962,o),
(896,2048,o),
(730,2048,cs),
(650,2048,o),
(541,2027,o),
(461,1950,c),
(519,1870,l),
(560,1914,o),
(624,1934,o),
(691,1934,cs),
(774,1934,o),
(823,1897,o),
(823,1840,cs),
(823,1778,o),
(749,1738,o),
(626,1736,c),
(632,1553,l)
);
},
{
closed = 1;
nodes = (
(1068,0,l),
(1099,157,l),
(421,157,l),
(421,685,l),
(953,685,l),
(983,835,l),
(421,835,l),
(421,1308,l),
(1052,1308,l),
(1082,1465,l),
(217,1465,l),
(217,0,l)
);
}
);
width = 1298;
}
);
unicode = 7866;
},
{
glyphname = "El-cy";
layers = (
{
layerId = "A2DAE9BC-C777-495C-976C-8ACFC7C9BBD2";
shapes = (
{
closed = 1;
nodes = (
(133,-20,l),
(474,88,o),
(565,475,o),
(598,1465,c),
(467,1465,l),
(431,650,o),
(358,208,o),
(96,86,c)
);
},
{
closed = 1;
nodes = (
(1345,0,l),
(1345,1465,l),
(1191,1465,l),
(1191,0,l)
);
},
{
closed = 1;
nodes = (
(1268,1341,l),
(1268,1465,l),
(535,1465,l),
(538,1341,l)
);
}
);
width = 1589;
},
{
layerId = "DCFFE7A7-A818-4955-884B-BB4CE5043B09";
shapes = (
{
closed = 1;
nodes = (
(111,-30,l),
(627,-40,o),
(654,124,o),
(712,1465,c),
(360,1465,l),
(342,571,o),
(297,250,o),
(37,242,c)
);
},
{
closed = 1;
nodes = (
(1449,0,l),
(1449,1465,l),
(1004,1465,l),
(1004,0,l)
);
},
{
closed = 1;
nodes = (
(1224,1139,l),
(1224,1465,l),
(528,1465,l),
(560,1139,l)
);
}
);
width = 1625;
},
{
layerId = "4B50D27E-C53B-49C1-950D-105FFE0A0ACC";
shapes = (
{
closed = 1;
nodes = (
(118,-27,l),
(577,2,o),
(625,238,o),
(675,1465,c),
(395,1465,l),
(371,597,o),
(317,236,o),
(56,191,c)
);
},
{
closed = 1;
nodes = (
(1415,0,l),
(1415,1465,l),
(1065,1465,l),
(1065,0,l)
);
},
{
closed = 1;
nodes = (
(1238,1205,l),
(1238,1465,l),
(530,1465,l),
(553,1205,l)
);
}
);
width = 1613;
},
{
layerId = "BA9225F5-135B-4D21-ADB1-4407AF656753";
shapes = (
{
closed = 1;
nodes = (
(129,-22,l),
(500,66,o),
(580,416,o),
(617,1465,c),
(449,1465,l),
(416,637,o),
(348,215,o),
(86,112,c)
);
},
{
closed = 1;
nodes = (
(1362,0,l),
(1362,1465,l),
(1159,1465,l),
(1159,0,l)
);
},
{
closed = 1;
nodes = (
(1260,1307,l),
(1260,1465,l),
(534,1465,l),
(542,1307,l)
);
}
);
width = 1595;
}
);
leftKerningGroup = "El-cy";
unicode = 1051;
},
{
glyphname = "El-cy.loclBGR";
layers = (
{
layerId = "A2DAE9BC-C777-495C-976C-8ACFC7C9BBD2";
shapes = (
{
closed = 1;
nodes = (
(261,0,l),
(782,1421,l),
(703,1421,l),
(1246,0,l),
(1413,0,l),
(836,1464,l),
(681,1464,l),
(98,0,l)
);
}
);
width = 1508;
},
{
layerId = "DCFFE7A7-A818-4955-884B-BB4CE5043B09";
shapes = (
{
closed = 1;
nodes = (
(464,0,l),
(813,1334,l),
(648,1334,l),
(1057,0,l),
(1553,0,l),
(1025,1466,l),
(541,1466,l),
(20,0,l)
);
}
);
width = 1575;
},
{
layerId = "4B50D27E-C53B-49C1-950D-105FFE0A0ACC";
shapes = (
{
closed = 1;
nodes = (
(398,0,l),
(803,1362,l),
(666,1362,l),
(1119,0,l),
(1507,0,l),
(963,1465,l),
(586,1465,l),
(45,0,l)
);
}
);
width = 1553;
},
{
layerId = "BA9225F5-135B-4D21-ADB1-4407AF656753";
shapes = (
{
closed = 1;
nodes = (
(295,0,l),
(787,1406,l),
(694,1406,l),
(1214,0,l),
(1436,0,l),
(868,1464,l),
(657,1464,l),
(85,0,l)
);
}
);
width = 1519;
}
);
rightKerningGroup = "Abreve-cy1";
},
{
color = 8;
glyphname = "Eldescender-cy";
layers = (
{
layerId = "A2DAE9BC-C777-495C-976C-8ACFC7C9BBD2";
shapes = (
{
closed = 1;
nodes = (
(133,-20,l),
(474,88,o),
(565,475,o),
(598,1465,c),
(467,1465,l),
(431,650,o),
(358,208,o),
(96,86,c)
);
},
{
closed = 1;
nodes = (
(1345,0,l),
(1345,1465,l),
(1191,1465,l),
(1191,0,l)
);
},
{
closed = 1;
nodes = (
(1268,1341,l),
(1268,1465,l),
(535,1465,l),
(538,1341,l)
);
},
{
closed = 1;
nodes = (
(1479,0,l),
(1551,124,l),
(1292,124,l),
(1292,0,l)
);
},
{
closed = 1;
nodes = (
(1551,-398,l),
(1551,124,l),
(1395,124,l),
(1429,-398,l)
);
}
);
width = 1675;
},
{
layerId = "DCFFE7A7-A818-4955-884B-BB4CE5043B09";
shapes = (
{
closed = 1;
nodes = (
(111,-30,l),
(627,-40,o),
(654,124,o),
(712,1465,c),
(360,1465,l),
(342,571,o),
(297,250,o),
(37,242,c)
);
},
{
closed = 1;
nodes = (
(1449,0,l),
(1449,1465,l),
(1004,1465,l),
(1004,0,l)
);
},
{
closed = 1;
nodes = (
(1224,1139,l),
(1224,1465,l),
(528,1465,l),
(560,1139,l)
);
},
{
closed = 1;
nodes = (
(1492,0,l),
(1689,371,l),
(1359,371,l),
(1359,0,l)
);
},
{
closed = 1;
nodes = (
(1689,-381,l),
(1689,371,l),
(1288,371,l),
(1370,-381,l)
);
}
);
width = 1730;
},
{
layerId = "4B50D27E-C53B-49C1-950D-105FFE0A0ACC";
shapes = (
{
closed = 1;
nodes = (
(118,-27,l),
(577,2,o),
(625,238,o),
(675,1465,c),
(395,1465,l),
(371,597,o),
(317,236,o),
(56,191,c)
);
},
{
closed = 1;
nodes = (
(1415,0,l),
(1415,1465,l),
(1065,1465,l),
(1065,0,l)
);
},
{
closed = 1;
nodes = (
(1238,1205,l),
(1238,1465,l),
(530,1465,l),
(553,1205,l)
);
},
{
closed = 1;
nodes = (
(1488,0,l),
(1644,291,l),
(1337,291,l),
(1337,0,l)
);
},
{
closed = 1;
nodes = (
(1644,-387,l),
(1644,291,l),
(1323,291,l),
(1389,-387,l)
);
}
);
width = 1712;
},
{
layerId = "BA9225F5-135B-4D21-ADB1-4407AF656753";
shapes = (
{
closed = 1;
nodes = (
(129,-22,l),
(500,66,o),
(580,416,o),
(617,1465,c),
(449,1465,l),
(416,637,o),
(348,215,o),
(86,112,c)
);
},
{
closed = 1;
nodes = (
(1362,0,l),
(1362,1465,l),
(1159,1465,l),
(1159,0,l)
);
},
{
closed = 1;
nodes = (
(1260,1307,l),
(1260,1465,l),
(534,1465,l),
(542,1307,l)
);
},
{
closed = 1;
nodes = (
(1481,0,l),
(1574,166,l),
(1303,166,l),
(1303,0,l)
);
},
{
closed = 1;
nodes = (
(1574,-395,l),
(1574,166,l),
(1377,166,l),
(1419,-395,l)
);
}
);
width = 1684;
}
);
leftKerningGroup = "El-cy";
rightKerningGroup = "Tse-cy1";
unicode = 1326;
},
{
glyphname = "Elhook-cy";
layers = (
{
layerId = "A2DAE9BC-C777-495C-976C-8ACFC7C9BBD2";
shapes = (
{
closed = 1;
nodes = (
(926,-454,l),
(1174,-385,o),
(1341,-231,o),
(1341,104,cs),
(1341,1465,l),
(1186,1465,l),
(1186,104,ls),
(1186,-169,o),
(1079,-292,o),
(889,-362,c)
);
},
{
closed = 1;
nodes = (
(100,-19,l),
(446,-19,o),
(531,475,o),
(576,1465,c),
(445,1465,l),
(397,646,o),
(329,103,o),
(67,88,c)
);
},
{
closed = 1;
nodes = (
(1268,1341,l),
(1268,1465,l),
(509,1465,l),
(512,1341,l)
);
}
);
width = 1586;
},
{
layerId = "DCFFE7A7-A818-4955-884B-BB4CE5043B09";
shapes = (
{
closed = 1;
nodes = (
(871,-492,l),
(1237,-407,o),
(1449,-284,o),
(1449,212,cs),
(1449,1465,l),
(1003,1465,l),
(1003,212,ls),
(1003,-119,o),
(934,-191,o),
(784,-273,c)
);
},
{
closed = 1;
nodes = (
(114,-29,l),
(629,-29,o),
(658,124,o),
(714,1465,c),
(362,1465,l),
(346,571,o),
(299,260,o),
(41,241,c)
);
},
{
closed = 1;
nodes = (
(1224,1139,l),
(1224,1465,l),
(531,1465,l),
(562,1139,l)
);
}
);
width = 1624;
},
{
layerId = "4B50D27E-C53B-49C1-950D-105FFE0A0ACC";
shapes = (
{
closed = 1;
nodes = (
(889,-480,l),
(1216,-400,o),
(1414,-267,o),
(1414,177,cs),
(1414,1465,l),
(1063,1465,l),
(1063,177,ls),
(1063,-135,o),
(981,-224,o),
(818,-302,c)
);
},
{
closed = 1;
nodes = (
(109,-26,l),
(569,-26,o),
(616,238,o),
(669,1465,c),
(389,1465,l),
(362,595,o),
(309,209,o),
(49,191,c)
);
},
{
closed = 1;
nodes = (
(1238,1205,l),
(1238,1465,l),
(524,1465,l),
(546,1205,l)
);
}
);
width = 1612;
},
{
layerId = "BA9225F5-135B-4D21-ADB1-4407AF656753";
shapes = (
{
closed = 1;
nodes = (
(917,-460,l),
(1184,-389,o),
(1359,-240,o),
(1359,122,cs),
(1359,1465,l),
(1155,1465,l),
(1155,122,ls),
(1155,-160,o),
(1054,-275,o),
(871,-347,c)
);
},
{
closed = 1;
nodes = (
(102,-21,l),
(477,-21,o),
(552,416,o),
(599,1465,c),
(431,1465,l),
(388,633,o),
(324,129,o),
(62,114,c)
);
},
{
closed = 1;
nodes = (
(1260,1307,l),
(1260,1465,l),
(513,1465,l),
(520,1307,l)
);
}
);
width = 1592;
}
);
rightKerningGroup = "I-cy1";
unicode = 1298;
},
{
glyphname = "Eltail-cy";
layers = (
{
layerId = "A2DAE9BC-C777-495C-976C-8ACFC7C9BBD2";
shapes = (
{
closed = 1;
nodes = (
(133,-20,l),
(474,88,o),
(565,475,o),
(598,1465,c),
(467,1465,l),
(431,650,o),
(358,208,o),
(96,86,c)
);
},
{
closed = 1;
nodes = (
(1345,0,l),
(1345,1465,l),
(1191,1465,l),
(1191,0,l)
);
},
{
closed = 1;
nodes = (
(1268,1341,l),
(1268,1465,l),
(535,1465,l),
(538,1341,l)
);
},
{
closed = 1;
nodes = (
(1504,0,l),
(1570,117,l),
(1316,117,l),
(1316,0,l)
);
},
{
closed = 1;
nodes = (
(1328,-433,l),
(1570,117,l),
(1413,117,l),
(1211,-433,l)
);
}
);
width = 1641;
},
{
layerId = "DCFFE7A7-A818-4955-884B-BB4CE5043B09";
shapes = (
{
closed = 1;
nodes = (
(111,-30,l),
(627,-40,o),
(654,124,o),
(712,1465,c),
(360,1465,l),
(342,571,o),
(297,250,o),
(37,242,c)
);
},
{
closed = 1;
nodes = (
(1449,0,l),
(1449,1465,l),
(1004,1465,l),
(1004,0,l)
);
},
{
closed = 1;
nodes = (
(1224,1139,l),
(1224,1465,l),
(528,1465,l),
(560,1139,l)
);
},
{
closed = 1;
nodes = (
(1540,0,l),
(1731,291,l),
(1363,291,l),
(1363,0,l)
);
},
{
closed = 1;
nodes = (
(1446,-435,l),
(1731,291,l),
(1254,291,l),
(1107,-435,l)
);
}
);
width = 1702;
},
{
layerId = "4B50D27E-C53B-49C1-950D-105FFE0A0ACC";
shapes = (
{
closed = 1;
nodes = (
(118,-27,l),
(577,2,o),
(625,238,o),
(675,1465,c),
(395,1465,l),
(371,597,o),
(317,236,o),
(56,191,c)
);
},
{
closed = 1;
nodes = (
(1415,0,l),
(1415,1465,l),
(1065,1465,l),
(1065,0,l)
);
},
{
closed = 1;
nodes = (
(1238,1205,l),
(1238,1465,l),
(530,1465,l),
(553,1205,l)
);
},
{
closed = 1;
nodes = (
(1528,0,l),
(1679,234,l),
(1348,234,l),
(1348,0,l)
);
},
{
closed = 1;
nodes = (
(1408,-434,l),
(1679,234,l),
(1306,234,l),
(1141,-434,l)
);
}
);
width = 1682;
},
{
layerId = "BA9225F5-135B-4D21-ADB1-4407AF656753";
shapes = (
{
closed = 1;
nodes = (
(129,-22,l),
(500,66,o),
(580,416,o),
(617,1465,c),
(449,1465,l),
(416,637,o),
(348,215,o),
(86,112,c)
);
},
{
closed = 1;
nodes = (
(1362,0,l),
(1362,1465,l),
(1159,1465,l),
(1159,0,l)
);
},
{
closed = 1;
nodes = (
(1260,1307,l),
(1260,1465,l),
(534,1465,l),
(542,1307,l)
);
},
{
closed = 1;
nodes = (
(1510,0,l),
(1597,146,l),
(1324,146,l),
(1324,0,l)
);
},
{
closed = 1;
nodes = (
(1348,-433,l),
(1597,146,l),
(1386,146,l),
(1193,-433,l)
);
}
);
width = 1651;
}
);
leftKerningGroup = "El-cy";
rightKerningGroup = "Eltail-cy";
unicode = 1221;
},
{
glyphname = "Emtail-cy";
layers = (
{
layerId = "A2DAE9BC-C777-495C-976C-8ACFC7C9BBD2";
shapes = (
{
closed = 1;
nodes = (
(387,0,l),
(448,1465,l),
(296,1465,l),
(198,0,l)
);
},
{
closed = 1;
nodes = (
(1981,0,l),
(2057,131,l),
(1792,131,l),
(1792,0,l)
);
},
{
closed = 1;
nodes = (
(1813,-433,l),
(2057,131,l),
(1872,131,l),
(1675,-433,l)
);
},
{
closed = 1;
nodes = (
(343,0,l),
(428,1148,l),
(436,1341,l),
(453,1341,l),
(512,1154,l),
(948,30,l),
(1083,30,l),
(1515,1156,l),
(1572,1341,l),
(1590,1341,l),
(1600,1146,l),
(1684,0,l),
(1850,0,l),
(1741,1465,l),
(1482,1465,l),
(1090,439,l),
(1037,272,l),
(1017,272,l),
(961,440,l),
(564,1465,l),
(318,1465,l),
(210,0,l)
);
}
);
width = 2099;
},
{
layerId = "DCFFE7A7-A818-4955-884B-BB4CE5043B09";
shapes = (
{
closed = 1;
nodes = (
(518,0,l),
(562,1465,l),
(250,1465,l),
(149,0,l)
);
},
{
closed = 1;
nodes = (
(2071,0,l),
(2271,303,l),
(1892,303,l),
(1892,0,l)
);
},
{
closed = 1;
nodes = (
(1982,-434,l),
(2271,303,l),
(1771,303,l),
(1627,-434,l)
);
},
{
closed = 1;
nodes = (
(509,0,l),
(536,885,l),
(534,1181,l),
(561,1181,l),
(627,889,l),
(834,29,l),
(1249,29,l),
(1457,891,l),
(1521,1181,l),
(1548,1181,l),
(1547,883,l),
(1575,0,l),
(2074,0,l),
(1954,1465,l),
(1277,1465,l),
(1150,868,l),
(1084,546,l),
(1064,546,l),
(1007,867,l),
(879,1465,l),
(252,1465,l),
(133,0,l)
);
}
);
width = 2221;
},
{
layerId = "4B50D27E-C53B-49C1-950D-105FFE0A0ACC";
shapes = (
{
closed = 1;
nodes = (
(474,0,l),
(524,1465,l),
(265,1465,l),
(165,0,l)
);
},
{
closed = 1;
nodes = (
(2041,0,l),
(2199,245,l),
(1858,245,l),
(1858,0,l)
);
},
{
closed = 1;
nodes = (
(1926,-434,l),
(2199,245,l),
(1805,245,l),
(1643,-434,l)
);
},
{
closed = 1;
nodes = (
(453,0,l),
(500,973,l),
(501,1234,l),
(525,1234,l),
(589,977,l),
(872,29,l),
(1193,29,l),
(1476,979,l),
(1538,1234,l),
(1562,1234,l),
(1565,971,l),
(1611,0,l),
(1999,0,l),
(1883,1465,l),
(1345,1465,l),
(1130,725,l),
(1068,454,l),
(1048,454,l),
(991,725,l),
(774,1465,l),
(274,1465,l),
(159,0,l)
);
}
);
width = 2180;
},
{
layerId = "BA9225F5-135B-4D21-ADB1-4407AF656753";
shapes = (
{
closed = 1;
nodes = (
(409,0,l),
(467,1465,l),
(288,1465,l),
(190,0,l)
);
},
{
closed = 1;
nodes = (
(1996,0,l),
(2092,159,l),
(1808,159,l),
(1808,0,l)
);
},
{
closed = 1;
nodes = (
(1841,-433,l),
(2092,159,l),
(1855,159,l),
(1667,-433,l)
);
},
{
closed = 1;
nodes = (
(370,0,l),
(446,1104,l),
(452,1314,l),
(471,1314,l),
(531,1110,l),
(929,30,l),
(1110,30,l),
(1505,1112,l),
(1563,1314,l),
(1583,1314,l),
(1591,1102,l),
(1666,0,l),
(1887,0,l),
(1776,1465,l),
(1448,1465,l),
(1100,510,l),
(1045,317,l),
(1025,317,l),
(968,511,l),
(616,1465,l),
(307,1465,l),
(197,0,l)
);
}
);
width = 2119;
}
);
unicode = 1229;
},
{
color = 8;
glyphname = "EnLeftHook-cy";
layers = (
{
layerId = "A2DAE9BC-C777-495C-976C-8ACFC7C9BBD2";
shapes = (
{
closed = 1;
nodes = (
(310,104,ls),
(310,-169,o),
(204,-292,o),
(14,-362,c),
(51,-454,l),
(300,-385,o),
(466,-231,o),
(466,104,cs),
(466,1465,l),
(310,1465,l)
);
},
{
closed = 1;
nodes = (
(1550,0,l),
(1550,1465,l),
(1395,1465,l),
(1395,0,l)
);
},
{
closed = 1;
nodes = (
(1493,681,l),
(1493,803,l),
(363,803,l),
(363,681,l)
);
}
);
width = 1797;
},
{
layerId = "DCFFE7A7-A818-4955-884B-BB4CE5043B09";
shapes = (
{
closed = 1;
nodes = (
(209,212,ls),
(209,-119,o),
(143,-191,o),
(-8,-273,c),
(76,-492,l),
(444,-407,o),
(657,-284,o),
(657,212,cs),
(657,1465,l),
(209,1465,l)
);
},
{
closed = 1;
nodes = (
(1609,0,l),
(1609,1465,l),
(1163,1465,l),
(1163,0,l)
);
},
{
closed = 1;
nodes = (
(1400,572,l),
(1400,910,l),
(335,910,l),
(335,572,l)
);
}
);
width = 1780;
},
{
layerId = "4B50D27E-C53B-49C1-950D-105FFE0A0ACC";
shapes = (
{
closed = 1;
nodes = (
(242,177,ls),
(242,-135,o),
(163,-224,o),
(-1,-302,c),
(68,-480,l),
(397,-400,o),
(595,-267,o),
(595,177,cs),
(595,1465,l),
(242,1465,l)
);
},
{
closed = 1;
nodes = (
(1590,0,l),
(1590,1465,l),
(1239,1465,l),
(1239,0,l)
);
},
{
closed = 1;
nodes = (
(1430,607,l),
(1430,875,l),
(344,875,l),
(344,607,l)
);
}
);
width = 1786;
},
{
layerId = "BA9225F5-135B-4D21-ADB1-4407AF656753";
shapes = (
{
closed = 1;
nodes = (
(293,122,ls),
(293,-160,o),
(194,-275,o),
(10,-347,c),
(55,-460,l),
(324,-389,o),
(498,-240,o),
(498,122,cs),
(498,1465,l),
(293,1465,l)
);
},
{
closed = 1;
nodes = (
(1560,0,l),
(1560,1465,l),
(1356,1465,l),
(1356,0,l)
);
},
{
closed = 1;
nodes = (
(1477,662,l),
(1477,821,l),
(358,821,l),
(358,662,l)
);
}
);
width = 1794;
}
);
leftKerningGroup = "I-cy";
unicode = 1320;
},
{
glyphname = "Endescender-cy";
layers = (
{
layerId = "A2DAE9BC-C777-495C-976C-8ACFC7C9BBD2";
shapes = (
{
closed = 1;
nodes = (
(1462,0,l),
(1462,1465,l),
(1309,1465,l),
(1309,0,l)
);
},
{
closed = 1;
nodes = (
(402,0,l),
(402,1465,l),
(245,1465,l),
(245,0,l)
);
},
{
closed = 1;
nodes = (
(1407,681,l),
(1407,806,l),
(296,806,l),
(296,681,l)
);
},
{
closed = 1;
nodes = (
(1596,0,l),
(1670,124,l),
(1409,124,l),
(1409,0,l)
);
},
{
closed = 1;
nodes = (
(1670,-398,l),
(1670,124,l),
(1512,124,l),
(1546,-398,l)
);
}
);
width = 1793;
},
{
layerId = "DCFFE7A7-A818-4955-884B-BB4CE5043B09";
shapes = (
{
closed = 1;
nodes = (
(1576,0,l),
(1576,1465,l),
(1128,1465,l),
(1128,0,l)
);
},
{
closed = 1;
nodes = (
(624,0,l),
(624,1465,l),
(174,1465,l),
(174,0,l)
);
},
{
closed = 1;
nodes = (
(1367,572,l),
(1367,913,l),
(300,913,l),
(300,572,l)
);
},
{
closed = 1;
nodes = (
(1616,0,l),
(1814,371,l),
(1483,371,l),
(1483,0,l)
);
},
{
closed = 1;
nodes = (
(1814,-381,l),
(1814,371,l),
(1411,371,l),
(1493,-381,l)
);
}
);
width = 1858;
},
{
layerId = "4B50D27E-C53B-49C1-950D-105FFE0A0ACC";
shapes = (
{
closed = 1;
nodes = (
(1539,0,l),
(1539,1465,l),
(1187,1465,l),
(1187,0,l)
);
},
{
closed = 1;
nodes = (
(552,0,l),
(552,1465,l),
(197,1465,l),
(197,0,l)
);
},
{
closed = 1;
nodes = (
(1380,607,l),
(1380,878,l),
(299,878,l),
(299,607,l)
);
},
{
closed = 1;
nodes = (
(1609,0,l),
(1767,291,l),
(1459,291,l),
(1459,0,l)
);
},
{
closed = 1;
nodes = (
(1767,-387,l),
(1767,291,l),
(1444,291,l),
(1510,-387,l)
);
}
);
width = 1837;
},
{
layerId = "BA9225F5-135B-4D21-ADB1-4407AF656753";
shapes = (
{
closed = 1;
nodes = (
(1481,0,l),
(1481,1465,l),
(1278,1465,l),
(1278,0,l)
);
},
{
closed = 1;
nodes = (
(439,0,l),
(439,1465,l),
(233,1465,l),
(233,0,l)
);
},
{
closed = 1;
nodes = (
(1400,662,l),
(1400,824,l),
(297,824,l),
(297,662,l)
);
},
{
closed = 1;
nodes = (
(1599,0,l),
(1694,166,l),
(1421,166,l),
(1421,0,l)
);
},
{
closed = 1;
nodes = (
(1694,-395,l),
(1694,166,l),
(1495,166,l),
(1537,-395,l)
);
}
);
width = 1804;
}
);
leftKerningGroup = "Tse-cy";
rightKerningGroup = "Tse-cy1";
unicode = 1186;
},
{
color = (153, 155, 255, 255);
glyphname = Eng;
layers = (
{
layerId = "A2DAE9BC-C777-495C-976C-8ACFC7C9BBD2";
shapes = (
{
closed = 1;
nodes = (
(1084,-560,l),
(1341,-409,o),
(1453,-176,o),
(1453,79,cs),
(1453,203,l),
(1314,203,l),
(1314,69,ls),
(1314,-121,o),
(1231,-319,o),
(1020,-484,c)
);
},
{
closed = 1;
nodes = (
(360,0,l),
(360,1136,l),
(345,1334,l),
(365,1334,l),
(461,1169,l),
(1326,0,l),
(1414,0,l),
(1453,79,l),
(1453,1465,l),
(1314,1465,l),
(1314,464,l),
(1328,271,l),
(1308,271,l),
(1211,428,l),
(438,1465,l),
(221,1465,l),
(221,0,l)
);
}
);
width = 1673;
},
{
layerId = "DCFFE7A7-A818-4955-884B-BB4CE5043B09";
shapes = (
{
closed = 1;
nodes = (
(1091,-556,l),
(1505,-410,o),
(1592,-119,o),
(1592,186,cs),
(1592,460,l),
(1249,460,l),
(1249,75,ls),
(1249,-117,o),
(1091,-288,o),
(963,-395,c)
);
},
{
closed = 1;
nodes = (
(505,0,l),
(505,855,l),
(496,1101,l),
(516,1101,l),
(625,872,l),
(1100,0,l),
(1469,0,l),
(1592,186,l),
(1592,1465,l),
(1249,1465,l),
(1249,819,l),
(1258,548,l),
(1238,548,l),
(1123,790,l),
(762,1465,l),
(162,1465,l),
(162,0,l)
);
}
);
width = 1754;
},
{
layerId = "4B50D27E-C53B-49C1-950D-105FFE0A0ACC";
shapes = (
{
closed = 1;
nodes = (
(1089,-557,l),
(1450,-410,o),
(1546,-138,o),
(1546,150,cs),
(1546,374,l),
(1271,374,l),
(1271,73,ls),
(1271,-118,o),
(1137,-298,o),
(982,-425,c)
);
},
{
closed = 1;
nodes = (
(457,0,l),
(457,949,l),
(446,1179,l),
(466,1179,l),
(570,971,l),
(1175,0,l),
(1451,0,l),
(1546,150,l),
(1546,1465,l),
(1271,1465,l),
(1271,701,l),
(1281,456,l),
(1261,456,l),
(1152,669,l),
(654,1465,l),
(182,1465,l),
(182,0,l)
);
}
);
width = 1727;
},
{
layerId = "BA9225F5-135B-4D21-ADB1-4407AF656753";
shapes = (
{
closed = 1;
nodes = (
(1085,-559,l),
(1368,-409,o),
(1476,-166,o),
(1476,97,cs),
(1476,246,l),
(1303,246,l),
(1303,70,ls),
(1303,-120,o),
(1207,-314,o),
(1010,-469,c)
);
},
{
closed = 1;
nodes = (
(384,0,l),
(384,1089,l),
(370,1295,l),
(390,1295,l),
(488,1119,l),
(1288,0,l),
(1423,0,l),
(1476,97,l),
(1476,1465,l),
(1303,1465,l),
(1303,523,l),
(1316,317,l),
(1296,317,l),
(1196,488,l),
(492,1465,l),
(211,1465,l),
(211,0,l)
);
}
);
width = 1686;
}
);
unicode = 330;
},
{
glyphname = "Enghe-cy";
layers = (
{
layerId = "A2DAE9BC-C777-495C-976C-8ACFC7C9BBD2";
shapes = (
{
closed = 1;
nodes = (
(1402,0,l),
(1402,1465,l),
(1248,1465,l),
(1248,0,l)
);
},
{
closed = 1;
nodes = (
(402,0,l),
(402,1465,l),
(245,1465,l),
(245,0,l)
);
},
{
closed = 1;
nodes = (
(1347,681,l),
(1347,803,l),
(296,803,l),
(296,681,l)
);
},
{
closed = 1;
nodes = (
(1988,1340,l),
(1988,1465,l),
(1321,1465,l),
(1321,1340,l)
);
}
);
width = 2057;
},
{
layerId = "DCFFE7A7-A818-4955-884B-BB4CE5043B09";
shapes = (
{
closed = 1;
nodes = (
(1501,0,l),
(1501,1465,l),
(1067,1465,l),
(1067,0,l)
);
},
{
closed = 1;
nodes = (
(605,0,l),
(605,1465,l),
(174,1465,l),
(174,0,l)
);
},
{
closed = 1;
nodes = (
(1307,572,l),
(1307,910,l),
(300,910,l),
(300,572,l)
);
},
{
closed = 1;
nodes = (
(1984,1123,l),
(1984,1465,l),
(1246,1465,l),
(1246,1123,l)
);
}
);
width = 2059;
},
{
layerId = "4B50D27E-C53B-49C1-950D-105FFE0A0ACC";
shapes = (
{
closed = 1;
nodes = (
(1469,0,l),
(1469,1465,l),
(1126,1465,l),
(1126,0,l)
);
},
{
closed = 1;
nodes = (
(539,0,l),
(539,1465,l),
(197,1465,l),
(197,0,l)
);
},
{
closed = 1;
nodes = (
(1320,607,l),
(1320,875,l),
(299,875,l),
(299,607,l)
);
},
{
closed = 1;
nodes = (
(1985,1193,l),
(1985,1465,l),
(1270,1465,l),
(1270,1193,l)
);
}
);
width = 2058;
},
{
layerId = "BA9225F5-135B-4D21-ADB1-4407AF656753";
shapes = (
{
closed = 1;
nodes = (
(1419,0,l),
(1419,1465,l),
(1217,1465,l),
(1217,0,l)
);
},
{
closed = 1;
nodes = (
(436,0,l),
(436,1465,l),
(233,1465,l),
(233,0,l)
);
},
{
closed = 1;
nodes = (
(1340,662,l),
(1340,821,l),
(297,821,l),
(297,662,l)
);
},
{
closed = 1;
nodes = (
(1987,1303,l),
(1987,1465,l),
(1308,1465,l),
(1308,1303,l)
);
}
);
width = 2057;
}
);
leftKerningGroup = "I-cy";
unicode = 1188;
},
{
glyphname = "Enhook-cy";
layers = (
{
layerId = "A2DAE9BC-C777-495C-976C-8ACFC7C9BBD2";
shapes = (
{
closed = 1;
nodes = (
(402,0,l),
(402,1465,l),
(245,1465,l),
(245,0,l)
);
},
{
closed = 1;
nodes = (
(1430,681,l),
(1430,803,l),
(296,803,l),
(296,681,l)
);
},
{
closed = 1;
nodes = (
(1329,104,ls),
(1329,-169,o),
(1224,-292,o),
(1034,-362,c),
(1071,-454,l),
(1318,-385,o),
(1484,-231,o),
(1484,104,cs),
(1484,1465,l),
(1329,1465,l)
);
}
);
width = 1761;
},
{
layerId = "DCFFE7A7-A818-4955-884B-BB4CE5043B09";
shapes = (
{
closed = 1;
nodes = (
(621,0,l),
(621,1465,l),
(174,1465,l),
(174,0,l)
);
},
{
closed = 1;
nodes = (
(1365,572,l),
(1365,910,l),
(300,910,l),
(300,572,l)
);
},
{
closed = 1;
nodes = (
(1125,212,ls),
(1125,-119,o),
(1059,-191,o),
(905,-273,c),
(992,-492,l),
(1360,-407,o),
(1573,-284,o),
(1573,212,cs),
(1573,1465,l),
(1125,1465,l)
);
}
);
width = 1748;
},
{
layerId = "4B50D27E-C53B-49C1-950D-105FFE0A0ACC";
shapes = (
{
closed = 1;
nodes = (
(550,0,l),
(550,1465,l),
(197,1465,l),
(197,0,l)
);
},
{
closed = 1;
nodes = (
(1386,607,l),
(1386,875,l),
(299,875,l),
(299,607,l)
);
},
{
closed = 1;
nodes = (
(1191,177,ls),
(1191,-135,o),
(1113,-224,o),
(947,-302,c),
(1018,-480,l),
(1346,-400,o),
(1544,-267,o),
(1544,177,cs),
(1544,1465,l),
(1191,1465,l)
);
}
);
width = 1752;
},
{
layerId = "BA9225F5-135B-4D21-ADB1-4407AF656753";
shapes = (
{
closed = 1;
nodes = (
(439,0,l),
(439,1465,l),
(233,1465,l),
(233,0,l)
);
},
{
closed = 1;
nodes = (
(1419,662,l),
(1419,821,l),
(297,821,l),
(297,662,l)
);
},
{
closed = 1;
nodes = (
(1294,122,ls),
(1294,-160,o),
(1196,-275,o),
(1012,-347,c),
(1058,-460,l),
(1325,-389,o),
(1499,-240,o),
(1499,122,cs),
(1499,1465,l),
(1294,1465,l)
);
}
);
width = 1759;
}
);
leftKerningGroup = "Enhook-cy";
rightKerningGroup = "I-cy1";
unicode = 1223;
},
{
glyphname = "Entail-cy";
layers = (
{
layerId = "A2DAE9BC-C777-495C-976C-8ACFC7C9BBD2";
shapes = (
{
closed = 1;
nodes = (
(1462,0,l),
(1462,1465,l),
(1309,1465,l),
(1309,0,l)
);
},
{
closed = 1;
nodes = (
(402,0,l),
(402,1465,l),
(245,1465,l),
(245,0,l)
);
},
{
closed = 1;
nodes = (
(1407,681,l),
(1407,806,l),
(296,806,l),
(296,681,l)
);
},
{
closed = 1;
nodes = (
(1621,0,l),
(1686,117,l),
(1431,117,l),
(1431,0,l)
);
},
{
closed = 1;
nodes = (
(1447,-433,l),
(1686,117,l),
(1527,117,l),
(1326,-433,l)
);
}
);
width = 1759;
},
{
layerId = "DCFFE7A7-A818-4955-884B-BB4CE5043B09";
shapes = (
{
closed = 1;
nodes = (
(1576,0,l),
(1576,1465,l),
(1128,1465,l),
(1128,0,l)
);
},
{
closed = 1;
nodes = (
(624,0,l),
(624,1465,l),
(174,1465,l),
(174,0,l)
);
},
{
closed = 1;
nodes = (
(1367,572,l),
(1367,913,l),
(300,913,l),
(300,572,l)
);
},
{
closed = 1;
nodes = (
(1668,0,l),
(1857,291,l),
(1486,291,l),
(1486,0,l)
);
},
{
closed = 1;
nodes = (
(1574,-435,l),
(1857,291,l),
(1380,291,l),
(1233,-435,l)
);
}
);
width = 1826;
},
{
layerId = "4B50D27E-C53B-49C1-950D-105FFE0A0ACC";
shapes = (
{
closed = 1;
nodes = (
(1539,0,l),
(1539,1465,l),
(1187,1465,l),
(1187,0,l)
);
},
{
closed = 1;
nodes = (
(552,0,l),
(552,1465,l),
(197,1465,l),
(197,0,l)
);
},
{
closed = 1;
nodes = (
(1380,607,l),
(1380,878,l),
(299,878,l),
(299,607,l)
);
},
{
closed = 1;
nodes = (
(1653,0,l),
(1801,234,l),
(1468,234,l),
(1468,0,l)
);
},
{
closed = 1;
nodes = (
(1532,-434,l),
(1801,234,l),
(1428,234,l),
(1263,-434,l)
);
}
);
width = 1804;
},
{
layerId = "BA9225F5-135B-4D21-ADB1-4407AF656753";
shapes = (
{
closed = 1;
nodes = (
(1481,0,l),
(1481,1465,l),
(1278,1465,l),
(1278,0,l)
);
},
{
closed = 1;
nodes = (
(439,0,l),
(439,1465,l),
(233,1465,l),
(233,0,l)
);
},
{
closed = 1;
nodes = (
(1400,662,l),
(1400,824,l),
(297,824,l),
(297,662,l)
);
},
{
closed = 1;
nodes = (
(1629,0,l),
(1715,146,l),
(1440,146,l),
(1440,0,l)
);
},
{
closed = 1;
nodes = (
(1468,-433,l),
(1715,146,l),
(1502,146,l),
(1310,-433,l)
);
}
);
width = 1770;
}
);
leftKerningGroup = "Iu-cy";
rightKerningGroup = "Eltail-cy";
unicode = 1225;
},
{
glyphname = Eogonek;
layers = (
{
layerId = "A2DAE9BC-C777-495C-976C-8ACFC7C9BBD2";
shapes = (
{
closed = 1;
nodes = (
(1055,0,l),
(1083,127,l),
(383,127,l),
(383,700,l),
(940,700,l),
(969,824,l),
(383,824,l),
(383,1338,l),
(1036,1338,l),
(1063,1465,l),
(229,1465,l),
(229,0,l),
(857,0,l),
(773,-62,o),
(691,-154,o),
(691,-253,cs),
(691,-353,o),
(782,-432,o),
(893,-432,cs),
(965,-432,o),
(1033,-399,o),
(1091,-353,c),
(1091,-283,l),
(1058,-303,o),
(979,-327,o),
(930,-327,cs),
(862,-327,o),
(820,-286,o),
(820,-217,cs),
(820,-137,o),
(873,-66,o),
(991,0,c)
);
}
);
width = 1232;
},
{
layerId = "DCFFE7A7-A818-4955-884B-BB4CE5043B09";
shapes = (
{
closed = 1;
nodes = (
(1137,0,l),
(1182,257,l),
(611,257,l),
(611,636,l),
(1019,636,l),
(1057,869,l),
(611,869,l),
(611,1208,l),
(1132,1208,l),
(1177,1465,l),
(160,1465,l),
(160,0,l),
(804,0,l),
(711,-69,o),
(670,-150,o),
(670,-227,cs),
(670,-343,o),
(760,-435,o),
(904,-435,cs),
(1012,-435,o),
(1124,-382,o),
(1168,-344,c),
(1168,-209,l),
(1140,-223,o),
(1099,-228,o),
(1070,-228,cs),
(982,-228,o),
(946,-168,o),
(946,-122,cs),
(946,-70,o),
(991,-31,o),
(1037,0,c)
);
}
);
width = 1299;
},
{
layerId = "4B50D27E-C53B-49C1-950D-105FFE0A0ACC";
shapes = (
{
closed = 1;
nodes = (
(1109,0,l),
(1149,217,l),
(535,217,l),
(535,656,l),
(993,656,l),
(1027,855,l),
(535,855,l),
(535,1248,l),
(1100,1248,l),
(1139,1465,l),
(183,1465,l),
(183,0,l),
(822,0,l),
(731,-67,o),
(677,-151,o),
(677,-235,cs),
(677,-346,o),
(767,-434,o),
(900,-434,cs),
(996,-434,o),
(1094,-388,o),
(1142,-347,c),
(1142,-233,l),
(1112,-249,o),
(1059,-261,o),
(1023,-261,cs),
(942,-261,o),
(904,-207,o),
(904,-154,cs),
(904,-92,o),
(951,-43,o),
(1021,0,c)
);
}
);
width = 1277;
},
{
layerId = "BA9225F5-135B-4D21-ADB1-4407AF656753";
shapes = (
{
closed = 1;
nodes = (
(1068,0,l),
(1099,157,l),
(421,157,l),
(421,685,l),
(953,685,l),
(983,835,l),
(421,835,l),
(421,1308,l),
(1052,1308,l),
(1082,1465,l),
(217,1465,l),
(217,0,l),
(848,0,l),
(762,-63,o),
(687,-153,o),
(687,-248,cs),
(687,-351,o),
(778,-432,o),
(895,-432,cs),
(973,-432,o),
(1048,-396,o),
(1104,-351,c),
(1104,-270,l),
(1071,-289,o),
(999,-310,o),
(953,-310,cs),
(882,-310,o),
(841,-266,o),
(841,-201,cs),
(841,-126,o),
(892,-60,o),
(998,0,c)
);
}
);
width = 1243;
}
);
rightKerningGroup = _E_Left;
unicode = 280;
},
{
glyphname = Epsilontonos;
rightMetricsKey = E;
layers = (
{
layerId = "A2DAE9BC-C777-495C-976C-8ACFC7C9BBD2";
shapes = (
{
closed = 1;
nodes = (
(255,1465,l),
(84,1465,l),
(-35,863,l),
(96,863,l)
);
},
{
closed = 1;
nodes = (
(1250,0,l),
(1278,127,l),
(578,127,l),
(578,700,l),
(1135,700,l),
(1164,824,l),
(578,824,l),
(578,1338,l),
(1231,1338,l),
(1258,1465,l),
(424,1465,l),
(424,0,l)
);
}
);
width = 1409;
},
{
layerId = "DCFFE7A7-A818-4955-884B-BB4CE5043B09";
shapes = (
{
closed = 1;
nodes = (
(514,1465,l),
(74,1465,l),
(-6,876,l),
(331,876,l)
);
},
{
closed = 1;
nodes = (
(1605,0,l),
(1650,257,l),
(1079,257,l),
(1079,636,l),
(1487,636,l),
(1525,869,l),
(1079,869,l),
(1079,1208,l),
(1600,1208,l),
(1645,1465,l),
(628,1465,l),
(628,0,l)
);
}
);
width = 1767;
},
{
layerId = "4B50D27E-C53B-49C1-950D-105FFE0A0ACC";
shapes = (
{
closed = 1;
nodes = (
(428,1465,l),
(77,1465,l),
(-16,872,l),
(253,872,l)
);
},
{
closed = 1;
nodes = (
(1486,0,l),
(1526,217,l),
(912,217,l),
(912,656,l),
(1370,656,l),
(1404,855,l),
(912,855,l),
(912,1248,l),
(1477,1248,l),
(1516,1465,l),
(560,1465,l),
(560,0,l)
);
}
);
width = 1648;
},
{
layerId = "BA9225F5-135B-4D21-ADB1-4407AF656753";
shapes = (
{
closed = 1;
nodes = (
(298,1465,l),
(82,1465,l),
(-30,865,l),
(135,865,l)
);
},
{
closed = 1;
nodes = (
(1308,0,l),
(1339,157,l),
(661,157,l),
(661,685,l),
(1193,685,l),
(1223,835,l),
(661,835,l),
(661,1308,l),
(1292,1308,l),
(1322,1465,l),
(457,1465,l),
(457,0,l)
);
}
);
width = 1468;
}
);
rightKerningGroup = Epsilon;
unicode = 904;
},
{
glyphname = "Ereversed-cy";
layers = (
{
layerId = "A2DAE9BC-C777-495C-976C-8ACFC7C9BBD2";
shapes = (
{
closed = 1;
nodes = (
(1008,-20,o),
(1344,274,o),
(1344,743,cs),
(1344,1176,o),
(1058,1484,o),
(612,1484,cs),
(425,1484,o),
(263,1436,o),
(129,1345,c),
(197,1222,l),
(300,1310,o),
(424,1371,o),
(592,1371,cs),
(942,1371,o),
(1184,1104,o),
(1184,720,cs),
(1184,337,o),
(941,96,o),
(611,96,cs),
(446,96,o),
(304,151,o),
(173,261,c),
(101,145,l),
(242,34,o),
(408,-20,o),
(592,-20,cs)
);
},
{
closed = 1;
nodes = (
(1230,696,l),
(1239,800,l),
(437,807,l),
(427,682,l)
);
}
);
width = 1471;
},
{
layerId = "DCFFE7A7-A818-4955-884B-BB4CE5043B09";
shapes = (
{
closed = 1;
nodes = (
(1050,-40,o),
(1382,270,o),
(1382,762,cs),
(1382,1218,o),
(1101,1503,o),
(598,1503,cs),
(421,1503,o),
(228,1467,o),
(94,1387,c),
(239,1083,l),
(292,1142,o),
(385,1198,o),
(530,1198,cs),
(757,1198,o),
(923,1026,o),
(923,703,cs),
(923,398,o),
(773,260,o),
(572,260,cs),
(453,260,o),
(335,315,o),
(232,411,c),
(82,103,l),
(221,1,o),
(410,-40,o),
(573,-40,cs)
);
},
{
closed = 1;
nodes = (
(1028,621,l),
(1056,881,l),
(393,906,l),
(362,578,l)
);
}
);
width = 1485;
},
{
layerId = "4B50D27E-C53B-49C1-950D-105FFE0A0ACC";
shapes = (
{
closed = 1;
nodes = (
(1036,-33,o),
(1370,271,o),
(1370,756,cs),
(1370,1204,o),
(1087,1497,o),
(602,1497,cs),
(422,1497,o),
(240,1457,o),
(106,1373,c),
(225,1128,l),
(294,1196,o),
(397,1254,o),
(550,1254,cs),
(817,1254,o),
(1008,1051,o),
(1008,709,cs),
(1008,378,o),
(827,206,o),
(584,206,cs),
(451,206,o),
(325,261,o),
(213,362,c),
(88,117,l),
(228,11,o),
(409,-33,o),
(579,-33,cs)
);
},
{
closed = 1;
nodes = (
(1094,645,l),
(1116,855,l),
(407,874,l),
(383,612,l)
);
}
);
width = 1480;
},
{
layerId = "BA9225F5-135B-4D21-ADB1-4407AF656753";
shapes = (
{
closed = 1;
nodes = (
(1015,-23,o),
(1350,273,o),
(1350,746,cs),
(1350,1183,o),
(1065,1487,o),
(609,1487,cs),
(424,1487,o),
(257,1441,o),
(123,1352,c),
(204,1198,l),
(298,1281,o),
(417,1342,o),
(581,1342,cs),
(911,1342,o),
(1140,1091,o),
(1140,717,cs),
(1140,347,o),
(912,123,o),
(604,123,cs),
(447,123,o),
(309,178,o),
(183,286,c),
(98,138,l),
(238,28,o),
(408,-23,o),
(589,-23,cs)
);
},
{
closed = 1;
nodes = (
(1196,683,l),
(1208,814,l),
(429,824,l),
(416,664,l)
);
}
);
width = 1473;
}
);
leftKerningGroup = "Edieresis-cy";
rightKerningGroup = "Edieresis-cy1";
unicode = 1069;
},
{
color = 8;
glyphname = "Ertick-cy";
layers = (
{
layerId = "A2DAE9BC-C777-495C-976C-8ACFC7C9BBD2";
shapes = (
{
closed = 1;
nodes = (
(1014,229,l),
(1117,288,l),
(720,976,l),
(617,918,l)
);
},
{
closed = 1;
nodes = (
(383,1338,l),
(564,1338,ls),
(804,1338,o),
(969,1231,o),
(969,992,cs),
(969,767,o),
(812,653,o),
(583,653,cs),
(514,653,o),
(430,663,o),
(373,677,c),
(366,553,l),
(468,537,o),
(570,527,o),
(624,527,cs),
(857,527,o),
(1129,701,o),
(1129,1015,cs),
(1129,1313,o),
(884,1465,o),
(597,1465,cs),
(229,1465,l),
(229,0,l),
(383,0,l)
);
}
);
width = 1340;
},
{
layerId = "DCFFE7A7-A818-4955-884B-BB4CE5043B09";
shapes = (
{
closed = 1;
nodes = (
(1069,150,l),
(1286,274,l),
(860,1013,l),
(644,887,l)
);
},
{
closed = 1;
nodes = (
(611,1208,l),
(750,1208,ls),
(880,1208,o),
(964,1136,o),
(964,932,cs),
(964,837,o),
(946,703,o),
(755,703,cs),
(711,703,o),
(641,711,o),
(581,722,c),
(562,492,l),
(637,478,o),
(753,469,o),
(825,469,cs),
(1173,469,o),
(1398,678,o),
(1398,985,cs),
(1398,1272,o),
(1201,1465,o),
(764,1465,cs),
(160,1465,l),
(160,0,l),
(611,0,l)
);
}
);
width = 1480;
},
{
layerId = "4B50D27E-C53B-49C1-950D-105FFE0A0ACC";
shapes = (
{
closed = 1;
nodes = (
(1051,176,l),
(1230,278,l),
(813,1001,l),
(635,897,l)
);
},
{
closed = 1;
nodes = (
(535,1248,l),
(688,1248,ls),
(854,1248,o),
(966,1168,o),
(966,952,cs),
(966,813,o),
(901,688,o),
(697,688,cs),
(645,688,o),
(571,697,o),
(511,708,c),
(496,510,l),
(581,496,o),
(692,487,o),
(758,487,cs),
(1067,487,o),
(1308,686,o),
(1308,995,cs),
(1308,1286,o),
(1095,1465,o),
(708,1465,cs),
(183,1465,l),
(183,0,l),
(535,0,l)
);
}
);
width = 1433;
},
{
layerId = "BA9225F5-135B-4D21-ADB1-4407AF656753";
shapes = (
{
closed = 1;
nodes = (
(1023,216,l),
(1145,285,l),
(743,982,l),
(621,913,l)
);
},
{
closed = 1;
nodes = (
(421,1308,l),
(595,1308,ls),
(816,1308,o),
(968,1215,o),
(968,982,cs),
(968,778,o),
(834,665,o),
(611,665,cs),
(547,665,o),
(465,675,o),
(407,688,c),
(398,538,l),
(496,523,o),
(600,513,o),
(657,513,cs),
(909,513,o),
(1174,697,o),
(1174,1010,cs),
(1174,1306,o),
(937,1465,o),
(625,1465,cs),
(217,1465,l),
(217,0,l),
(421,0,l)
);
}
);
width = 1363;
}
);
leftKerningGroup = "I-cy";
unicode = 1166;
},
{
glyphname = "Esdescender-cy";
layers = (
{
layerId = "A2DAE9BC-C777-495C-976C-8ACFC7C9BBD2";
shapes = (
{
closed = 1;
nodes = (
(917,-396,l),
(935,37,l),
(770,37,l),
(787,-396,l)
);
},
{
closed = 1;
nodes = (
(1311,222,l),
(1159,133,o),
(993,109,o),
(908,109,cs),
(508,109,o),
(320,431,o),
(320,726,cs),
(320,1072,o),
(568,1358,o),
(903,1358,cs),
(989,1358,o),
(1141,1330,o),
(1266,1269,c),
(1286,1278,l),
(1315,1410,l),
(1178,1470,o),
(1022,1485,o),
(931,1485,cs),
(515,1485,o),
(159,1164,o),
(159,711,cs),
(159,254,o),
(448,-20,o),
(851,-20,cs),
(946,-20,o),
(1158,1,o),
(1311,124,c)
);
}
);
width = 1455;
},
{
layerId = "DCFFE7A7-A818-4955-884B-BB4CE5043B09";
shapes = (
{
closed = 1;
nodes = (
(1039,-378,l),
(1076,87,l),
(663,87,l),
(699,-378,l)
);
},
{
closed = 1;
nodes = (
(1321,319,l),
(1259,297,o),
(1177,259,o),
(1040,259,cs),
(738,259,o),
(554,437,o),
(554,756,cs),
(554,1055,o),
(713,1228,o),
(963,1228,cs),
(1045,1228,o),
(1150,1209,o),
(1257,1157,c),
(1277,1164,l),
(1340,1438,l),
(1213,1472,o),
(1044,1485,o),
(952,1485,cs),
(521,1485,o),
(90,1205,o),
(90,686,cs),
(90,256,o),
(396,-20,o),
(810,-20,cs),
(1007,-20,o),
(1209,42,o),
(1321,131,c)
);
}
);
width = 1473;
},
{
layerId = "4B50D27E-C53B-49C1-950D-105FFE0A0ACC";
shapes = (
{
closed = 1;
nodes = (
(998,-384,l),
(1029,70,l),
(699,70,l),
(728,-384,l)
);
},
{
closed = 1;
nodes = (
(1317,287,l),
(1225,242,o),
(1115,212,o),
(996,212,cs),
(661,212,o),
(476,435,o),
(476,746,cs),
(476,1061,o),
(665,1268,o),
(943,1268,cs),
(1026,1268,o),
(1147,1249,o),
(1260,1194,c),
(1280,1202,l),
(1332,1428,l),
(1201,1471,o),
(1036,1485,o),
(945,1485,cs),
(519,1485,o),
(113,1191,o),
(113,694,cs),
(113,255,o),
(413,-20,o),
(824,-20,cs),
(987,-20,o),
(1192,28,o),
(1317,129,c)
);
}
);
width = 1467;
},
{
layerId = "BA9225F5-135B-4D21-ADB1-4407AF656753";
shapes = (
{
closed = 1;
nodes = (
(937,-393,l),
(958,45,l),
(752,45,l),
(772,-393,l)
);
},
{
closed = 1;
nodes = (
(1312,238,l),
(1175,160,o),
(1023,142,o),
(930,142,cs),
(546,142,o),
(359,432,o),
(359,731,cs),
(359,1069,o),
(592,1328,o),
(913,1328,cs),
(998,1328,o),
(1142,1310,o),
(1264,1250,c),
(1284,1259,l),
(1319,1414,l),
(1184,1470,o),
(1025,1485,o),
(934,1485,cs),
(516,1485,o),
(147,1171,o),
(147,707,cs),
(147,254,o),
(439,-20,o),
(844,-20,cs),
(956,-20,o),
(1166,8,o),
(1312,125,c)
);
}
);
width = 1458;
}
);
leftKerningGroup = "Es-cy";
unicode = 1194;
},
{
color = 9;
glyphname = "Esdescender-cy.loclBSH";
layers = (
{
layerId = "A2DAE9BC-C777-495C-976C-8ACFC7C9BBD2";
shapes = (
{
closed = 1;
nodes = (
(908,-431,l),
(940,-277,o),
(934,-122,o),
(893,37,c),
(778,37,l),
(803,-122,o),
(794,-277,o),
(752,-431,c)
);
},
{
closed = 1;
nodes = (
(1311,222,l),
(1159,133,o),
(993,109,o),
(908,109,cs),
(508,109,o),
(320,431,o),
(320,726,cs),
(320,1072,o),
(568,1358,o),
(903,1358,cs),
(989,1358,o),
(1141,1330,o),
(1266,1269,c),
(1286,1278,l),
(1315,1410,l),
(1178,1470,o),
(1022,1485,o),
(931,1485,cs),
(515,1485,o),
(159,1164,o),
(159,711,cs),
(159,254,o),
(448,-20,o),
(851,-20,cs),
(946,-20,o),
(1158,1,o),
(1311,124,c)
);
}
);
width = 1455;
},
{
layerId = "DCFFE7A7-A818-4955-884B-BB4CE5043B09";
shapes = (
{
closed = 1;
nodes = (
(1041,-418,l),
(1078,-248,o),
(1060,-83,o),
(973,87,c),
(715,87,l),
(745,-83,o),
(724,-248,o),
(672,-418,c)
);
},
{
closed = 1;
nodes = (
(1321,319,l),
(1259,297,o),
(1177,259,o),
(1040,259,cs),
(738,259,o),
(554,437,o),
(554,756,cs),
(554,1055,o),
(713,1228,o),
(963,1228,cs),
(1045,1228,o),
(1150,1209,o),
(1257,1157,c),
(1277,1164,l),
(1340,1438,l),
(1213,1472,o),
(1044,1485,o),
(952,1485,cs),
(521,1485,o),
(90,1205,o),
(90,686,cs),
(90,256,o),
(396,-20,o),
(810,-20,cs),
(1007,-20,o),
(1209,42,o),
(1321,131,c)
);
}
);
width = 1473;
},
{
layerId = "4B50D27E-C53B-49C1-950D-105FFE0A0ACC";
shapes = (
{
closed = 1;
nodes = (
(997,-422,l),
(1032,-258,o),
(1018,-96,o),
(946,70,c),
(736,70,l),
(764,-96,o),
(747,-258,o),
(698,-422,c)
);
},
{
closed = 1;
nodes = (
(1317,287,l),
(1225,242,o),
(1115,212,o),
(996,212,cs),
(661,212,o),
(476,435,o),
(476,746,cs),
(476,1061,o),
(665,1268,o),
(943,1268,cs),
(1026,1268,o),
(1147,1249,o),
(1260,1194,c),
(1280,1202,l),
(1332,1428,l),
(1201,1471,o),
(1036,1485,o),
(945,1485,cs),
(519,1485,o),
(113,1191,o),
(113,694,cs),
(113,255,o),
(413,-20,o),
(824,-20,cs),
(987,-20,o),
(1192,28,o),
(1317,129,c)
);
}
);
width = 1467;
},
{
layerId = "BA9225F5-135B-4D21-ADB1-4407AF656753";
shapes = (
{
closed = 1;
nodes = (
(930,-429,l),
(963,-272,o),
(955,-115,o),
(906,45,c),
(767,45,l),
(793,-115,o),
(782,-272,o),
(738,-429,c)
);
},
{
closed = 1;
nodes = (
(1312,238,l),
(1175,160,o),
(1023,142,o),
(930,142,cs),
(546,142,o),
(359,432,o),
(359,731,cs),
(359,1069,o),
(592,1328,o),
(913,1328,cs),
(998,1328,o),
(1142,1310,o),
(1264,1250,c),
(1284,1259,l),
(1319,1414,l),
(1184,1470,o),
(1025,1485,o),
(934,1485,cs),
(516,1485,o),
(147,1171,o),
(147,707,cs),
(147,254,o),
(439,-20,o),
(844,-20,cs),
(956,-20,o),
(1166,8,o),
(1312,125,c)
);
}
);
width = 1458;
}
);
leftKerningGroup = "Es-cy";
},
{
glyphname = Etatonos;
rightMetricsKey = H;
layers = (
{
layerId = "A2DAE9BC-C777-495C-976C-8ACFC7C9BBD2";
shapes = (
{
closed = 1;
nodes = (
(255,1465,l),
(84,1465,l),
(-35,863,l),
(96,863,l)
);
},
{
closed = 1;
nodes = (
(584,0,l),
(584,700,l),
(1413,700,l),
(1413,0,l),
(1574,0,l),
(1574,1465,l),
(1413,1465,l),
(1413,825,l),
(584,825,l),
(584,1465,l),
(424,1465,l),
(424,0,l)
);
}
);
width = 1802;
},
{
layerId = "DCFFE7A7-A818-4955-884B-BB4CE5043B09";
shapes = (
{
closed = 1;
nodes = (
(514,1465,l),
(74,1465,l),
(-6,876,l),
(331,876,l)
);
},
{
closed = 1;
nodes = (
(1083,1,l),
(1083,625,l),
(1577,625,l),
(1577,1,l),
(2028,1,l),
(2028,1466,l),
(1577,1466,l),
(1577,882,l),
(1083,882,l),
(1083,1466,l),
(632,1466,l),
(632,1,l)
);
}
);
width = 2188;
},
{
layerId = "4B50D27E-C53B-49C1-950D-105FFE0A0ACC";
shapes = (
{
closed = 1;
nodes = (
(428,1465,l),
(77,1465,l),
(-16,872,l),
(253,872,l)
);
},
{
closed = 1;
nodes = (
(917,1,l),
(917,650,l),
(1523,650,l),
(1523,1,l),
(1877,1,l),
(1877,1466,l),
(1523,1466,l),
(1523,863,l),
(917,863,l),
(917,1466,l),
(563,1466,l),
(563,1,l)
);
}
);
width = 2060;
},
{
layerId = "BA9225F5-135B-4D21-ADB1-4407AF656753";
shapes = (
{
closed = 1;
nodes = (
(298,1465,l),
(82,1465,l),
(-30,865,l),
(135,865,l)
);
},
{
closed = 1;
nodes = (
(667,0,l),
(667,687,l),
(1440,687,l),
(1440,0,l),
(1649,0,l),
(1649,1465,l),
(1440,1465,l),
(1440,834,l),
(667,834,l),
(667,1465,l),
(458,1465,l),
(458,0,l)
);
}
);
width = 1866;
}
);
rightKerningGroup = Nu1;
unicode = 905;
},
{
glyphname = Eth;
layers = (
{
layerId = "A2DAE9BC-C777-495C-976C-8ACFC7C9BBD2";
shapes = (
{
closed = 1;
nodes = (
(28,788,l),
(28,678,l),
(228,678,l),
(228,0,l),
(663,0,l),
(1216,-1,o),
(1478,405,o),
(1478,775,cs),
(1478,1178,o),
(1244,1465,o),
(701,1465,cs),
(228,1465,l),
(228,788,l)
);
},
{
closed = 1;
nodes = (
(382,1328,l),
(668,1328,ls),
(1083,1328,o),
(1319,1105,o),
(1319,751,cs),
(1319,420,o),
(1113,137,o),
(691,137,cs),
(382,137,l),
(382,678,l),
(787,678,l),
(787,788,l),
(382,788,l)
);
}
);
width = 1637;
},
{
background = {
shapes = (
{
closed = 1;
nodes = (
(30,692,l),
(222,692,l),
(222,472,o),
(218,228,o),
(210,0,c),
(376,-12,o),
(638,-18,o),
(702,-18,cs),
(1280,-18,o),
(1536,376,o),
(1536,790,cs),
(1536,1240,o),
(1244,1512,o),
(718,1512,cs),
(618,1512,o),
(398,1504,o),
(210,1484,c),
(216,1266,o),
(220,1026,o),
(222,818,c),
(40,814,l)
);
},
{
closed = 1;
nodes = (
(428,320,o),
(426,514,o),
(426,692,c),
(796,692,l),
(824,836,l),
(426,824,l),
(426,992,o),
(428,1176,o),
(438,1354,c),
(518,1362,o),
(638,1364,o),
(678,1364,cs),
(1074,1364,o),
(1306,1128,o),
(1306,754,cs),
(1306,418,o),
(1132,128,o),
(736,128,cs),
(682,128,o),
(572,132,o),
(438,150,c)
);
}
);
};
layerId = "DCFFE7A7-A818-4955-884B-BB4CE5043B09";
shapes = (
{
closed = 1;
nodes = (
(42,874,l),
(42,593,l),
(183,593,l),
(183,0,l),
(754,-1,ls),
(1392,-2,o),
(1604,416,o),
(1604,784,cs),
(1604,1211,o),
(1319,1465,o),
(805,1465,cs),
(183,1465,l),
(183,874,l)
);
},
{
closed = 1;
nodes = (
(634,1208,l),
(778,1208,ls),
(1010,1208,o),
(1140,1076,o),
(1140,756,cs),
(1140,464,o),
(1033,257,o),
(794,257,cs),
(634,257,l),
(634,593,l),
(897,593,l),
(897,874,l),
(634,874,l)
);
}
);
width = 1694;
},
{
layerId = "4B50D27E-C53B-49C1-950D-105FFE0A0ACC";
shapes = (
{
closed = 1;
nodes = (
(37,845,l),
(37,621,l),
(198,621,l),
(198,0,l),
(724,-1,ls),
(1333,-2,o),
(1562,412,o),
(1562,781,cs),
(1562,1200,o),
(1294,1465,o),
(770,1465,cs),
(198,1465,l),
(198,845,l)
);
},
{
closed = 1;
nodes = (
(550,1248,l),
(741,1248,ls),
(1034,1248,o),
(1200,1086,o),
(1200,754,cs),
(1200,449,o),
(1059,217,o),
(760,217,cs),
(550,217,l),
(550,621,l),
(860,621,l),
(860,845,l),
(550,845,l)
);
}
);
width = 1675;
},
{
layerId = "BA9225F5-135B-4D21-ADB1-4407AF656753";
shapes = (
{
closed = 1;
nodes = (
(30,802,l),
(30,664,l),
(220,664,l),
(220,0,l),
(678,0,l),
(1245,-1,o),
(1499,407,o),
(1499,776,cs),
(1499,1183,o),
(1256,1465,o),
(718,1465,cs),
(220,1465,l),
(220,802,l)
);
},
{
closed = 1;
nodes = (
(424,1308,l),
(686,1308,ls),
(1071,1308,o),
(1289,1100,o),
(1289,752,cs),
(1289,427,o),
(1099,157,o),
(708,157,cs),
(424,157,l),
(424,664,l),
(805,664,l),
(805,802,l),
(424,802,l)
);
}
);
width = 1646;
}
);
rightKerningGroup = _D_Left;
unicode = 208;
},
{
glyphname = F;
layers = (
{
layerId = "A2DAE9BC-C777-495C-976C-8ACFC7C9BBD2";
shapes = (
{
closed = 1;
nodes = (
(383,0,l),
(383,700,l),
(940,700,l),
(969,824,l),
(383,824,l),
(383,1338,l),
(1036,1338,l),
(1063,1465,l),
(229,1465,l),
(229,0,l)
);
}
);
width = 1166;
},
{
background = {
shapes = (
{
closed = 0;
nodes = (
(209,348,l),
(481,348,l),
(494,415,l),
(209,415,l)
);
}
);
};
layerId = "DCFFE7A7-A818-4955-884B-BB4CE5043B09";
shapes = (
{
closed = 1;
nodes = (
(611,0,l),
(611,636,l),
(1019,636,l),
(1057,869,l),
(611,869,l),
(611,1208,l),
(1132,1208,l),
(1177,1465,l),
(160,1465,l),
(160,0,l)
);
}
);
width = 1265;
},
{
layerId = "4B50D27E-C53B-49C1-950D-105FFE0A0ACC";
shapes = (
{
closed = 1;
nodes = (
(535,0,l),
(535,656,l),
(993,656,l),
(1027,855,l),
(535,855,l),
(535,1248,l),
(1100,1248,l),
(1139,1465,l),
(183,1465,l),
(183,0,l)
);
}
);
width = 1232;
},
{
layerId = "BA9225F5-135B-4D21-ADB1-4407AF656753";
shapes = (
{
closed = 1;
nodes = (
(421,0,l),
(421,685,l),
(953,685,l),
(983,835,l),
(421,835,l),
(421,1308,l),
(1052,1308,l),
(1082,1465,l),
(217,1465,l),
(217,0,l)
);
}
);
width = 1182;
}
);
unicode = 70;
},
{
glyphname = "Fita-cy";
widthMetricsKey = O;
layers = (
{
layerId = "A2DAE9BC-C777-495C-976C-8ACFC7C9BBD2";
shapes = (
{
closed = 1;
nodes = (
(522,608,l),
(560,675,o),
(630,707,o),
(704,707,cs),
(826,707,o),
(911,622,o),
(1049,622,cs),
(1175,622,o),
(1261,706,o),
(1303,844,c),
(1219,865,l),
(1183,796,o),
(1115,761,o),
(1037,761,cs),
(914,761,o),
(814,846,o),
(691,846,cs),
(572,846,o),
(477,758,o),
(436,634,c)
);
},
{
closed = 1;
nodes = (
(570,107,o),
(319,358,o),
(319,716,cs),
(319,1064,o),
(552,1358,o),
(885,1358,cs),
(1193,1358,o),
(1447,1105,o),
(1447,742,cs),
(1447,393,o),
(1211,107,o),
(878,107,cs)
);
},
{
closed = 1;
nodes = (
(1272,-20,o),
(1607,314,o),
(1607,760,cs),
(1607,1223,o),
(1291,1485,o),
(906,1485,cs),
(506,1485,o),
(159,1155,o),
(159,705,cs),
(159,253,o),
(466,-20,o),
(866,-20,cs)
);
}
);
width = 1766;
},
{
layerId = "DCFFE7A7-A818-4955-884B-BB4CE5043B09";
shapes = (
{
closed = 1;
nodes = (
(691,532,l),
(708,571,o),
(735,593,o),
(784,593,cs),
(848,593,o),
(926,541,o),
(1014,541,cs),
(1152,541,o),
(1208,660,o),
(1246,894,c),
(1055,943,l),
(1032,893,o),
(1001,880,o),
(957,880,cs),
(892,880,o),
(815,931,o),
(725,931,cs),
(591,931,o),
(532,786,o),
(503,588,c)
);
},
{
closed = 1;
nodes = (
(668,237,o),
(554,479,o),
(554,745,cs),
(554,991,o),
(651,1228,o),
(862,1228,cs),
(1075,1228,o),
(1190,986,o),
(1190,720,cs),
(1190,476,o),
(1093,237,o),
(881,237,cs)
);
},
{
closed = 1;
nodes = (
(1328,-20,o),
(1653,286,o),
(1653,761,cs),
(1653,1226,o),
(1344,1485,o),
(896,1485,cs),
(411,1485,o),
(90,1179,o),
(90,705,cs),
(90,239,o),
(401,-20,o),
(845,-20,cs)
);
}
);
width = 1743;
},
{
layerId = "4B50D27E-C53B-49C1-950D-105FFE0A0ACC";
shapes = (
{
closed = 1;
nodes = (
(635,557,l),
(658,605,o),
(700,631,o),
(757,631,cs),
(840,631,o),
(921,568,o),
(1026,568,cs),
(1160,568,o),
(1226,675,o),
(1265,877,c),
(1109,917,l),
(1082,861,o),
(1039,840,o),
(983,840,cs),
(899,840,o),
(815,903,o),
(713,903,cs),
(585,903,o),
(514,776,o),
(481,603,c)
);
},
{
closed = 1;
nodes = (
(635,197,o),
(476,439,o),
(476,735,cs),
(476,1015,o),
(618,1268,o),
(870,1268,cs),
(1114,1268,o),
(1276,1026,o),
(1276,727,cs),
(1276,448,o),
(1132,197,o),
(880,197,cs)
);
},
{
closed = 1;
nodes = (
(1309,-20,o),
(1637,295,o),
(1637,761,cs),
(1637,1225,o),
(1326,1485,o),
(899,1485,cs),
(443,1485,o),
(113,1171,o),
(113,705,cs),
(113,243,o),
(423,-20,o),
(852,-20,cs)
);
}
);
width = 1751;
},
{
layerId = "BA9225F5-135B-4D21-ADB1-4407AF656753";
shapes = (
{
closed = 1;
nodes = (
(550,595,l),
(584,657,o),
(647,688,o),
(717,688,cs),
(829,688,o),
(913,608,o),
(1043,608,cs),
(1171,608,o),
(1252,698,o),
(1293,852,c),
(1191,878,l),
(1158,812,o),
(1096,781,o),
(1023,781,cs),
(910,781,o),
(814,860,o),
(696,860,cs),
(575,860,o),
(486,762,o),
(447,626,c)
);
},
{
closed = 1;
nodes = (
(586,137,o),
(358,378,o),
(358,721,cs),
(358,1052,o),
(568,1328,o),
(881,1328,cs),
(1173,1328,o),
(1404,1085,o),
(1404,738,cs),
(1404,407,o),
(1191,137,o),
(878,137,cs)
);
},
{
closed = 1;
nodes = (
(1281,-20,o),
(1614,309,o),
(1614,760,cs),
(1614,1223,o),
(1300,1485,o),
(904,1485,cs),
(490,1485,o),
(147,1159,o),
(147,705,cs),
(147,250,o),
(455,-20,o),
(862,-20,cs)
);
}
);
width = 1762;
}
);
unicode = 1138;
},
{
glyphname = G;
layers = (
{
layerId = "A2DAE9BC-C777-495C-976C-8ACFC7C9BBD2";
shapes = (
{
closed = 1;
nodes = (
(717,670,l),
(1228,670,l),
(1228,168,l),
(1114,132,o),
(1011,107,o),
(921,107,cs),
(533,107,o),
(320,398,o),
(320,726,cs),
(320,1069,o),
(553,1358,o),
(922,1358,cs),
(999,1358,o),
(1133,1346,o),
(1286,1277,c),
(1306,1288,l),
(1332,1413,l),
(1208,1467,o),
(1046,1485,o),
(943,1485,cs),
(512,1485,o),
(159,1163,o),
(159,709,cs),
(159,252,o),
(436,-20,o),
(896,-20,cs),
(1013,-20,o),
(1191,2,o),
(1373,73,c),
(1373,798,l),
(717,798,l)
);
}
);
width = 1583;
},
{
background = {
shapes = (
{
closed = 1;
nodes = (
(1374,686,l),
(1198,686,l),
(1198,152,l),
(1099,121,o),
(1002,107,o),
(923,107,cs),
(558,107,o),
(352,394,o),
(352,735,cs),
(352,1095,o),
(582,1358,o),
(919,1358,cs),
(1012,1358,o),
(1140,1340,o),
(1287,1273,c),
(1307,1283,l),
(1340,1435,l),
(1194,1479,o),
(1059,1493,o),
(964,1493,cs),
(525,1493,o),
(148,1198,o),
(148,695,cs),
(148,333,o),
(345,61,o),
(699,-10,cs),
(758,-22,o),
(822,-28,o),
(889,-28,cs),
(1022,-28,o),
(1190,-4,o),
(1374,67,c)
);
}
);
};
layerId = "DCFFE7A7-A818-4955-884B-BB4CE5043B09";
shapes = (
{
closed = 1;
nodes = (
(805,585,l),
(1033,585,l),
(1033,247,l),
(1018,240,o),
(952,237,o),
(925,237,cs),
(699,237,o),
(554,436,o),
(554,741,cs),
(554,1063,o),
(714,1228,o),
(973,1228,cs),
(1059,1228,o),
(1183,1209,o),
(1291,1155,c),
(1311,1163,l),
(1373,1438,l),
(1245,1472,o),
(1062,1485,o),
(965,1485,cs),
(519,1485,o),
(90,1219,o),
(90,662,cs),
(90,257,o),
(314,-20,o),
(866,-20,cs),
(1058,-20,o),
(1233,15,o),
(1428,86,c),
(1428,860,l),
(805,860,l)
);
}
);
width = 1565;
},
{
layerId = "4B50D27E-C53B-49C1-950D-105FFE0A0ACC";
shapes = (
{
closed = 1;
nodes = (
(779,613,l),
(1098,613,l),
(1098,221,l),
(1050,204,o),
(972,197,o),
(923,197,cs),
(643,197,o),
(476,423,o),
(476,736,cs),
(476,1065,o),
(660,1268,o),
(956,1268,cs),
(1039,1268,o),
(1166,1251,o),
(1289,1192,c),
(1309,1201,l),
(1359,1430,l),
(1233,1470,o),
(1056,1485,o),
(957,1485,cs),
(517,1485,o),
(113,1200,o),
(113,678,cs),
(113,255,o),
(354,-20,o),
(876,-20,cs),
(1043,-20,o),
(1219,11,o),
(1410,82,c),
(1410,839,l),
(779,839,l)
);
}
);
width = 1571;
},
{
layerId = "BA9225F5-135B-4D21-ADB1-4407AF656753";
shapes = (
{
closed = 1;
nodes = (
(740,656,l),
(1195,656,l),
(1195,181,l),
(1098,150,o),
(1001,137,o),
(921,137,cs),
(560,137,o),
(359,404,o),
(359,728,cs),
(359,1068,o),
(580,1328,o),
(930,1328,cs),
(1009,1328,o),
(1141,1315,o),
(1287,1248,c),
(1307,1259,l),
(1339,1417,l),
(1214,1468,o),
(1048,1485,o),
(946,1485,cs),
(513,1485,o),
(147,1172,o),
(147,701,cs),
(147,253,o),
(415,-20,o),
(891,-20,cs),
(1020,-20,o),
(1198,4,o),
(1382,75,c),
(1382,808,l),
(740,808,l)
);
}
);
width = 1580;
}
);
leftKerningGroup = _C_Right;
rightKerningGroup = _G_Left;
unicode = 71;
},
{
glyphname = Gamma;
layers = (
{
layerId = "A2DAE9BC-C777-495C-976C-8ACFC7C9BBD2";
shapes = (
{
closed = 1;
nodes = (
(405,0,l),
(405,1465,l),
(244,1465,l),
(244,0,l)
);
},
{
closed = 1;
nodes = (
(1077,1340,l),
(1077,1465,l),
(322,1465,l),
(322,1340,l)
);
}
);
width = 1137;
},
{
layerId = "DCFFE7A7-A818-4955-884B-BB4CE5043B09";
shapes = (
{
closed = 1;
nodes = (
(623,0,l),
(623,1465,l),
(173,1465,l),
(173,0,l)
);
},
{
closed = 1;
nodes = (
(1119,1122,l),
(1119,1465,l),
(402,1465,l),
(402,1122,l)
);
}
);
width = 1200;
},
{
layerId = "4B50D27E-C53B-49C1-950D-105FFE0A0ACC";
shapes = (
{
closed = 1;
nodes = (
(557,0,l),
(557,1465,l),
(195,1465,l),
(195,0,l)
);
},
{
closed = 1;
nodes = (
(1106,1188,l),
(1106,1465,l),
(378,1465,l),
(378,1188,l)
);
}
);
width = 1181;
},
{
layerId = "BA9225F5-135B-4D21-ADB1-4407AF656753";
shapes = (
{
closed = 1;
nodes = (
(443,0,l),
(443,1465,l),
(232,1465,l),
(232,0,l)
);
},
{
closed = 1;
nodes = (
(1084,1302,l),
(1084,1465,l),
(336,1465,l),
(336,1302,l)
);
}
);
width = 1148;
}
);
unicode = 915;
},
{
glyphname = "Ge-cy";
layers = (
{
layerId = "A2DAE9BC-C777-495C-976C-8ACFC7C9BBD2";
shapes = (
{
closed = 1;
nodes = (
(382,0,l),
(382,1537,l),
(232,1537,l),
(232,0,l)
);
},
{
closed = 1;
nodes = (
(1029,1419,l),
(1029,1537,l),
(304,1537,l),
(304,1419,l)
);
}
);
width = 1087;
},
{
layerId = "DCFFE7A7-A818-4955-884B-BB4CE5043B09";
shapes = (
{
closed = 1;
nodes = (
(624,0,l),
(624,1478,l),
(177,1478,l),
(177,0,l)
);
},
{
closed = 1;
nodes = (
(1167,1135,l),
(1167,1478,l),
(403,1478,l),
(403,1135,l)
);
}
);
width = 1243;
},
{
layerId = "4B50D27E-C53B-49C1-950D-105FFE0A0ACC";
shapes = (
{
closed = 1;
nodes = (
(545,0,l),
(545,1502,l),
(195,1502,l),
(195,0,l)
);
},
{
closed = 1;
nodes = (
(1122,1233,l),
(1122,1502,l),
(371,1502,l),
(371,1233,l)
);
}
);
width = 1192;
},
{
layerId = "BA9225F5-135B-4D21-ADB1-4407AF656753";
shapes = (
{
closed = 1;
nodes = (
(423,0,l),
(423,1528,l),
(223,1528,l),
(223,0,l)
);
},
{
closed = 1;
nodes = (
(1052,1372,l),
(1052,1528,l),
(321,1528,l),
(321,1372,l)
);
}
);
width = 1113;
}
);
leftKerningGroup = "I-cy";
rightKerningGroup = "Ge-cy";
unicode = 1043;
},
{
glyphname = "Gedescender-cy";
layers = (
{
layerId = "A2DAE9BC-C777-495C-976C-8ACFC7C9BBD2";
shapes = (
{
closed = 1;
nodes = (
(382,0,l),
(382,1384,l),
(232,1384,l),
(232,0,l)
);
},
{
closed = 1;
nodes = (
(1029,1266,l),
(1029,1384,l),
(304,1384,l),
(304,1266,l)
);
},
{
closed = 1;
nodes = (
(509,0,l),
(579,119,l),
(332,119,l),
(332,0,l)
);
},
{
closed = 1;
nodes = (
(579,-377,l),
(579,119,l),
(431,119,l),
(463,-377,l)
);
}
);
width = 1074;
},
{
layerId = "DCFFE7A7-A818-4955-884B-BB4CE5043B09";
shapes = (
{
closed = 1;
nodes = (
(624,0,l),
(624,1473,l),
(177,1473,l),
(177,0,l)
);
},
{
closed = 1;
nodes = (
(1167,1131,l),
(1167,1473,l),
(403,1473,l),
(403,1131,l)
);
},
{
closed = 1;
nodes = (
(665,0,l),
(862,372,l),
(529,372,l),
(529,0,l)
);
},
{
closed = 1;
nodes = (
(862,-384,l),
(862,372,l),
(459,372,l),
(542,-384,l)
);
}
);
width = 1206;
},
{
layerId = "4B50D27E-C53B-49C1-950D-105FFE0A0ACC";
shapes = (
{
closed = 1;
nodes = (
(545,0,l),
(545,1444,l),
(195,1444,l),
(195,0,l)
);
},
{
closed = 1;
nodes = (
(1122,1175,l),
(1122,1444,l),
(371,1444,l),
(371,1175,l)
);
},
{
closed = 1;
nodes = (
(614,0,l),
(770,290,l),
(465,290,l),
(465,0,l)
);
},
{
closed = 1;
nodes = (
(770,-382,l),
(770,290,l),
(450,290,l),
(516,-382,l)
);
}
);
width = 1163;
},
{
layerId = "BA9225F5-135B-4D21-ADB1-4407AF656753";
shapes = (
{
closed = 1;
nodes = (
(423,0,l),
(423,1399,l),
(223,1399,l),
(223,0,l)
);
},
{
closed = 1;
nodes = (
(1052,1243,l),
(1052,1399,l),
(321,1399,l),
(321,1243,l)
);
},
{
closed = 1;
nodes = (
(535,0,l),
(627,162,l),
(365,162,l),
(365,0,l)
);
},
{
closed = 1;
nodes = (
(627,-378,l),
(627,162,l),
(436,162,l),
(476,-378,l)
);
}
);
width = 1096;
}
);
unicode = 1270;
},
{
glyphname = Germandbls;
leftMetricsKey = Gamma;
rightMetricsKey = germandbls;
layers = (
{
layerId = "A2DAE9BC-C777-495C-976C-8ACFC7C9BBD2";
shapes = (
{
closed = 1;
nodes = (
(970,187,o),
(890,114,o),
(778,114,cs),
(714,114,o),
(607,138,o),
(529,177,c),
(512,165,l),
(484,43,l),
(565,5,o),
(700,-20,o),
(787,-20,cs),
(979,-20,o),
(1111,124,o),
(1111,298,cs),
(1111,562,o),
(714,647,o),
(714,803,cs),
(714,825,o),
(724,849,o),
(742,876,cs),
(1073,1400,l),
(912,1400,l),
(603,901,ls),
(576,857,o),
(560,820,o),
(560,785,cs),
(560,587,o),
(970,482,o),
(970,287,cs)
);
},
{
closed = 1;
nodes = (
(404,0,l),
(404,1465,l),
(244,1465,l),
(244,0,l)
);
},
{
closed = 1;
nodes = (
(1073,1400,l),
(1073,1465,l),
(322,1465,l),
(322,1342,l),
(967,1342,l)
);
}
);
width = 1197;
},
{
layerId = "DCFFE7A7-A818-4955-884B-BB4CE5043B09";
shapes = (
{
closed = 1;
nodes = (
(1049,269,o),
(1010,234,o),
(957,234,cs),
(906,234,o),
(826,264,o),
(741,314,c),
(715,299,l),
(667,26,l),
(774,-2,o),
(899,-20,o),
(991,-20,cs),
(1277,-20,o),
(1449,152,o),
(1449,396,cs),
(1449,684,o),
(1139,738,o),
(1139,842,cs),
(1139,855,o),
(1145,868,o),
(1154,883,cs),
(1389,1286,l),
(999,1286,l),
(789,883,ls),
(767,841,o),
(751,803,o),
(751,768,cs),
(751,588,o),
(1049,482,o),
(1049,333,cs)
);
},
{
closed = 1;
nodes = (
(623,0,l),
(623,1465,l),
(173,1465,l),
(173,0,l)
);
},
{
closed = 1;
nodes = (
(1389,1286,l),
(1389,1465,l),
(402,1465,l),
(402,1122,l),
(1141,1122,l)
);
}
);
width = 1493;
},
{
layerId = "4B50D27E-C53B-49C1-950D-105FFE0A0ACC";
shapes = (
{
closed = 1;
nodes = (
(1020,242,o),
(968,194,o),
(895,194,cs),
(840,194,o),
(751,222,o),
(668,268,c),
(645,254,l),
(604,32,l),
(702,0,o),
(830,-20,o),
(921,-20,cs),
(1176,-20,o),
(1334,143,o),
(1334,363,cs),
(1334,643,o),
(995,708,o),
(995,829,cs),
(995,845,o),
(1003,861,o),
(1015,880,cs),
(1282,1324,l),
(968,1324,l),
(725,889,ls),
(701,846,o),
(685,809,o),
(685,774,cs),
(685,587,o),
(1020,482,o),
(1020,318,cs)
);
},
{
closed = 1;
nodes = (
(548,0,l),
(548,1465,l),
(195,1465,l),
(195,0,l)
);
},
{
closed = 1;
nodes = (
(1282,1324,l),
(1282,1465,l),
(373,1465,l),
(373,1195,l),
(1081,1195,l)
);
}
);
width = 1392;
},
{
layerId = "BA9225F5-135B-4D21-ADB1-4407AF656753";
shapes = (
{
closed = 1;
nodes = (
(983,200,o),
(910,134,o),
(808,134,cs),
(746,134,o),
(643,159,o),
(564,200,c),
(546,187,l),
(514,40,l),
(600,4,o),
(733,-20,o),
(821,-20,cs),
(1028,-20,o),
(1167,128,o),
(1167,314,cs),
(1167,582,o),
(785,662,o),
(785,809,cs),
(785,830,o),
(794,852,o),
(810,877,cs),
(1125,1381,l),
(926,1381,l),
(634,898,ls),
(608,854,o),
(592,817,o),
(592,782,cs),
(592,587,o),
(983,482,o),
(983,294,cs)
);
},
{
closed = 1;
nodes = (
(440,0,l),
(440,1465,l),
(232,1465,l),
(232,0,l)
);
},
{
closed = 1;
nodes = (
(1125,1381,l),
(1125,1465,l),
(335,1465,l),
(335,1305,l),
(996,1305,l)
);
}
);
width = 1246;
}
);
unicode = 7838;
},
{
color = 8;
glyphname = "Gestrokehook-cy";
layers = (
{
layerId = "A2DAE9BC-C777-495C-976C-8ACFC7C9BBD2";
shapes = (
{
closed = 1;
nodes = (
(473,0,l),
(473,1465,l),
(311,1465,l),
(311,0,l)
);
},
{
closed = 1;
nodes = (
(376,-460,l),
(647,-460,o),
(781,-320,o),
(779,0,cs),
(777,105,l),
(398,105,l),
(398,0,l),
(645,0,l),
(645,-234,o),
(583,-373,o),
(376,-373,c)
);
},
{
closed = 1;
nodes = (
(806,685,l),
(806,795,l),
(93,795,l),
(93,685,l)
);
},
{
closed = 1;
nodes = (
(1230,1340,l),
(1230,1465,l),
(388,1465,l),
(388,1340,l)
);
}
);
width = 1299;
},
{
layerId = "DCFFE7A7-A818-4955-884B-BB4CE5043B09";
shapes = (
{
closed = 1;
nodes = (
(689,0,l),
(689,1465,l),
(240,1465,l),
(240,0,l)
);
},
{
closed = 1;
nodes = (
(346,-498,l),
(757,-498,o),
(956,-369,o),
(950,0,c),
(948,235,l),
(487,235,l),
(487,0,l),
(586,0,l),
(586,-151,o),
(575,-272,o),
(346,-272,c)
);
},
{
closed = 1;
nodes = (
(959,553,l),
(959,826,l),
(43,826,l),
(43,553,l)
);
},
{
closed = 1;
nodes = (
(1243,1123,l),
(1243,1465,l),
(467,1465,l),
(467,1123,l)
);
}
);
width = 1321;
},
{
layerId = "4B50D27E-C53B-49C1-950D-105FFE0A0ACC";
shapes = (
{
closed = 1;
nodes = (
(619,0,l),
(619,1465,l),
(263,1465,l),
(263,0,l)
);
},
{
closed = 1;
nodes = (
(356,-486,l),
(721,-486,o),
(899,-353,o),
(894,0,cs),
(892,193,l),
(458,193,l),
(458,0,l),
(605,0,l),
(605,-178,o),
(577,-305,o),
(356,-305,c)
);
},
{
closed = 1;
nodes = (
(909,596,l),
(909,816,l),
(59,816,l),
(59,596,l)
);
},
{
closed = 1;
nodes = (
(1239,1193,l),
(1239,1465,l),
(441,1465,l),
(441,1193,l)
);
}
);
width = 1314;
},
{
layerId = "BA9225F5-135B-4D21-ADB1-4407AF656753";
shapes = (
{
closed = 1;
nodes = (
(509,0,l),
(509,1465,l),
(299,1465,l),
(299,0,l)
);
},
{
closed = 1;
nodes = (
(371,-466,l),
(665,-466,o),
(810,-328,o),
(808,0,c),
(806,127,l),
(413,127,l),
(413,0,l),
(635,0,l),
(635,-220,o),
(581,-356,o),
(371,-356,c)
);
},
{
closed = 1;
nodes = (
(832,663,l),
(832,800,l),
(84,800,l),
(84,663,l)
);
},
{
closed = 1;
nodes = (
(1232,1303,l),
(1232,1465,l),
(401,1465,l),
(401,1303,l)
);
}
);
width = 1303;
}
);
unicode = 1274;
},
{
glyphname = "Ghemiddlehook-cy";
layers = (
{
layerId = "A2DAE9BC-C777-495C-976C-8ACFC7C9BBD2";
shapes = (
{
closed = 1;
nodes = (
(1108,-15,o),
(1241,198,o),
(1241,430,cs),
(1241,689,o),
(1089,825,o),
(823,825,cs),
(637,825,o),
(474,761,o),
(318,637,c),
(351,560,l),
(482,657,o),
(629,715,o),
(785,715,cs),
(996,715,o),
(1100,609,o),
(1100,403,cs),
(1100,220,o),
(1006,86,o),
(850,86,cs),
(800,86,o),
(743,102,o),
(694,129,c),
(649,51,l),
(697,19,o),
(766,-15,o),
(858,-15,cs)
);
},
{
closed = 1;
nodes = (
(379,0,l),
(379,1384,l),
(232,1384,l),
(232,0,l)
);
},
{
closed = 1;
nodes = (
(1104,1266,l),
(1104,1384,l),
(308,1384,l),
(308,1266,l)
);
}
);
width = 1340;
},
{
layerId = "DCFFE7A7-A818-4955-884B-BB4CE5043B09";
shapes = (
{
closed = 1;
nodes = (
(1318,-19,o),
(1444,253,o),
(1444,470,cs),
(1444,756,o),
(1270,911,o),
(1000,911,cs),
(808,911,o),
(627,847,o),
(537,781,c),
(561,521,l),
(614,558,o),
(715,592,o),
(828,592,cs),
(986,592,o),
(1050,520,o),
(1050,407,cs),
(1050,319,o),
(998,242,o),
(921,242,cs),
(889,242,o),
(853,252,o),
(820,267,c),
(724,73,l),
(768,21,o),
(858,-19,o),
(993,-19,cs)
);
},
{
closed = 1;
nodes = (
(598,0,l),
(598,1473,l),
(177,1473,l),
(177,0,l)
);
},
{
closed = 1;
nodes = (
(1248,1131,l),
(1248,1473,l),
(448,1473,l),
(448,1131,l)
);
}
);
width = 1523;
},
{
layerId = "4B50D27E-C53B-49C1-950D-105FFE0A0ACC";
shapes = (
{
closed = 1;
nodes = (
(1250,-18,o),
(1378,235,o),
(1378,457,cs),
(1378,734,o),
(1211,883,o),
(942,883,cs),
(752,883,o),
(577,819,o),
(466,734,c),
(493,533,l),
(571,590,o),
(687,632,o),
(814,632,cs),
(989,632,o),
(1066,549,o),
(1066,406,cs),
(1066,287,o),
(1000,191,o),
(898,191,cs),
(860,191,o),
(817,203,o),
(779,222,c),
(700,66,l),
(745,20,o),
(828,-18,o),
(949,-18,cs)
);
},
{
closed = 1;
nodes = (
(527,0,l),
(527,1444,l),
(195,1444,l),
(195,0,l)
);
},
{
closed = 1;
nodes = (
(1201,1175,l),
(1201,1444,l),
(402,1444,l),
(402,1175,l)
);
}
);
width = 1463;
},
{
layerId = "BA9225F5-135B-4D21-ADB1-4407AF656753";
shapes = (
{
closed = 1;
nodes = (
(1143,-16,o),
(1275,207,o),
(1275,437,cs),
(1275,700,o),
(1119,839,o),
(853,839,cs),
(666,839,o),
(500,775,o),
(355,661,c),
(386,553,l),
(504,640,o),
(643,694,o),
(792,694,cs),
(994,694,o),
(1091,594,o),
(1091,404,cs),
(1091,237,o),
(1004,112,o),
(862,112,cs),
(815,112,o),
(761,127,o),
(715,152,c),
(662,55,l),
(709,19,o),
(781,-16,o),
(881,-16,cs)
);
},
{
closed = 1;
nodes = (
(416,0,l),
(416,1399,l),
(223,1399,l),
(223,0,l)
);
},
{
closed = 1;
nodes = (
(1128,1243,l),
(1128,1399,l),
(331,1399,l),
(331,1243,l)
);
}
);
width = 1371;
}
);
unicode = 1172;
},
{
glyphname = "Ghestroke-cy";
layers = (
{
layerId = "A2DAE9BC-C777-495C-976C-8ACFC7C9BBD2";
shapes = (
{
closed = 1;
nodes = (
(446,0,l),
(446,1384,l),
(295,1384,l),
(295,0,l)
);
},
{
closed = 1;
nodes = (
(1092,1266,l),
(1092,1384,l),
(367,1384,l),
(367,1266,l)
);
},
{
closed = 1;
nodes = (
(762,644,l),
(762,749,l),
(89,749,l),
(89,644,l)
);
}
);
width = 1138;
},
{
layerId = "DCFFE7A7-A818-4955-884B-BB4CE5043B09";
shapes = (
{
closed = 1;
nodes = (
(690,0,l),
(690,1473,l),
(242,1473,l),
(242,0,l)
);
},
{
closed = 1;
nodes = (
(1232,1131,l),
(1232,1473,l),
(470,1473,l),
(470,1131,l)
);
},
{
closed = 1;
nodes = (
(986,555,l),
(986,827,l),
(45,827,l),
(45,555,l)
);
}
);
width = 1273;
},
{
layerId = "4B50D27E-C53B-49C1-950D-105FFE0A0ACC";
shapes = (
{
closed = 1;
nodes = (
(611,0,l),
(611,1444,l),
(259,1444,l),
(259,0,l)
);
},
{
closed = 1;
nodes = (
(1186,1175,l),
(1186,1444,l),
(436,1444,l),
(436,1175,l)
);
},
{
closed = 1;
nodes = (
(913,584,l),
(913,802,l),
(59,802,l),
(59,584,l)
);
}
);
width = 1229;
},
{
layerId = "BA9225F5-135B-4D21-ADB1-4407AF656753";
shapes = (
{
closed = 1;
nodes = (
(487,0,l),
(487,1399,l),
(286,1399,l),
(286,0,l)
);
},
{
closed = 1;
nodes = (
(1115,1243,l),
(1115,1399,l),
(384,1399,l),
(384,1243,l)
);
},
{
closed = 1;
nodes = (
(800,629,l),
(800,762,l),
(81,762,l),
(81,629,l)
);
}
);
width = 1161;
}
);
unicode = 1170;
},
{
glyphname = "Gheupturn-cy";
layers = (
{
layerId = "A2DAE9BC-C777-495C-976C-8ACFC7C9BBD2";
shapes = (
{
closed = 1;
nodes = (
(399,0,l),
(399,1465,l),
(227,1465,l),
(227,0,l)
);
},
{
closed = 1;
nodes = (
(1025,1331,l),
(1025,1465,l),
(311,1465,l),
(311,1331,l)
);
},
{
closed = 1;
nodes = (
(1025,1394,l),
(1025,1766,l),
(903,1766,l),
(870,1394,l)
);
}
);
width = 1084;
},
{
layerId = "DCFFE7A7-A818-4955-884B-BB4CE5043B09";
shapes = (
{
closed = 1;
nodes = (
(625,0,l),
(625,1465,l),
(175,1465,l),
(175,0,l)
);
},
{
closed = 1;
nodes = (
(1125,1122,l),
(1125,1465,l),
(403,1465,l),
(403,1122,l)
);
},
{
closed = 1;
nodes = (
(1125,1275,l),
(1125,1752,l),
(820,1752,l),
(747,1275,l)
);
}
);
width = 1206;
},
{
layerId = "4B50D27E-C53B-49C1-950D-105FFE0A0ACC";
shapes = (
{
closed = 1;
nodes = (
(551,0,l),
(551,1465,l),
(192,1465,l),
(192,0,l)
);
},
{
closed = 1;
nodes = (
(1093,1190,l),
(1093,1465,l),
(373,1465,l),
(373,1190,l)
);
},
{
closed = 1;
nodes = (
(1093,1314,l),
(1093,1756,l),
(847,1756,l),
(787,1314,l)
);
}
);
width = 1166;
},
{
layerId = "BA9225F5-135B-4D21-ADB1-4407AF656753";
shapes = (
{
closed = 1;
nodes = (
(437,0,l),
(437,1465,l),
(218,1465,l),
(218,0,l)
);
},
{
closed = 1;
nodes = (
(1042,1296,l),
(1042,1465,l),
(326,1465,l),
(326,1296,l)
);
},
{
closed = 1;
nodes = (
(1042,1374,l),
(1042,1763,l),
(889,1763,l),
(849,1374,l)
);
}
);
width = 1104;
}
);
leftKerningGroup = "I-cy";
unicode = 1168;
},
{
glyphname = H;
layers = (
{
layerId = "A2DAE9BC-C777-495C-976C-8ACFC7C9BBD2";
shapes = (
{
closed = 1;
nodes = (
(389,0,l),
(389,700,l),
(1218,700,l),
(1218,0,l),
(1379,0,l),
(1379,1465,l),
(1218,1465,l),
(1218,825,l),
(389,825,l),
(389,1465,l),
(229,1465,l),
(229,0,l)
);
}
);
width = 1607;
},
{
background = {
shapes = (
{
closed = 1;
nodes = (
(1067,0,l),
(1093,133,l),
(414,133,l),
(414,699,l),
(952,699,l),
(978,832,l),
(414,832,l),
(414,1331,l),
(1051,1331,l),
(1077,1465,l),
(218,1465,l),
(218,0,l)
);
}
);
};
layerId = "DCFFE7A7-A818-4955-884B-BB4CE5043B09";
shapes = (
{
closed = 1;
nodes = (
(611,0,l),
(611,624,l),
(1105,624,l),
(1105,0,l),
(1556,0,l),
(1556,1465,l),
(1105,1465,l),
(1105,881,l),
(611,881,l),
(611,1465,l),
(160,1465,l),
(160,0,l)
);
}
);
width = 1716;
},
{
layerId = "4B50D27E-C53B-49C1-950D-105FFE0A0ACC";
shapes = (
{
closed = 1;
nodes = (
(537,0,l),
(537,649,l),
(1143,649,l),
(1143,0,l),
(1497,0,l),
(1497,1465,l),
(1143,1465,l),
(1143,862,l),
(537,862,l),
(537,1465,l),
(183,1465,l),
(183,0,l)
);
}
);
width = 1680;
},
{
layerId = "BA9225F5-135B-4D21-ADB1-4407AF656753";
shapes = (
{
closed = 1;
nodes = (
(426,0,l),
(426,687,l),
(1199,687,l),
(1199,0,l),
(1408,0,l),
(1408,1465,l),
(1199,1465,l),
(1199,834,l),
(426,834,l),
(426,1465,l),
(217,1465,l),
(217,0,l)
);
}
);
width = 1625;
}
);
unicode = 72;
},
{
glyphname = "Haabkhasian-cy";
layers = (
{
layerId = "A2DAE9BC-C777-495C-976C-8ACFC7C9BBD2";
shapes = (
{
closed = 1;
nodes = (
(1360,-23,o),
(1678,345,o),
(1678,770,cs),
(1678,1129,o),
(1459,1384,o),
(1170,1384,cs),
(913,1384,o),
(682,1162,o),
(682,779,cs),
(682,280,o),
(1069,-18,o),
(1423,-18,cs),
(1549,-18,o),
(1669,18,o),
(1761,92,c),
(1717,163,l),
(1644,109,o),
(1554,74,o),
(1445,74,cs),
(1161,74,o),
(833,331,o),
(833,806,cs),
(833,1090,o),
(963,1283,o),
(1152,1283,cs),
(1371,1283,o),
(1519,1053,o),
(1519,748,cs),
(1519,377,o),
(1302,68,o),
(914,71,c),
(540,71,o),
(289,352,o),
(289,747,cs),
(289,1089,o),
(475,1343,o),
(799,1432,c),
(776,1492,l),
(384,1414,o),
(126,1108,o),
(126,724,cs),
(126,303,o),
(435,-18,o),
(889,-18,c)
);
}
);
width = 1805;
},
{
layerId = "DCFFE7A7-A818-4955-884B-BB4CE5043B09";
shapes = (
{
closed = 1;
nodes = (
(1415,-37,o),
(1828,347,o),
(1828,783,cs),
(1828,1097,o),
(1617,1403,o),
(1280,1403,cs),
(1002,1403,o),
(732,1202,o),
(732,789,cs),
(732,233,o),
(1234,-37,o),
(1568,-37,cs),
(1734,-37,o),
(1866,31,o),
(1914,66,c),
(1841,273,l),
(1776,230,o),
(1662,209,o),
(1592,209,cs),
(1344,209,o),
(1153,445,o),
(1153,867,cs),
(1153,1031,o),
(1173,1144,o),
(1241,1144,cs),
(1357,1144,o),
(1397,903,o),
(1397,723,cs),
(1397,384,o),
(1243,188,o),
(1006,187,c),
(779,187,o),
(544,377,o),
(544,802,cs),
(544,1034,o),
(615,1197,o),
(842,1343,c),
(762,1505,l),
(381,1421,o),
(104,1110,o),
(104,728,cs),
(104,295,o),
(460,-37,o),
(920,-37,c)
);
}
);
width = 1966;
},
{
layerId = "4B50D27E-C53B-49C1-950D-105FFE0A0ACC";
shapes = (
{
closed = 1;
nodes = (
(1397,-32,o),
(1779,346,o),
(1779,779,cs),
(1779,1107,o),
(1565,1397,o),
(1244,1397,cs),
(973,1397,o),
(716,1189,o),
(716,786,cs),
(716,248,o),
(1180,-31,o),
(1521,-31,cs),
(1674,-31,o),
(1802,27,o),
(1864,74,c),
(1801,237,l),
(1733,190,o),
(1627,165,o),
(1544,165,cs),
(1284,165,o),
(1049,408,o),
(1049,847,cs),
(1049,1050,o),
(1105,1189,o),
(1212,1189,cs),
(1361,1189,o),
(1437,952,o),
(1437,731,cs),
(1437,382,o),
(1262,149,o),
(976,149,c),
(701,149,o),
(461,369,o),
(461,784,cs),
(461,1052,o),
(569,1244,o),
(828,1372,c),
(766,1501,l),
(382,1419,o),
(111,1109,o),
(111,727,cs),
(111,297,o),
(452,-31,o),
(910,-31,c)
);
}
);
width = 1914;
},
{
layerId = "BA9225F5-135B-4D21-ADB1-4407AF656753";
shapes = (
{
closed = 1;
nodes = (
(1369,-25,o),
(1703,345,o),
(1703,772,cs),
(1703,1123,o),
(1485,1387,o),
(1188,1387,cs),
(928,1387,o),
(690,1169,o),
(690,781,cs),
(690,272,o),
(1097,-21,o),
(1447,-21,cs),
(1580,-21,o),
(1702,20,o),
(1787,87,c),
(1738,181,l),
(1666,129,o),
(1572,97,o),
(1470,97,cs),
(1192,97,o),
(887,350,o),
(887,816,cs),
(887,1080,o),
(998,1259,o),
(1167,1259,cs),
(1368,1259,o),
(1498,1028,o),
(1498,744,cs),
(1498,378,o),
(1292,88,o),
(929,90,c),
(580,90,o),
(332,356,o),
(332,756,cs),
(332,1080,o),
(498,1318,o),
(806,1417,c),
(773,1494,l),
(383,1415,o),
(122,1108,o),
(122,725,cs),
(122,301,o),
(439,-21,o),
(894,-21,c)
);
}
);
width = 1832;
}
);
unicode = 1192;
},
{
glyphname = "Hadescender-cy";
layers = (
{
layerId = "A2DAE9BC-C777-495C-976C-8ACFC7C9BBD2";
shapes = (
{
closed = 1;
nodes = (
(254,0,l),
(692,638,l),
(1145,0,l),
(1333,0,l),
(793,752,l),
(1312,1465,l),
(1138,1465,l),
(714,849,l),
(288,1465,l),
(98,1465,l),
(616,736,l),
(75,0,l)
);
},
{
closed = 1;
nodes = (
(1412,-400,l),
(1417,128,l),
(1257,128,l),
(1295,-398,l)
);
},
{
closed = 1;
nodes = (
(1196,0,l),
(1366,0,l),
(1366,128,l),
(1196,128,l)
);
}
);
width = 1452;
},
{
layerId = "DCFFE7A7-A818-4955-884B-BB4CE5043B09";
shapes = (
{
closed = 1;
nodes = (
(513,0,l),
(751,485,l),
(1004,0,l),
(1525,0,l),
(1018,744,l),
(1522,1465,l),
(1027,1465,l),
(785,984,l),
(532,1465,l),
(26,1465,l),
(511,732,l),
(7,0,l)
);
},
{
closed = 1;
nodes = (
(1579,-381,l),
(1590,382,l),
(1125,382,l),
(1248,-381,l)
);
},
{
closed = 1;
nodes = (
(1198,0,l),
(1458,0,l),
(1458,382,l),
(1198,382,l)
);
}
);
width = 1613;
},
{
layerId = "4B50D27E-C53B-49C1-950D-105FFE0A0ACC";
shapes = (
{
closed = 1;
nodes = (
(429,0,l),
(732,535,l),
(1050,0,l),
(1462,0,l),
(945,746,l),
(1454,1465,l),
(1063,1465,l),
(762,940,l),
(453,1465,l),
(49,1465,l),
(545,733,l),
(29,0,l)
);
},
{
closed = 1;
nodes = (
(1525,-387,l),
(1534,299,l),
(1168,299,l),
(1263,-387,l)
);
},
{
closed = 1;
nodes = (
(1197,0,l),
(1428,0,l),
(1428,299,l),
(1197,299,l)
);
}
);
width = 1561;
},
{
layerId = "BA9225F5-135B-4D21-ADB1-4407AF656753";
shapes = (
{
closed = 1;
nodes = (
(298,0,l),
(702,612,l),
(1121,0,l),
(1365,0,l),
(831,750,l),
(1347,1465,l),
(1119,1465,l),
(726,872,l),
(329,1465,l),
(86,1465,l),
(598,735,l),
(63,0,l)
);
},
{
closed = 1;
nodes = (
(1440,-397,l),
(1446,171,l),
(1235,171,l),
(1287,-395,l)
);
},
{
closed = 1;
nodes = (
(1196,0,l),
(1381,0,l),
(1381,171,l),
(1196,171,l)
);
}
);
width = 1479;
}
);
unicode = 1202;
},
{
glyphname = "Hahook-cy";
layers = (
{
layerId = "A2DAE9BC-C777-495C-976C-8ACFC7C9BBD2";
shapes = (
{
closed = 1;
nodes = (
(1259,-514,o),
(1389,-393,o),
(1389,-229,cs),
(1389,13,o),
(1089,436,o),
(776,843,cs),
(575,1104,o),
(382,1336,o),
(271,1465,c),
(94,1465,l),
(215,1326,o),
(454,1042,o),
(680,742,cs),
(972,358,o),
(1227,-36,o),
(1227,-222,cs),
(1227,-328,o),
(1155,-423,o),
(1021,-423,cs),
(960,-423,o),
(889,-404,o),
(841,-369,c),
(813,-444,l),
(875,-493,o),
(960,-514,o),
(1049,-514,cs)
);
},
{
closed = 1;
nodes = (
(257,0,l),
(753,713,l),
(798,768,l),
(1314,1465,l),
(1131,1465,l),
(707,878,l),
(660,819,l),
(71,0,l)
);
}
);
width = 1408;
},
{
layerId = "DCFFE7A7-A818-4955-884B-BB4CE5043B09";
shapes = (
{
closed = 1;
nodes = (
(1348,-554,o),
(1533,-412,o),
(1533,-120,cs),
(1533,153,o),
(1196,535,o),
(892,915,c),
(725,1129,o),
(590,1338,o),
(518,1465,c),
(22,1465,l),
(137,1287,o),
(373,977,o),
(597,675,cs),
(842,345,o),
(1062,53,o),
(1062,-96,cs),
(1062,-249,o),
(1015,-295,o),
(928,-295,cs),
(892,-295,o),
(850,-287,o),
(811,-276,c),
(738,-482,l),
(824,-531,o),
(920,-554,o),
(1039,-554,cs)
);
},
{
closed = 1;
nodes = (
(517,0,l),
(836,593,l),
(1020,733,l),
(1524,1465,l),
(1020,1465,l),
(756,973,l),
(567,838,l),
(3,0,l)
);
}
);
width = 1528;
},
{
layerId = "4B50D27E-C53B-49C1-950D-105FFE0A0ACC";
shapes = (
{
closed = 1;
nodes = (
(1319,-541,o),
(1486,-406,o),
(1486,-155,cs),
(1486,107,o),
(1161,503,o),
(854,892,c),
(676,1121,o),
(522,1337,o),
(438,1465,c),
(45,1465,l),
(162,1299,o),
(399,998,o),
(624,697,c),
(884,349,o),
(1116,24,o),
(1116,-137,cs),
(1116,-275,o),
(1060,-337,o),
(958,-337,cs),
(914,-337,o),
(862,-325,o),
(821,-306,c),
(762,-470,l),
(840,-519,o),
(933,-541,o),
(1042,-541,cs)
);
},
{
closed = 1;
nodes = (
(432,0,l),
(809,632,l),
(948,745,l),
(1456,1465,l),
(1056,1465,l),
(740,942,l),
(597,832,l),
(25,0,l)
);
}
);
width = 1489;
},
{
layerId = "BA9225F5-135B-4D21-ADB1-4407AF656753";
shapes = (
{
closed = 1;
nodes = (
(1274,-521,o),
(1413,-396,o),
(1413,-210,cs),
(1413,36,o),
(1107,453,o),
(795,855,cs),
(600,1108,o),
(417,1336,o),
(313,1465,c),
(82,1465,l),
(202,1319,o),
(440,1031,o),
(666,731,c),
(950,356,o),
(1199,-21,o),
(1199,-201,cs),
(1199,-315,o),
(1131,-401,o),
(1005,-401,cs),
(948,-401,o),
(882,-384,o),
(836,-353,c),
(800,-450,l),
(866,-499,o),
(953,-521,o),
(1047,-521,cs)
);
},
{
closed = 1;
nodes = (
(301,0,l),
(767,693,l),
(835,762,l),
(1349,1465,l),
(1112,1465,l),
(715,894,l),
(644,822,l),
(59,0,l)
);
}
);
width = 1428;
}
);
unicode = 1276;
},
{
glyphname = "Hardsign-cy";
layers = (
{
layerId = "A2DAE9BC-C777-495C-976C-8ACFC7C9BBD2";
shapes = (
{
closed = 1;
nodes = (
(914,0,ls),
(1247,0,o),
(1443,192,o),
(1443,472,cs),
(1443,739,o),
(1265,891,o),
(943,891,cs),
(574,891,l),
(574,775,l),
(916,775,ls),
(1178,775,o),
(1286,652,o),
(1286,454,cs),
(1286,250,o),
(1163,118,o),
(934,118,cs),
(617,118,l),
(617,1465,l),
(469,1465,l),
(469,0,l)
);
},
{
closed = 1;
nodes = (
(544,1340,l),
(544,1465,l),
(55,1465,l),
(55,1340,l)
);
}
);
width = 1555;
},
{
layerId = "DCFFE7A7-A818-4955-884B-BB4CE5043B09";
shapes = (
{
closed = 1;
nodes = (
(906,0,ls),
(1403,0,o),
(1640,222,o),
(1640,558,cs),
(1640,849,o),
(1426,1017,o),
(1047,1011,c),
(766,1011,l),
(766,708,l),
(929,708,ls),
(1128,708,o),
(1191,649,o),
(1191,517,cs),
(1191,388,o),
(1104,327,o),
(951,327,cs),
(813,327,l),
(813,1465,l),
(398,1465,l),
(398,0,l)
);
},
{
closed = 1;
nodes = (
(676,1123,l),
(676,1465,l),
(69,1465,l),
(69,1123,l)
);
}
);
width = 1713;
},
{
layerId = "4B50D27E-C53B-49C1-950D-105FFE0A0ACC";
shapes = (
{
closed = 1;
nodes = (
(908,0,ls),
(1352,0,o),
(1576,212,o),
(1576,530,cs),
(1576,813,o),
(1374,976,o),
(1013,972,c),
(703,972,l),
(703,730,l),
(925,730,ls),
(1144,730,o),
(1222,650,o),
(1222,496,cs),
(1222,343,o),
(1123,259,o),
(945,259,cs),
(749,259,l),
(749,1465,l),
(421,1465,l),
(421,0,l)
);
},
{
closed = 1;
nodes = (
(633,1193,l),
(633,1465,l),
(64,1465,l),
(64,1193,l)
);
}
);
width = 1661;
},
{
layerId = "BA9225F5-135B-4D21-ADB1-4407AF656753";
shapes = (
{
closed = 1;
nodes = (
(912,0,ls),
(1273,0,o),
(1476,197,o),
(1476,486,cs),
(1476,757,o),
(1292,912,o),
(960,911,c),
(606,911,l),
(606,764,l),
(918,764,ls),
(1169,764,o),
(1270,651,o),
(1270,464,cs),
(1270,273,o),
(1153,153,o),
(937,153,cs),
(650,153,l),
(650,1465,l),
(457,1465,l),
(457,0,l)
);
},
{
closed = 1;
nodes = (
(566,1303,l),
(566,1465,l),
(57,1465,l),
(57,1303,l)
);
}
);
width = 1581;
}
);
rightKerningGroup = "Hardsign-cy";
unicode = 1066;
},
{
color = 8;
glyphname = "Hastroke-cy";
layers = (
{
layerId = "A2DAE9BC-C777-495C-976C-8ACFC7C9BBD2";
shapes = (
{
closed = 1;
nodes = (
(257,0,l),
(697,642,l),
(1148,0,l),
(1325,0,l),
(776,741,l),
(1314,1465,l),
(1131,1465,l),
(702,844,l),
(268,1465,l),
(94,1465,l),
(620,746,l),
(71,0,l)
);
},
{
closed = 1;
nodes = (
(676,695,l),
(676,789,l),
(200,790,l),
(200,695,l)
);
},
{
closed = 1;
nodes = (
(1200,696,l),
(1200,791,l),
(723,791,l),
(723,696,l)
);
}
);
width = 1408;
},
{
layerId = "DCFFE7A7-A818-4955-884B-BB4CE5043B09";
shapes = (
{
closed = 1;
nodes = (
(517,0,l),
(756,495,l),
(1007,0,l),
(1516,0,l),
(995,737,l),
(1524,1465,l),
(1020,1465,l),
(773,972,l),
(518,1465,l),
(22,1465,l),
(531,738,l),
(3,0,l)
);
},
{
closed = 1;
nodes = (
(666,606,l),
(666,848,l),
(158,849,l),
(158,606,l)
);
},
{
closed = 1;
nodes = (
(1367,612,l),
(1367,852,l),
(858,852,l),
(858,612,l)
);
}
);
width = 1528;
},
{
layerId = "4B50D27E-C53B-49C1-950D-105FFE0A0ACC";
shapes = (
{
closed = 1;
nodes = (
(432,0,l),
(737,543,l),
(1053,0,l),
(1454,0,l),
(924,738,l),
(1456,1465,l),
(1056,1465,l),
(750,930,l),
(437,1465,l),
(45,1465,l),
(560,740,l),
(25,0,l)
);
},
{
closed = 1;
nodes = (
(669,635,l),
(669,829,l),
(172,830,l),
(172,635,l)
);
},
{
closed = 1;
nodes = (
(1313,639,l),
(1313,832,l),
(814,832,l),
(814,639,l)
);
}
);
width = 1489;
},
{
layerId = "BA9225F5-135B-4D21-ADB1-4407AF656753";
shapes = (
{
closed = 1;
nodes = (
(301,0,l),
(707,617,l),
(1124,0,l),
(1357,0,l),
(813,740,l),
(1349,1465,l),
(1112,1465,l),
(714,865,l),
(310,1465,l),
(82,1465,l),
(605,744,l),
(59,0,l)
);
},
{
closed = 1;
nodes = (
(674,680,l),
(674,799,l),
(193,800,l),
(193,680,l)
);
},
{
closed = 1;
nodes = (
(1228,682,l),
(1228,801,l),
(746,801,l),
(746,682,l)
);
}
);
width = 1428;
}
);
unicode = 1278;
},
{
color = (153, 155, 255, 255);
glyphname = Hbar;
layers = (
{
layerId = "A2DAE9BC-C777-495C-976C-8ACFC7C9BBD2";
shapes = (
{
closed = 1;
nodes = (
(322,1131,l),
(1294,1131,l),
(1294,1240,l),
(322,1240,l)
);
},
{
closed = 1;
nodes = (
(389,0,l),
(389,700,l),
(1218,700,l),
(1218,0,l),
(1379,0,l),
(1379,1465,l),
(1218,1465,l),
(1218,825,l),
(389,825,l),
(389,1465,l),
(229,1465,l),
(229,0,l)
);
}
);
width = 1607;
},
{
layerId = "DCFFE7A7-A818-4955-884B-BB4CE5043B09";
shapes = (
{
closed = 1;
nodes = (
(526,1045,l),
(1190,1045,l),
(1190,1326,l),
(526,1326,l)
);
},
{
closed = 1;
nodes = (
(611,0,l),
(611,624,l),
(1105,624,l),
(1105,0,l),
(1556,0,l),
(1556,1465,l),
(1105,1465,l),
(1105,881,l),
(611,881,l),
(611,1465,l),
(160,1465,l),
(160,0,l)
);
}
);
width = 1716;
},
{
layerId = "4B50D27E-C53B-49C1-950D-105FFE0A0ACC";
shapes = (
{
closed = 1;
nodes = (
(458,1073,l),
(1224,1073,l),
(1224,1297,l),
(458,1297,l)
);
},
{
closed = 1;
nodes = (
(537,0,l),
(537,649,l),
(1143,649,l),
(1143,0,l),
(1497,0,l),
(1497,1465,l),
(1143,1465,l),
(1143,862,l),
(537,862,l),
(537,1465,l),
(183,1465,l),
(183,0,l)
);
}
);
width = 1680;
},
{
layerId = "BA9225F5-135B-4D21-ADB1-4407AF656753";
shapes = (
{
closed = 1;
nodes = (
(356,1116,l),
(1276,1116,l),
(1276,1254,l),
(356,1254,l)
);
},
{
closed = 1;
nodes = (
(426,0,l),
(426,687,l),
(1199,687,l),
(1199,0,l),
(1408,0,l),
(1408,1465,l),
(1199,1465,l),
(1199,834,l),
(426,834,l),
(426,1465,l),
(217,1465,l),
(217,0,l)
);
}
);
width = 1625;
}
);
unicode = 294;
},
{
glyphname = I;
layers = (
{
layerId = "A2DAE9BC-C777-495C-976C-8ACFC7C9BBD2";
shapes = (
{
closed = 1;
nodes = (
(383,1465,l),
(229,1465,l),
(229,0,l),
(383,0,l)
);
}
);
width = 612;
},
{
background = {
shapes = (
{
closed = 1;
nodes = (
(216,0,l),
(212,122,o),
(208,244,o),
(208,369,cs),
(208,490,o),
(211,616,o),
(215,740,c),
(101,740,l),
(105,617,o),
(107,493,o),
(107,369,cs),
(107,246,o),
(105,124,o),
(101,0,c)
);
}
);
};
layerId = "DCFFE7A7-A818-4955-884B-BB4CE5043B09";
shapes = (
{
closed = 1;
nodes = (
(611,1465,l),
(160,1465,l),
(160,0,l),
(611,0,l)
);
}
);
width = 771;
},
{
layerId = "4B50D27E-C53B-49C1-950D-105FFE0A0ACC";
shapes = (
{
closed = 1;
nodes = (
(535,1465,l),
(183,1465,l),
(183,0,l),
(535,0,l)
);
}
);
width = 718;
},
{
layerId = "BA9225F5-135B-4D21-ADB1-4407AF656753";
shapes = (
{
closed = 1;
nodes = (
(421,1465,l),
(217,1465,l),
(217,0,l),
(421,0,l)
);
}
);
width = 638;
}
);
unicode = 73;
},
{
glyphname = "Ia-cy";
layers = (
{
layerId = "A2DAE9BC-C777-495C-976C-8ACFC7C9BBD2";
shapes = (
{
closed = 1;
nodes = (
(1158,0,l),
(1158,1465,l),
(743,1465,ls),
(421,1465,o),
(216,1306,o),
(216,1046,cs),
(216,786,o),
(428,631,o),
(730,631,cs),
(827,631,o),
(948,645,o),
(1059,674,c),
(1059,763,l),
(957,748,o),
(840,737,o),
(773,737,cs),
(514,737,o),
(370,868,o),
(370,1059,cs),
(370,1248,o),
(499,1350,o),
(730,1350,cs),
(1006,1350,l),
(1006,0,l)
);
},
{
closed = 1;
nodes = (
(714,672,l),
(598,713,l),
(78,0,l),
(266,0,l)
);
}
);
width = 1404;
},
{
layerId = "DCFFE7A7-A818-4955-884B-BB4CE5043B09";
shapes = (
{
closed = 1;
nodes = (
(1372,0,l),
(1372,1465,l),
(765,1465,ls),
(399,1465,o),
(149,1276,o),
(149,998,cs),
(149,697,o),
(450,539,o),
(726,539,cs),
(886,539,o),
(1027,561,o),
(1166,606,c),
(1166,856,l),
(1056,827,o),
(901,802,o),
(820,802,cs),
(681,802,o),
(598,887,o),
(598,991,cs),
(598,1113,o),
(682,1163,o),
(801,1163,cs),
(941,1163,l),
(941,0,l)
);
},
{
closed = 1;
nodes = (
(858,613,l),
(531,715,l),
(7,0,l),
(513,0,l)
);
}
);
width = 1544;
},
{
layerId = "4B50D27E-C53B-49C1-950D-105FFE0A0ACC";
shapes = (
{
closed = 1;
nodes = (
(1302,0,l),
(1302,1465,l),
(758,1465,ls),
(406,1465,o),
(171,1286,o),
(171,1014,cs),
(171,726,o),
(443,569,o),
(727,569,cs),
(867,569,o),
(1001,588,o),
(1131,628,c),
(1131,826,l),
(1024,801,o),
(881,781,o),
(805,781,cs),
(627,781,o),
(524,881,o),
(524,1013,cs),
(524,1157,o),
(622,1224,o),
(778,1224,cs),
(962,1224,l),
(962,0,l)
);
},
{
closed = 1;
nodes = (
(811,632,l),
(553,714,l),
(30,0,l),
(433,0,l)
);
}
);
width = 1498;
},
{
layerId = "BA9225F5-135B-4D21-ADB1-4407AF656753";
shapes = (
{
closed = 1;
nodes = (
(1194,0,l),
(1194,1465,l),
(747,1465,ls),
(417,1465,o),
(205,1301,o),
(205,1038,cs),
(205,771,o),
(432,615,o),
(729,615,cs),
(837,615,o),
(961,631,o),
(1077,662,c),
(1077,779,l),
(974,761,o),
(850,748,o),
(781,748,cs),
(542,748,o),
(408,871,o),
(408,1047,cs),
(408,1225,o),
(530,1318,o),
(742,1318,cs),
(995,1318,l),
(995,0,l)
);
},
{
closed = 1;
nodes = (
(738,662,l),
(587,713,l),
(66,0,l),
(308,0,l)
);
}
);
width = 1427;
}
);
rightKerningGroup = "I-cy1";
unicode = 1071;
},
{
glyphname = Idotaccent;
layers = (
{
layerId = "A2DAE9BC-C777-495C-976C-8ACFC7C9BBD2";
shapes = (
{
alignment = -1;
pos = (2,0);
ref = I;
},
{
alignment = -1;
pos = (1,0);
ref = dotaccent.cap;
}
);
width = 608;
},
{
background = {
shapes = (
{
closed = 1;
nodes = (
(203,0,l),
(199,115,o),
(195,230,o),
(195,349,cs),
(195,463,o),
(198,581,o),
(202,698,c),
(94,698,l),
(98,582,o),
(100,465,o),
(100,349,cs),
(100,232,o),
(98,117,o),
(94,0,c)
);
},
{
closed = 1;
nodes = (
(182,787,o),
(209,813,o),
(209,848,cs),
(209,881,o),
(183,907,o),
(150,907,cs),
(117,907,o),
(89,880,o),
(89,847,cs),
(89,812,o),
(113,787,o),
(148,787,cs)
);
}
);
};
layerId = "DCFFE7A7-A818-4955-884B-BB4CE5043B09";
shapes = (
{
alignment = -1;
ref = I;
},
{
alignment = -1;
pos = (-68,0);
ref = dotaccent.cap;
}
);
width = 770;
},
{
layerId = "4B50D27E-C53B-49C1-950D-105FFE0A0ACC";
shapes = (
{
alignment = -1;
ref = I;
},
{
alignment = -1;
pos = (-45,0);
ref = dotaccent.cap;
}
);
width = 716;
},
{
layerId = "BA9225F5-135B-4D21-ADB1-4407AF656753";
shapes = (
{
alignment = -1;
pos = (1,0);
ref = I;
},
{
alignment = -1;
pos = (-11,0);
ref = dotaccent.cap;
}
);
width = 635;
}
);
unicode = 304;
},
{
color = 9;
glyphname = Idotbelow;
layers = (
{
layerId = "A2DAE9BC-C777-495C-976C-8ACFC7C9BBD2";
shapes = (
{
closed = 1;
nodes = (
(409,-445,o),
(454,-402,o),
(454,-339,cs),
(454,-273,o),
(409,-232,o),
(344,-232,cs),
(278,-232,o),
(235,-273,o),
(235,-339,cs),
(235,-402,o),
(278,-445,o),
(344,-445,cs)
);
},
{
closed = 1;
nodes = (
(383,1465,l),
(229,1465,l),
(229,0,l),
(383,0,l)
);
}
);
width = 696;
},
{
layerId = "DCFFE7A7-A818-4955-884B-BB4CE5043B09";
shapes = (
{
closed = 1;
nodes = (
(560,-587,o),
(648,-502,o),
(648,-366,cs),
(648,-231,o),
(560,-143,o),
(421,-143,cs),
(278,-143,o),
(188,-231,o),
(188,-366,cs),
(188,-502,o),
(278,-587,o),
(421,-587,cs)
);
},
{
closed = 1;
nodes = (
(611,1465,l),
(160,1465,l),
(160,0,l),
(611,0,l)
);
}
);
width = 836;
},
{
layerId = "4B50D27E-C53B-49C1-950D-105FFE0A0ACC";
shapes = (
{
closed = 1;
nodes = (
(510,-539,o),
(583,-468,o),
(583,-357,cs),
(583,-245,o),
(510,-173,o),
(395,-173,cs),
(278,-173,o),
(204,-245,o),
(204,-357,cs),
(204,-468,o),
(278,-539,o),
(395,-539,cs)
);
},
{
closed = 1;
nodes = (
(535,1465,l),
(183,1465,l),
(183,0,l),
(535,0,l)
);
}
);
width = 789;
},
{
layerId = "BA9225F5-135B-4D21-ADB1-4407AF656753";
shapes = (
{
closed = 1;
nodes = (
(434,-468,o),
(486,-418,o),
(486,-343,cs),
(486,-266,o),
(434,-217,o),
(357,-217,cs),
(278,-217,o),
(227,-266,o),
(227,-343,cs),
(227,-418,o),
(278,-468,o),
(357,-468,cs)
);
},
{
closed = 1;
nodes = (
(421,1465,l),
(217,1465,l),
(217,0,l),
(421,0,l)
);
}
);
width = 719;
}
);
unicode = 7882;
},
{
color = 9;
glyphname = Ihookabove;
layers = (
{
layerId = "A2DAE9BC-C777-495C-976C-8ACFC7C9BBD2";
shapes = (
{
closed = 1;
nodes = (
(410,1552,l),
(412,1725,l),
(346,1668,l),
(517,1670,o),
(625,1747,o),
(625,1853,cs),
(625,1951,o),
(528,2031,o),
(373,2031,cs),
(298,2031,o),
(190,2012,o),
(113,1931,c),
(165,1868,l),
(204,1915,o),
(271,1938,o),
(342,1938,cs),
(432,1938,o),
(484,1897,o),
(484,1837,cs),
(484,1772,o),
(408,1728,o),
(279,1727,c),
(284,1552,l)
);
},
{
closed = 1;
nodes = (
(383,1465,l),
(229,1465,l),
(229,0,l),
(383,0,l)
);
}
);
width = 696;
},
{
layerId = "DCFFE7A7-A818-4955-884B-BB4CE5043B09";
shapes = (
{
closed = 1;
nodes = (
(570,1559,l),
(585,1780,l),
(433,1647,l),
(653,1662,o),
(767,1778,o),
(767,1900,cs),
(767,2018,o),
(650,2132,o),
(431,2132,cs),
(326,2132,o),
(207,2103,o),
(113,2045,c),
(205,1884,l),
(253,1908,o),
(303,1917,o),
(342,1917,cs),
(403,1917,o),
(433,1898,o),
(433,1855,cs),
(433,1809,o),
(361,1788,o),
(273,1782,c),
(288,1559,l)
);
},
{
closed = 1;
nodes = (
(611,1465,l),
(160,1465,l),
(160,0,l),
(611,0,l)
);
}
);
width = 836;
},
{
layerId = "4B50D27E-C53B-49C1-950D-105FFE0A0ACC";
shapes = (
{
closed = 1;
nodes = (
(516,1557,l),
(527,1762,l),
(404,1654,l),
(607,1664,o),
(719,1768,o),
(719,1884,cs),
(719,1996,o),
(609,2098,o),
(411,2098,cs),
(316,2098,o),
(201,2073,o),
(113,2007,c),
(191,1878,l),
(237,1910,o),
(292,1924,o),
(342,1924,cs),
(413,1924,o),
(450,1898,o),
(450,1849,cs),
(450,1797,o),
(377,1768,o),
(275,1764,c),
(286,1557,l)
);
},
{
closed = 1;
nodes = (
(535,1465,l),
(183,1465,l),
(183,0,l),
(535,0,l)
);
}
);
width = 789;
},
{
layerId = "BA9225F5-135B-4D21-ADB1-4407AF656753";
shapes = (
{
closed = 1;
nodes = (
(436,1553,l),
(441,1734,l),
(360,1664,l),
(539,1668,o),
(648,1752,o),
(648,1861,cs),
(648,1962,o),
(548,2048,o),
(382,2048,cs),
(302,2048,o),
(193,2027,o),
(113,1950,c),
(171,1870,l),
(212,1914,o),
(276,1934,o),
(342,1934,cs),
(427,1934,o),
(475,1897,o),
(475,1840,cs),
(475,1778,o),
(400,1738,o),
(278,1736,c),
(284,1553,l)
);
},
{
closed = 1;
nodes = (
(421,1465,l),
(217,1465,l),
(217,0,l),
(421,0,l)
);
}
);
width = 719;
}
);
unicode = 7880;
},
{
glyphname = "Ii-cy";
layers = (
{
layerId = "A2DAE9BC-C777-495C-976C-8ACFC7C9BBD2";
shapes = (
{
closed = 1;
nodes = (
(410,0,l),
(1408,1388,l),
(1408,1464,l),
(1314,1464,l),
(313,71,l),
(313,0,l)
);
},
{
closed = 1;
nodes = (
(388,0,l),
(400,1464,l),
(245,1464,l),
(245,0,l)
);
},
{
closed = 1;
nodes = (
(1477,0,l),
(1477,1464,l),
(1337,1464,l),
(1323,0,l)
);
}
);
width = 1722;
},
{
layerId = "DCFFE7A7-A818-4955-884B-BB4CE5043B09";
shapes = (
{
closed = 1;
nodes = (
(613,0,l),
(1343,1281,l),
(1343,1466,l),
(1112,1466,l),
(355,172,l),
(355,0,l)
);
},
{
closed = 1;
nodes = (
(559,0,l),
(596,1466,l),
(174,1466,l),
(174,0,l)
);
},
{
closed = 1;
nodes = (
(1555,0,l),
(1555,1466,l),
(1169,1466,l),
(1130,0,l)
);
}
);
width = 1726;
},
{
layerId = "4B50D27E-C53B-49C1-950D-105FFE0A0ACC";
shapes = (
{
closed = 1;
nodes = (
(547,0,l),
(1364,1316,l),
(1364,1465,l),
(1178,1465,l),
(341,139,l),
(341,0,l)
);
},
{
closed = 1;
nodes = (
(503,0,l),
(532,1465,l),
(197,1465,l),
(197,0,l)
);
},
{
closed = 1;
nodes = (
(1530,0,l),
(1530,1465,l),
(1223,1465,l),
(1193,0,l)
);
}
);
width = 1725;
},
{
layerId = "BA9225F5-135B-4D21-ADB1-4407AF656753";
shapes = (
{
closed = 1;
nodes = (
(444,0,l),
(1397,1370,l),
(1397,1464,l),
(1280,1464,l),
(320,88,l),
(320,0,l)
);
},
{
closed = 1;
nodes = (
(417,0,l),
(433,1464,l),
(233,1464,l),
(233,0,l)
);
},
{
closed = 1;
nodes = (
(1490,0,l),
(1490,1464,l),
(1308,1464,l),
(1290,0,l)
);
}
);
width = 1723;
}
);
leftKerningGroup = "I-cy";
rightKerningGroup = "I-cy1";
unicode = 1048;
},
{
glyphname = "Iigrave-cy";
layers = (
{
layerId = "A2DAE9BC-C777-495C-976C-8ACFC7C9BBD2";
shapes = (
{
closed = 1;
nodes = (
(410,0,l),
(1408,1388,l),
(1408,1464,l),
(1314,1464,l),
(313,71,l),
(313,0,l)
);
},
{
closed = 1;
nodes = (
(388,0,l),
(400,1464,l),
(245,1464,l),
(245,0,l)
);
},
{
closed = 1;
nodes = (
(1477,0,l),
(1477,1464,l),
(1337,1464,l),
(1323,0,l)
);
},
{
closed = 1;
nodes = (
(1056,1602,l),
(849,1920,l),
(667,1920,l),
(941,1602,l)
);
}
);
width = 1722;
},
{
layerId = "DCFFE7A7-A818-4955-884B-BB4CE5043B09";
shapes = (
{
closed = 1;
nodes = (
(613,0,l),
(1343,1281,l),
(1343,1466,l),
(1112,1466,l),
(355,172,l),
(355,0,l)
);
},
{
closed = 1;
nodes = (
(559,0,l),
(596,1466,l),
(174,1466,l),
(174,0,l)
);
},
{
closed = 1;
nodes = (
(1555,0,l),
(1555,1466,l),
(1169,1466,l),
(1130,0,l)
);
},
{
closed = 1;
nodes = (
(1174,1602,l),
(980,1972,l),
(553,1972,l),
(841,1602,l)
);
}
);
width = 1726;
},
{
layerId = "4B50D27E-C53B-49C1-950D-105FFE0A0ACC";
shapes = (
{
closed = 1;
nodes = (
(547,0,l),
(1364,1316,l),
(1364,1465,l),
(1178,1465,l),
(341,139,l),
(341,0,l)
);
},
{
closed = 1;
nodes = (
(503,0,l),
(532,1465,l),
(197,1465,l),
(197,0,l)
);
},
{
closed = 1;
nodes = (
(1530,0,l),
(1530,1465,l),
(1223,1465,l),
(1193,0,l)
);
},
{
closed = 1;
nodes = (
(1135,1602,l),
(937,1955,l),
(590,1955,l),
(874,1602,l)
);
}
);
width = 1725;
},
{
layerId = "BA9225F5-135B-4D21-ADB1-4407AF656753";
shapes = (
{
closed = 1;
nodes = (
(444,0,l),
(1397,1370,l),
(1397,1464,l),
(1280,1464,l),
(320,88,l),
(320,0,l)
);
},
{
closed = 1;
nodes = (
(417,0,l),
(433,1464,l),
(233,1464,l),
(233,0,l)
);
},
{
closed = 1;
nodes = (
(1490,0,l),
(1490,1464,l),
(1308,1464,l),
(1290,0,l)
);
},
{
closed = 1;
nodes = (
(1075,1602,l),
(870,1929,l),
(647,1929,l),
(924,1602,l)
);
}
);
width = 1723;
}
);
leftKerningGroup = "I-cy";
rightKerningGroup = "I-cy1";
unicode = 1037;
},
{
color = 8;
glyphname = "Iishorttail-cy";
layers = (
{
layerId = "A2DAE9BC-C777-495C-976C-8ACFC7C9BBD2";
shapes = (
{
closed = 1;
nodes = (
(425,0,l),
(1402,1380,l),
(1402,1465,l),
(1298,1465,l),
(317,79,l),
(317,0,l)
);
},
{
closed = 1;
nodes = (
(402,0,l),
(416,1465,l),
(240,1465,l),
(240,0,l)
);
},
{
closed = 1;
nodes = (
(1484,0,l),
(1484,1465,l),
(1323,1465,l),
(1308,0,l)
);
},
{
closed = 1;
nodes = (
(1639,0,l),
(1712,131,l),
(1449,131,l),
(1449,0,l)
);
},
{
closed = 1;
nodes = (
(1469,-433,l),
(1712,131,l),
(1530,131,l),
(1333,-433,l)
);
},
{
closed = 1;
nodes = (
(786,1720,o),
(707,1802,o),
(707,1920,c),
(584,1920,l),
(584,1739,o),
(688,1602,o),
(876,1602,cs),
(1066,1602,o),
(1191,1740,o),
(1191,1920,c),
(1068,1920,l),
(1068,1802,o),
(987,1720,o),
(887,1720,cs)
);
}
);
width = 1775;
},
{
layerId = "DCFFE7A7-A818-4955-884B-BB4CE5043B09";
shapes = (
{
closed = 1;
nodes = (
(628,0,l),
(1339,1273,l),
(1339,1465,l),
(1099,1465,l),
(357,180,l),
(357,0,l)
);
},
{
closed = 1;
nodes = (
(571,0,l),
(610,1465,l),
(169,1465,l),
(169,0,l)
);
},
{
closed = 1;
nodes = (
(1560,0,l),
(1560,1465,l),
(1159,1465,l),
(1117,0,l)
);
},
{
closed = 1;
nodes = (
(1646,0,l),
(1844,303,l),
(1468,303,l),
(1468,0,l)
);
},
{
closed = 1;
nodes = (
(1558,-434,l),
(1844,303,l),
(1345,303,l),
(1202,-434,l)
);
},
{
closed = 1;
nodes = (
(809,1834,o),
(777,1886,o),
(777,1972,c),
(528,1972,l),
(528,1726,o),
(638,1602,o),
(893,1602,cs),
(1145,1602,o),
(1278,1724,o),
(1278,1972,c),
(1029,1972,l),
(1029,1886,o),
(1004,1834,o),
(907,1834,cs)
);
}
);
width = 1806;
},
{
layerId = "4B50D27E-C53B-49C1-950D-105FFE0A0ACC";
shapes = (
{
closed = 1;
nodes = (
(560,0,l),
(1360,1309,l),
(1360,1465,l),
(1165,1465,l),
(343,146,l),
(343,0,l)
);
},
{
closed = 1;
nodes = (
(515,0,l),
(545,1465,l),
(193,1465,l),
(193,0,l)
);
},
{
closed = 1;
nodes = (
(1534,0,l),
(1534,1465,l),
(1213,1465,l),
(1181,0,l)
);
},
{
closed = 1;
nodes = (
(1644,0,l),
(1800,245,l),
(1462,245,l),
(1462,0,l)
);
},
{
closed = 1;
nodes = (
(1528,-434,l),
(1800,245,l),
(1407,245,l),
(1246,-434,l)
);
},
{
closed = 1;
nodes = (
(801,1796,o),
(753,1858,o),
(753,1954,c),
(546,1954,l),
(546,1730,o),
(654,1602,o),
(887,1602,cs),
(1118,1602,o),
(1248,1729,o),
(1248,1954,c),
(1041,1954,l),
(1041,1858,o),
(998,1796,o),
(899,1796,cs)
);
}
);
width = 1796;
},
{
layerId = "BA9225F5-135B-4D21-ADB1-4407AF656753";
shapes = (
{
closed = 1;
nodes = (
(459,0,l),
(1391,1362,l),
(1391,1465,l),
(1265,1465,l),
(323,96,l),
(323,0,l)
);
},
{
closed = 1;
nodes = (
(430,0,l),
(448,1465,l),
(228,1465,l),
(228,0,l)
);
},
{
closed = 1;
nodes = (
(1496,0,l),
(1496,1465,l),
(1295,1465,l),
(1276,0,l)
);
},
{
closed = 1;
nodes = (
(1640,0,l),
(1734,159,l),
(1452,159,l),
(1452,0,l)
);
},
{
closed = 1;
nodes = (
(1484,-433,l),
(1734,159,l),
(1499,159,l),
(1311,-433,l)
);
},
{
closed = 1;
nodes = (
(789,1739,o),
(718,1816,o),
(718,1928,c),
(574,1928,l),
(574,1737,o),
(679,1602,o),
(878,1602,cs),
(1078,1602,o),
(1205,1737,o),
(1205,1928,c),
(1061,1928,l),
(1061,1816,o),
(989,1739,o),
(889,1739,cs)
);
}
);
width = 1780;
}
);
leftKerningGroup = "Iu-cy";
rightKerningGroup = "Eltail-cy";
unicode = 1162;
},
{
glyphname = Iogonek;
layers = (
{
layerId = "A2DAE9BC-C777-495C-976C-8ACFC7C9BBD2";
shapes = (
{
closed = 1;
nodes = (
(383,1465,l),
(229,1465,l),
(229,28,l),
(129,-37,o),
(22,-139,o),
(22,-253,cs),
(22,-353,o),
(114,-432,o),
(225,-432,cs),
(297,-432,o),
(366,-399,o),
(423,-353,c),
(423,-283,l),
(390,-303,o),
(311,-327,o),
(261,-327,cs),
(194,-327,o),
(152,-286,o),
(152,-217,cs),
(152,-137,o),
(205,-66,o),
(323,0,c),
(383,0,l)
);
}
);
width = 610;
},
{
background = {
shapes = (
{
closed = 1;
nodes = (
(434,0,l),
(426,246,o),
(418,492,o),
(418,746,cs),
(418,990,o),
(424,1244,o),
(432,1494,c),
(202,1494,l),
(210,1246,o),
(214,996,o),
(214,746,cs),
(214,496,o),
(210,250,o),
(202,0,c),
(88,-86,o),
(26,-186,o),
(26,-276,cs),
(26,-380,o),
(112,-446,o),
(218,-446,cs),
(292,-446,o),
(356,-416,o),
(410,-366,c),
(368,-286,l),
(334,-306,o),
(296,-314,o),
(270,-314,cs),
(214,-314,o),
(176,-278,o),
(176,-222,cs),
(176,-148,o),
(246,-62,o),
(338,0,c)
);
}
);
};
layerId = "DCFFE7A7-A818-4955-884B-BB4CE5043B09";
shapes = (
{
closed = 1;
nodes = (
(611,1465,l),
(160,1465,l),
(160,1,l),
(65,-68,o),
(23,-149,o),
(23,-227,cs),
(23,-343,o),
(113,-435,o),
(257,-435,cs),
(365,-435,o),
(477,-382,o),
(521,-344,c),
(521,-209,l),
(494,-223,o),
(452,-228,o),
(423,-228,cs),
(335,-228,o),
(299,-168,o),
(299,-122,cs),
(299,-70,o),
(344,-31,o),
(390,0,c),
(611,0,l)
);
}
);
width = 771;
},
{
layerId = "4B50D27E-C53B-49C1-950D-105FFE0A0ACC";
shapes = (
{
closed = 1;
nodes = (
(535,1465,l),
(183,1465,l),
(183,10,l),
(86,-58,o),
(23,-145,o),
(23,-235,cs),
(23,-346,o),
(113,-434,o),
(246,-434,cs),
(342,-434,o),
(440,-388,o),
(488,-347,c),
(488,-233,l),
(459,-249,o),
(405,-261,o),
(369,-261,cs),
(288,-261,o),
(250,-207,o),
(250,-154,cs),
(250,-92,o),
(298,-43,o),
(368,0,c),
(535,0,l)
);
}
);
width = 717;
},
{
layerId = "BA9225F5-135B-4D21-ADB1-4407AF656753";
shapes = (
{
closed = 1;
nodes = (
(421,1465,l),
(217,1465,l),
(217,23,l),
(118,-42,o),
(22,-140,o),
(22,-248,cs),
(22,-351,o),
(114,-432,o),
(230,-432,cs),
(308,-432,o),
(384,-396,o),
(439,-351,c),
(439,-270,l),
(407,-289,o),
(334,-310,o),
(288,-310,cs),
(217,-310,o),
(176,-266,o),
(176,-201,cs),
(176,-126,o),
(228,-60,o),
(334,0,c),
(421,0,l)
);
}
);
width = 637;
}
);
unicode = 302;
},
{
glyphname = Iotatonos;
rightMetricsKey = I;
layers = (
{
layerId = "A2DAE9BC-C777-495C-976C-8ACFC7C9BBD2";
shapes = (
{
closed = 1;
nodes = (
(255,1465,l),
(84,1465,l),
(-35,863,l),
(96,863,l)
);
},
{
closed = 1;
nodes = (
(573,1465,l),
(419,1465,l),
(419,0,l),
(573,0,l)
);
}
);
width = 802;
},
{
layerId = "DCFFE7A7-A818-4955-884B-BB4CE5043B09";
shapes = (
{
closed = 1;
nodes = (
(514,1465,l),
(74,1465,l),
(-6,876,l),
(331,876,l)
);
},
{
closed = 1;
nodes = (
(1082,1465,l),
(631,1465,l),
(631,0,l),
(1082,0,l)
);
}
);
width = 1242;
},
{
layerId = "4B50D27E-C53B-49C1-950D-105FFE0A0ACC";
shapes = (
{
closed = 1;
nodes = (
(428,1465,l),
(77,1465,l),
(-16,872,l),
(253,872,l)
);
},
{
closed = 1;
nodes = (
(912,1465,l),
(560,1465,l),
(560,0,l),
(912,0,l)
);
}
);
width = 1095;
},
{
layerId = "BA9225F5-135B-4D21-ADB1-4407AF656753";
shapes = (
{
closed = 1;
nodes = (
(298,1465,l),
(82,1465,l),
(-30,865,l),
(135,865,l)
);
},
{
closed = 1;
nodes = (
(658,1465,l),
(454,1465,l),
(454,0,l),
(658,0,l)
);
}
);
width = 875;
}
);
rightKerningGroup = Nu1;
unicode = 906;
},
{
glyphname = "Iu-cy";
layers = (
{
layerId = "A2DAE9BC-C777-495C-976C-8ACFC7C9BBD2";
shapes = (
{
closed = 1;
nodes = (
(1845,-20,o),
(2170,302,o),
(2170,741,cs),
(2170,1165,o),
(1865,1484,o),
(1459,1484,cs),
(1046,1484,o),
(744,1165,o),
(744,726,cs),
(744,300,o),
(1025,-20,o),
(1440,-20,cs)
);
},
{
closed = 1;
nodes = (
(401,0,l),
(401,1465,l),
(245,1465,l),
(245,0,l)
);
},
{
closed = 1;
nodes = (
(833,681,l),
(833,803,l),
(294,803,l),
(294,681,l)
);
},
{
closed = 1;
nodes = (
(1128,92,o),
(906,360,o),
(906,745,cs),
(906,1117,o),
(1116,1369,o),
(1441,1369,cs),
(1764,1369,o),
(2003,1103,o),
(2003,718,cs),
(2003,342,o),
(1776,92,o),
(1460,92,cs)
);
}
);
width = 2296;
},
{
layerId = "DCFFE7A7-A818-4955-884B-BB4CE5043B09";
shapes = (
{
closed = 1;
nodes = (
(1929,-40,o),
(2269,283,o),
(2269,755,cs),
(2269,1208,o),
(1966,1503,o),
(1534,1503,cs),
(1093,1503,o),
(794,1213,o),
(794,723,cs),
(794,258,o),
(1067,-40,o),
(1493,-40,cs)
);
},
{
closed = 1;
nodes = (
(615,0,l),
(615,1465,l),
(174,1465,l),
(174,0,l)
);
},
{
closed = 1;
nodes = (
(1052,572,l),
(1052,910,l),
(284,910,l),
(284,572,l)
);
},
{
closed = 1;
nodes = (
(1350,250,o),
(1251,396,o),
(1251,738,cs),
(1251,1052,o),
(1332,1204,o),
(1504,1204,cs),
(1680,1204,o),
(1778,1038,o),
(1778,705,cs),
(1778,397,o),
(1696,250,o),
(1527,250,cs)
);
}
);
width = 2370;
},
{
layerId = "4B50D27E-C53B-49C1-950D-105FFE0A0ACC";
shapes = (
{
closed = 1;
nodes = (
(1902,-33,o),
(2237,289,o),
(2237,750,cs),
(2237,1194,o),
(1933,1497,o),
(1510,1497,cs),
(1078,1497,o),
(778,1197,o),
(778,724,cs),
(778,272,o),
(1053,-33,o),
(1476,-33,cs)
);
},
{
closed = 1;
nodes = (
(545,0,l),
(545,1465,l),
(197,1465,l),
(197,0,l)
);
},
{
closed = 1;
nodes = (
(981,607,l),
(981,875,l),
(287,875,l),
(287,607,l)
);
},
{
closed = 1;
nodes = (
(1278,198,o),
(1139,384,o),
(1139,740,cs),
(1139,1073,o),
(1262,1258,o),
(1483,1258,cs),
(1707,1258,o),
(1851,1059,o),
(1851,709,cs),
(1851,379,o),
(1722,198,o),
(1505,198,cs)
);
}
);
width = 2346;
},
{
layerId = "BA9225F5-135B-4D21-ADB1-4407AF656753";
shapes = (
{
closed = 1;
nodes = (
(1859,-23,o),
(2187,299,o),
(2187,743,cs),
(2187,1172,o),
(1882,1487,o),
(1472,1487,cs),
(1054,1487,o),
(752,1173,o),
(752,725,cs),
(752,293,o),
(1032,-23,o),
(1449,-23,cs)
);
},
{
closed = 1;
nodes = (
(437,0,l),
(437,1465,l),
(233,1465,l),
(233,0,l)
);
},
{
closed = 1;
nodes = (
(870,662,l),
(870,821,l),
(292,821,l),
(292,662,l)
);
},
{
closed = 1;
nodes = (
(1165,118,o),
(964,366,o),
(964,744,cs),
(964,1106,o),
(1152,1341,o),
(1451,1341,cs),
(1750,1341,o),
(1965,1092,o),
(1965,716,cs),
(1965,351,o),
(1762,118,o),
(1471,118,cs)
);
}
);
width = 2308;
}
);
leftKerningGroup = "Iu-cy";
unicode = 1070;
},
{
glyphname = "Izhitsa-cy";
layers = (
{
layerId = "A2DAE9BC-C777-495C-976C-8ACFC7C9BBD2";
shapes = (
{
closed = 1;
nodes = (
(847,0,l),
(1248,1145,ls),
(1303,1301,o),
(1361,1373,o),
(1442,1373,cs),
(1472,1373,o),
(1504,1365,o),
(1537,1339,c),
(1578,1422,l),
(1525,1461,o),
(1459,1484,o),
(1388,1484,cs),
(1269,1484,o),
(1179,1393,o),
(1111,1177,cs),
(741,44,l),
(823,44,l),
(262,1465,l),
(96,1465,l),
(690,0,l)
);
}
);
width = 1570;
},
{
layerId = "DCFFE7A7-A818-4955-884B-BB4CE5043B09";
shapes = (
{
closed = 1;
nodes = (
(1039,0,l),
(1372,1083,l),
(1395,1154,o),
(1432,1190,o),
(1496,1190,cs),
(1519,1190,o),
(1544,1184,o),
(1575,1177,c),
(1685,1422,l),
(1572,1468,o),
(1455,1497,o),
(1345,1497,cs),
(1160,1497,o),
(1026,1403,o),
(978,1164,c),
(766,148,l),
(876,148,l),
(516,1465,l),
(28,1465,l),
(531,0,l)
);
}
);
width = 1613;
},
{
layerId = "4B50D27E-C53B-49C1-950D-105FFE0A0ACC";
shapes = (
{
closed = 1;
nodes = (
(976,0,l),
(1332,1103,l),
(1365,1202,o),
(1409,1250,o),
(1478,1250,cs),
(1504,1250,o),
(1531,1243,o),
(1563,1229,c),
(1650,1422,l),
(1557,1466,o),
(1456,1493,o),
(1359,1493,cs),
(1195,1493,o),
(1076,1400,o),
(1021,1168,c),
(758,114,l),
(859,114,l),
(433,1465,l),
(50,1465,l),
(583,0,l)
);
}
);
width = 1599;
},
{
layerId = "BA9225F5-135B-4D21-ADB1-4407AF656753";
shapes = (
{
closed = 1;
nodes = (
(879,0,l),
(1269,1134,ls),
(1318,1276,o),
(1373,1342,o),
(1451,1342,cs),
(1480,1342,o),
(1511,1334,o),
(1543,1311,c),
(1596,1422,l),
(1533,1462,o),
(1458,1486,o),
(1381,1486,cs),
(1250,1486,o),
(1153,1395,o),
(1088,1175,c),
(745,61,l),
(832,61,l),
(305,1465,l),
(84,1465,l),
(663,0,l)
);
}
);
width = 1577;
}
);
unicode = 1140;
},
{
glyphname = J;
layers = (
{
layerId = "A2DAE9BC-C777-495C-976C-8ACFC7C9BBD2";
shapes = (
{
closed = 1;
nodes = (
(15,-452,l),
(343,-272,o),
(385,8,o),
(385,243,cs),
(385,1465,l),
(230,1465,l),
(230,233,ls),
(230,5,o),
(215,-212,o),
(-41,-378,c)
);
}
);
width = 613;
},
{
background = {
shapes = (
{
closed = 0;
nodes = (
(110,34,l),
(110,-61,o),
(90,-171,o),
(-13,-252,c),
(14,-294,l),
(159,-216,o),
(208,-75,o),
(208,54,c)
);
}
);
};
layerId = "DCFFE7A7-A818-4955-884B-BB4CE5043B09";
shapes = (
{
closed = 1;
nodes = (
(-42,-517,l),
(384,-376,o),
(612,-146,o),
(612,322,cs),
(612,1465,l),
(160,1465,l),
(160,225,ls),
(160,-80,o),
(67,-201,o),
(-149,-343,c)
);
}
);
width = 771;
},
{
layerId = "4B50D27E-C53B-49C1-950D-105FFE0A0ACC";
shapes = (
{
closed = 1;
nodes = (
(-23,-495,l),
(370,-341,o),
(536,-95,o),
(536,296,cs),
(536,1465,l),
(183,1465,l),
(183,227,ls),
(183,-52,o),
(116,-205,o),
(-113,-355,c)
);
}
);
width = 718;
},
{
layerId = "BA9225F5-135B-4D21-ADB1-4407AF656753";
shapes = (
{
closed = 1;
nodes = (
(5,-463,l),
(350,-289,o),
(423,-18,o),
(423,256,cs),
(423,1465,l),
(218,1465,l),
(218,231,ls),
(218,-9,o),
(190,-210,o),
(-59,-372,c)
);
}
);
width = 639;
}
);
unicode = 74;
},
{
glyphname = K;
layers = (
{
anchors = (
{
name = bottom;
position = "{808, 0}";
},
{
name = top;
position = "{810, 1465}";
}
);
layerId = "A2DAE9BC-C777-495C-976C-8ACFC7C9BBD2";
shapes = (
{
closed = 1;
nodes = (
(1365,0,l),
(546,812,l),
(537,724,l),
(1266,1465,l),
(1066,1465,l),
(398,754,l),
(1123,0,l)
);
},
{
closed = 1;
nodes = (
(417,0,l),
(417,1465,l),
(239,1465,l),
(239,0,l)
);
}
);
width = 1387;
},
{
anchors = (
{
name = bottom;
position = "{850, 0}";
},
{
name = top;
position = "{863, 1465}";
}
);
layerId = "DCFFE7A7-A818-4955-884B-BB4CE5043B09";
shapes = (
{
closed = 1;
nodes = (
(1660,0,l),
(967,919,l),
(958,699,l),
(1555,1465,l),
(1064,1465,l),
(605,749,l),
(1098,0,l)
);
},
{
closed = 1;
nodes = (
(636,0,l),
(636,1465,l),
(168,1465,l),
(168,0,l)
);
}
);
width = 1627;
},
{
anchors = (
{
name = bottom;
position = "{836, 0}";
},
{
name = top;
position = "{845, 1465}";
}
);
layerId = "4B50D27E-C53B-49C1-950D-105FFE0A0ACC";
shapes = (
{
closed = 1;
nodes = (
(1562,0,l),
(827,883,l),
(818,707,l),
(1459,1465,l),
(1064,1465,l),
(536,751,l),
(1106,0,l)
);
},
{
closed = 1;
nodes = (
(563,0,l),
(563,1465,l),
(192,1465,l),
(192,0,l)
);
}
);
width = 1547;
},
{
anchors = (
{
name = bottom;
position = "{815, 0}";
},
{
name = top;
position = "{819, 1465}";
}
);
layerId = "BA9225F5-135B-4D21-ADB1-4407AF656753";
shapes = (
{
closed = 1;
nodes = (
(1414,0,l),
(616,830,l),
(607,720,l),
(1314,1465,l),
(1065,1465,l),
(432,753,l),
(1119,0,l)
);
},
{
closed = 1;
nodes = (
(453,0,l),
(453,1465,l),
(227,1465,l),
(227,0,l)
);
}
);
width = 1427;
}
);
rightKerningGroup = _K_Left;
unicode = 75;
},
{
glyphname = "Kabashkir-cy";
layers = (
{
layerId = "A2DAE9BC-C777-495C-976C-8ACFC7C9BBD2";
shapes = (
{
closed = 1;
nodes = (
(576,1323,l),
(576,1465,l),
(56,1465,l),
(56,1323,l)
);
},
{
closed = 1;
nodes = (
(1619,0,l),
(800,812,l),
(791,724,l),
(1520,1465,l),
(1320,1465,l),
(652,754,l),
(1377,0,l)
);
},
{
closed = 1;
nodes = (
(671,0,l),
(671,1465,l),
(493,1465,l),
(493,0,l)
);
}
);
width = 1654;
},
{
layerId = "DCFFE7A7-A818-4955-884B-BB4CE5043B09";
shapes = (
{
closed = 1;
nodes = (
(733,1108,l),
(733,1465,l),
(70,1465,l),
(70,1108,l)
);
},
{
closed = 1;
nodes = (
(1927,0,l),
(1234,919,l),
(1225,699,l),
(1822,1465,l),
(1331,1465,l),
(872,749,l),
(1365,0,l)
);
},
{
closed = 1;
nodes = (
(903,0,l),
(903,1465,l),
(435,1465,l),
(435,0,l)
);
}
);
width = 1884;
},
{
layerId = "4B50D27E-C53B-49C1-950D-105FFE0A0ACC";
shapes = (
{
closed = 1;
nodes = (
(681,1180,l),
(681,1465,l),
(65,1465,l),
(65,1180,l)
);
},
{
closed = 1;
nodes = (
(1825,0,l),
(1090,883,l),
(1081,707,l),
(1722,1465,l),
(1327,1465,l),
(799,751,l),
(1369,0,l)
);
},
{
closed = 1;
nodes = (
(826,0,l),
(826,1465,l),
(455,1465,l),
(455,0,l)
);
}
);
width = 1807;
},
{
layerId = "BA9225F5-135B-4D21-ADB1-4407AF656753";
shapes = (
{
closed = 1;
nodes = (
(602,1287,l),
(602,1465,l),
(58,1465,l),
(58,1287,l)
);
},
{
closed = 1;
nodes = (
(1670,0,l),
(872,830,l),
(863,720,l),
(1570,1465,l),
(1321,1465,l),
(688,753,l),
(1375,0,l)
);
},
{
closed = 1;
nodes = (
(709,0,l),
(709,1465,l),
(483,1465,l),
(483,0,l)
);
}
);
width = 1692;
}
);
unicode = 1184;
},
{
glyphname = "Kadescender-cy";
layers = (
{
layerId = "A2DAE9BC-C777-495C-976C-8ACFC7C9BBD2";
shapes = (
{
closed = 1;
nodes = (
(1432,-398,l),
(1438,148,l),
(1255,148,l),
(1299,-397,l)
);
},
{
closed = 1;
nodes = (
(1203,0,l),
(1380,0,l),
(1380,148,l),
(1203,148,l)
);
},
{
closed = 1;
nodes = (
(1365,0,l),
(546,812,l),
(537,724,l),
(1266,1465,l),
(1066,1465,l),
(398,754,l),
(1123,0,l)
);
},
{
closed = 1;
nodes = (
(417,0,l),
(417,1465,l),
(239,1465,l),
(239,0,l)
);
}
);
width = 1433;
},
{
layerId = "DCFFE7A7-A818-4955-884B-BB4CE5043B09";
shapes = (
{
closed = 1;
nodes = (
(1655,-380,l),
(1667,400,l),
(1181,400,l),
(1311,-380,l)
);
},
{
closed = 1;
nodes = (
(1263,0,l),
(1529,0,l),
(1529,400,l),
(1263,400,l)
);
},
{
closed = 1;
nodes = (
(1660,0,l),
(967,919,l),
(958,699,l),
(1555,1465,l),
(1064,1465,l),
(605,749,l),
(1098,0,l)
);
},
{
closed = 1;
nodes = (
(636,0,l),
(636,1465,l),
(168,1465,l),
(168,0,l)
);
}
);
width = 1732;
},
{
layerId = "4B50D27E-C53B-49C1-950D-105FFE0A0ACC";
shapes = (
{
closed = 1;
nodes = (
(1581,-386,l),
(1591,316,l),
(1205,316,l),
(1307,-386,l)
);
},
{
closed = 1;
nodes = (
(1243,0,l),
(1479,0,l),
(1479,316,l),
(1243,316,l)
);
},
{
closed = 1;
nodes = (
(1562,0,l),
(827,883,l),
(818,707,l),
(1459,1465,l),
(1064,1465,l),
(536,751,l),
(1106,0,l)
);
},
{
closed = 1;
nodes = (
(563,0,l),
(563,1465,l),
(192,1465,l),
(192,0,l)
);
}
);
width = 1632;
},
{
layerId = "BA9225F5-135B-4D21-ADB1-4407AF656753";
shapes = (
{
closed = 1;
nodes = (
(1469,-395,l),
(1476,190,l),
(1242,190,l),
(1301,-394,l)
);
},
{
closed = 1;
nodes = (
(1213,0,l),
(1405,0,l),
(1405,190,l),
(1213,190,l)
);
},
{
closed = 1;
nodes = (
(1414,0,l),
(616,830,l),
(607,720,l),
(1314,1465,l),
(1065,1465,l),
(432,753,l),
(1119,0,l)
);
},
{
closed = 1;
nodes = (
(453,0,l),
(453,1465,l),
(227,1465,l),
(227,0,l)
);
}
);
width = 1483;
}
);
leftKerningGroup = "Iu-cy";
unicode = 1178;
},
{
color = 9;
glyphname = "Kahook-cy";
layers = (
{
layerId = "A2DAE9BC-C777-495C-976C-8ACFC7C9BBD2";
shapes = (
{
closed = 1;
nodes = (
(1319,-514,o),
(1453,-379,o),
(1453,-171,cs),
(1453,273,o),
(874,605,o),
(521,787,c),
(533,709,l),
(1361,1465,l),
(1172,1465,l),
(387,704,l),
(723,535,o),
(1291,214,o),
(1291,-172,cs),
(1291,-305,o),
(1227,-423,o),
(1072,-423,cs),
(1008,-423,o),
(928,-401,o),
(873,-360,c),
(839,-432,l),
(911,-489,o),
(1007,-514,o),
(1101,-514,cs)
);
},
{
closed = 1;
nodes = (
(402,0,l),
(402,1465,l),
(245,1465,l),
(245,0,l)
);
}
);
width = 1478;
},
{
layerId = "DCFFE7A7-A818-4955-884B-BB4CE5043B09";
shapes = (
{
closed = 1;
nodes = (
(1445,-554,o),
(1638,-369,o),
(1638,-87,cs),
(1638,242,o),
(1329,624,o),
(950,901,c),
(955,695,l),
(1563,1465,l),
(1061,1465,l),
(596,714,l),
(858,513,o),
(1168,121,o),
(1168,-128,cs),
(1168,-224,o),
(1128,-295,o),
(1019,-295,cs),
(983,-295,o),
(942,-287,o),
(904,-277,c),
(835,-482,l),
(915,-531,o),
(1011,-554,o),
(1133,-554,cs)
);
},
{
closed = 1;
nodes = (
(621,0,l),
(621,1465,l),
(174,1465,l),
(174,0,l)
);
}
);
width = 1645;
},
{
layerId = "4B50D27E-C53B-49C1-950D-105FFE0A0ACC";
shapes = (
{
closed = 1;
nodes = (
(1404,-541,o),
(1578,-372,o),
(1578,-114,cs),
(1578,252,o),
(1181,618,o),
(810,864,c),
(818,699,l),
(1497,1465,l),
(1097,1465,l),
(528,711,l),
(814,520,o),
(1208,151,o),
(1208,-142,cs),
(1208,-250,o),
(1160,-337,o),
(1036,-337,cs),
(991,-337,o),
(937,-324,o),
(894,-304,c),
(836,-466,l),
(914,-517,o),
(1010,-541,o),
(1123,-541,cs)
);
},
{
closed = 1;
nodes = (
(550,0,l),
(550,1465,l),
(197,1465,l),
(197,0,l)
);
}
);
width = 1591;
},
{
layerId = "BA9225F5-135B-4D21-ADB1-4407AF656753";
shapes = (
{
closed = 1;
nodes = (
(1340,-521,o),
(1484,-377,o),
(1484,-157,cs),
(1484,268,o),
(951,608,o),
(593,806,c),
(604,706,l),
(1395,1465,l),
(1153,1465,l),
(422,706,l),
(746,531,o),
(1270,198,o),
(1270,-164,cs),
(1270,-291,o),
(1210,-401,o),
(1063,-401,cs),
(1004,-401,o),
(930,-382,o),
(878,-346,c),
(838,-440,l),
(912,-496,o),
(1008,-521,o),
(1106,-521,cs)
);
},
{
closed = 1;
nodes = (
(439,0,l),
(439,1465,l),
(233,1465,l),
(233,0,l)
);
}
);
width = 1506;
}
);
leftKerningGroup = "Enhook-cy";
unicode = 1219;
},
{
glyphname = KaiSymbol;
layers = (
{
layerId = "A2DAE9BC-C777-495C-976C-8ACFC7C9BBD2";
shapes = (
{
closed = 1;
nodes = (
(923,-640,l),
(1027,-406,o),
(1166,-193,o),
(1343,0,c),
(514,805,l),
(505,727,l),
(1244,1465,l),
(1066,1465,l),
(382,754,l),
(1206,-86,l),
(1221,31,l),
(1033,-152,o),
(887,-355,o),
(776,-581,c)
);
},
{
closed = 1;
nodes = (
(400,0,l),
(400,1465,l),
(244,1465,l),
(244,0,l)
);
}
);
width = 1369;
},
{
layerId = "DCFFE7A7-A818-4955-884B-BB4CE5043B09";
shapes = (
{
closed = 1;
nodes = (
(1275,-642,l),
(1344,-420,o),
(1472,-207,o),
(1641,0,c),
(940,911,l),
(931,700,l),
(1536,1465,l),
(1063,1465,l),
(591,750,l),
(1244,-217,l),
(1309,69,l),
(1108,-111,o),
(947,-299,o),
(834,-492,c)
);
},
{
closed = 1;
nodes = (
(622,0,l),
(622,1465,l),
(173,1465,l),
(173,0,l)
);
}
);
width = 1611;
},
{
layerId = "4B50D27E-C53B-49C1-950D-105FFE0A0ACC";
shapes = (
{
closed = 1;
nodes = (
(1168,-641,l),
(1248,-416,o),
(1379,-203,o),
(1550,0,c),
(810,879,l),
(801,708,l),
(1447,1465,l),
(1064,1465,l),
(527,751,l),
(1232,-177,l),
(1282,57,l),
(1085,-123,o),
(929,-316,o),
(816,-519,c)
);
},
{
closed = 1;
nodes = (
(554,0,l),
(554,1465,l),
(195,1465,l),
(195,0,l)
);
}
);
width = 1537;
},
{
layerId = "BA9225F5-135B-4D21-ADB1-4407AF656753";
shapes = (
{
closed = 1;
nodes = (
(984,-640,l),
(1082,-408,o),
(1219,-195,o),
(1395,0,c),
(588,823,l),
(579,722,l),
(1295,1465,l),
(1065,1465,l),
(418,753,l),
(1212,-109,l),
(1236,37,l),
(1046,-145,o),
(897,-345,o),
(786,-565,c)
);
},
{
closed = 1;
nodes = (
(438,0,l),
(438,1465,l),
(232,1465,l),
(232,0,l)
);
}
);
width = 1411;
}
);
unicode = 975;
},
{
glyphname = "Kastroke-cy";
layers = (
{
layerId = "A2DAE9BC-C777-495C-976C-8ACFC7C9BBD2";
shapes = (
{
closed = 1;
nodes = (
(643,1141,l),
(643,1258,l),
(33,1258,l),
(33,1141,l)
);
},
{
closed = 1;
nodes = (
(1365,0,l),
(546,812,l),
(537,724,l),
(1266,1465,l),
(1066,1465,l),
(398,754,l),
(1123,0,l)
);
},
{
closed = 1;
nodes = (
(417,0,l),
(417,1465,l),
(239,1465,l),
(239,0,l)
);
}
);
width = 1389;
},
{
layerId = "DCFFE7A7-A818-4955-884B-BB4CE5043B09";
shapes = (
{
closed = 1;
nodes = (
(791,1086,l),
(791,1331,l),
(4,1331,l),
(4,1086,l)
);
},
{
closed = 1;
nodes = (
(1660,0,l),
(967,919,l),
(958,699,l),
(1555,1465,l),
(1064,1465,l),
(605,749,l),
(1098,0,l)
);
},
{
closed = 1;
nodes = (
(636,0,l),
(636,1465,l),
(168,1465,l),
(168,0,l)
);
}
);
width = 1646;
},
{
layerId = "4B50D27E-C53B-49C1-950D-105FFE0A0ACC";
shapes = (
{
closed = 1;
nodes = (
(741,1104,l),
(741,1307,l),
(14,1307,l),
(14,1104,l)
);
},
{
closed = 1;
nodes = (
(1562,0,l),
(827,883,l),
(818,707,l),
(1459,1465,l),
(1064,1465,l),
(536,751,l),
(1106,0,l)
);
},
{
closed = 1;
nodes = (
(563,0,l),
(563,1465,l),
(192,1465,l),
(192,0,l)
);
}
);
width = 1560;
},
{
layerId = "BA9225F5-135B-4D21-ADB1-4407AF656753";
shapes = (
{
closed = 1;
nodes = (
(667,1132,l),
(667,1270,l),
(28,1270,l),
(28,1132,l)
);
},
{
closed = 1;
nodes = (
(1414,0,l),
(616,830,l),
(607,720,l),
(1314,1465,l),
(1065,1465,l),
(432,753,l),
(1119,0,l)
);
},
{
closed = 1;
nodes = (
(453,0,l),
(453,1465,l),
(227,1465,l),
(227,0,l)
);
}
);
width = 1432;
}
);
unicode = 1182;
},
{
glyphname = "Kaverticalstroke-cy";
layers = (
{
layerId = "A2DAE9BC-C777-495C-976C-8ACFC7C9BBD2";
shapes = (
{
closed = 1;
nodes = (
(1421,0,l),
(1235,416,ls),
(1131,655,o),
(1018,807,o),
(791,807,cs),
(368,807,l),
(368,698,l),
(754,698,ls),
(920,698,o),
(1011,583,o),
(1100,359,cs),
(1238,0,l)
);
},
{
closed = 1;
nodes = (
(390,0,l),
(390,1465,l),
(244,1465,l),
(244,0,l)
);
},
{
closed = 1;
nodes = (
(937,737,l),
(1418,1465,l),
(1224,1465,l),
(818,737,l)
);
},
{
closed = 1;
nodes = (
(696,1136,l),
(599,1136,l),
(599,351,l),
(696,351,l)
);
}
);
width = 1512;
},
{
layerId = "DCFFE7A7-A818-4955-884B-BB4CE5043B09";
shapes = (
{
closed = 1;
nodes = (
(1635,0,l),
(1398,519,l),
(1311,714,o),
(1221,910,o),
(841,910,cs),
(535,910,l),
(535,643,l),
(767,643,ls),
(898,643,o),
(978,564,o),
(1025,363,c),
(1118,0,l)
);
},
{
closed = 1;
nodes = (
(581,0,l),
(581,1465,l),
(160,1465,l),
(160,0,l)
);
},
{
closed = 1;
nodes = (
(1229,720,l),
(1639,1465,l),
(1077,1465,l),
(925,720,l)
);
},
{
closed = 1;
nodes = (
(879,1225,l),
(677,1225,l),
(677,283,l),
(879,283,l)
);
}
);
width = 1679;
},
{
layerId = "4B50D27E-C53B-49C1-950D-105FFE0A0ACC";
shapes = (
{
closed = 1;
nodes = (
(1565,0,l),
(1345,485,l),
(1252,695,o),
(1155,876,o),
(825,876,cs),
(481,876,l),
(481,661,l),
(763,661,ls),
(905,661,o),
(988,570,o),
(1049,362,c),
(1157,0,l)
);
},
{
closed = 1;
nodes = (
(519,0,l),
(519,1465,l),
(187,1465,l),
(187,0,l)
);
},
{
closed = 1;
nodes = (
(1134,726,l),
(1567,1465,l),
(1125,1465,l),
(890,726,l)
);
},
{
closed = 1;
nodes = (
(819,1196,l),
(652,1196,l),
(652,305,l),
(819,305,l)
);
}
);
width = 1625;
},
{
layerId = "BA9225F5-135B-4D21-ADB1-4407AF656753";
shapes = (
{
closed = 1;
nodes = (
(1457,0,l),
(1262,433,l),
(1161,665,o),
(1052,824,o),
(799,824,cs),
(396,824,l),
(396,689,l),
(756,689,ls),
(916,689,o),
(1005,580,o),
(1087,360,c),
(1218,0,l)
);
},
{
closed = 1;
nodes = (
(422,0,l),
(422,1465,l),
(230,1465,l),
(230,0,l)
);
},
{
closed = 1;
nodes = (
(986,734,l),
(1455,1465,l),
(1199,1465,l),
(836,734,l)
);
},
{
closed = 1;
nodes = (
(727,1151,l),
(612,1151,l),
(612,339,l),
(727,339,l)
);
}
);
width = 1540;
}
);
leftKerningGroup = "I-cy";
unicode = 1180;
},
